%TF.GenerationSoftware,KiCad,Pcbnew,10.0.5-10.0.5~ubuntu24.04.1*%
%TF.CreationDate,2026-07-28T01:24:55+02:00*%
%TF.ProjectId,Attiny13A_Devboard_v1_SMD,41747469-6e79-4313-9341-5f446576626f,rev?*%
%TF.SameCoordinates,Original*%
%TF.FileFunction,Soldermask,Bot*%
%TF.FilePolarity,Negative*%
%FSLAX46Y46*%
G04 Gerber Fmt 4.6, Leading zero omitted, Abs format (unit mm)*
G04 Created by KiCad (PCBNEW 10.0.5-10.0.5~ubuntu24.04.1) date 2026-07-28 01:24:55*
%MOMM*%
%LPD*%
G01*
G04 APERTURE LIST*
G04 APERTURE END LIST*
G36*
X154960476Y-81741866D02*
G01*
X155084819Y-81813656D01*
X155186344Y-81915181D01*
X155258134Y-82039524D01*
X155295295Y-82178211D01*
X155295295Y-82321789D01*
X155258134Y-82460476D01*
X155186344Y-82584819D01*
X155084819Y-82686344D01*
X154960476Y-82758134D01*
X154821789Y-82795295D01*
X154678211Y-82795295D01*
X154539524Y-82758134D01*
X154415181Y-82686344D01*
X154313656Y-82584819D01*
X154241866Y-82460476D01*
X154204705Y-82321789D01*
X154204705Y-82178211D01*
X154241866Y-82039524D01*
X154313656Y-81915181D01*
X154415181Y-81813656D01*
X154539524Y-81741866D01*
X154678211Y-81704705D01*
X154821789Y-81704705D01*
X154960476Y-81741866D01*
G37*
G36*
X131210476Y-80991866D02*
G01*
X131334819Y-81063656D01*
X131436344Y-81165181D01*
X131508134Y-81289524D01*
X131545295Y-81428211D01*
X131545295Y-81571789D01*
X131508134Y-81710476D01*
X131436344Y-81834819D01*
X131334819Y-81936344D01*
X131210476Y-82008134D01*
X131071789Y-82045295D01*
X130928211Y-82045295D01*
X130789524Y-82008134D01*
X130665181Y-81936344D01*
X130563656Y-81834819D01*
X130491866Y-81710476D01*
X130454705Y-81571789D01*
X130454705Y-81428211D01*
X130491866Y-81289524D01*
X130563656Y-81165181D01*
X130665181Y-81063656D01*
X130789524Y-80991866D01*
X130928211Y-80954705D01*
X131071789Y-80954705D01*
X131210476Y-80991866D01*
G37*
G36*
X138460476Y-80741866D02*
G01*
X138584819Y-80813656D01*
X138686344Y-80915181D01*
X138758134Y-81039524D01*
X138795295Y-81178211D01*
X138795295Y-81321789D01*
X138758134Y-81460476D01*
X138686344Y-81584819D01*
X138584819Y-81686344D01*
X138460476Y-81758134D01*
X138321789Y-81795295D01*
X138178211Y-81795295D01*
X138039524Y-81758134D01*
X137915181Y-81686344D01*
X137813656Y-81584819D01*
X137741866Y-81460476D01*
X137704705Y-81321789D01*
X137704705Y-81178211D01*
X137741866Y-81039524D01*
X137813656Y-80915181D01*
X137915181Y-80813656D01*
X138039524Y-80741866D01*
X138178211Y-80704705D01*
X138321789Y-80704705D01*
X138460476Y-80741866D01*
G37*
G36*
X153210476Y-79991866D02*
G01*
X153334819Y-80063656D01*
X153436344Y-80165181D01*
X153508134Y-80289524D01*
X153545295Y-80428211D01*
X153545295Y-80571789D01*
X153508134Y-80710476D01*
X153436344Y-80834819D01*
X153334819Y-80936344D01*
X153210476Y-81008134D01*
X153071789Y-81045295D01*
X152928211Y-81045295D01*
X152789524Y-81008134D01*
X152665181Y-80936344D01*
X152563656Y-80834819D01*
X152491866Y-80710476D01*
X152454705Y-80571789D01*
X152454705Y-80428211D01*
X152491866Y-80289524D01*
X152563656Y-80165181D01*
X152665181Y-80063656D01*
X152789524Y-79991866D01*
X152928211Y-79954705D01*
X153071789Y-79954705D01*
X153210476Y-79991866D01*
G37*
G36*
X169369134Y-78393806D02*
G01*
X169385355Y-78404645D01*
X169396194Y-78420866D01*
X169400000Y-78440000D01*
X169400000Y-80140000D01*
X169396194Y-80159134D01*
X169385355Y-80175355D01*
X169369134Y-80186194D01*
X169350000Y-80190000D01*
X167650000Y-80190000D01*
X167630866Y-80186194D01*
X167614645Y-80175355D01*
X167603806Y-80159134D01*
X167600000Y-80140000D01*
X167600000Y-78440000D01*
X167603806Y-78420866D01*
X167614645Y-78404645D01*
X167630866Y-78393806D01*
X167650000Y-78390000D01*
X169350000Y-78390000D01*
X169369134Y-78393806D01*
G37*
G36*
X136710476Y-78741866D02*
G01*
X136834819Y-78813656D01*
X136936344Y-78915181D01*
X137008134Y-79039524D01*
X137045295Y-79178211D01*
X137045295Y-79321789D01*
X137008134Y-79460476D01*
X136936344Y-79584819D01*
X136834819Y-79686344D01*
X136710476Y-79758134D01*
X136571789Y-79795295D01*
X136428211Y-79795295D01*
X136289524Y-79758134D01*
X136165181Y-79686344D01*
X136063656Y-79584819D01*
X135991866Y-79460476D01*
X135954705Y-79321789D01*
X135954705Y-79178211D01*
X135991866Y-79039524D01*
X136063656Y-78915181D01*
X136165181Y-78813656D01*
X136289524Y-78741866D01*
X136428211Y-78704705D01*
X136571789Y-78704705D01*
X136710476Y-78741866D01*
G37*
G36*
X164922208Y-77334254D02*
G01*
X165023943Y-77392991D01*
X165107009Y-77476057D01*
X165165746Y-77577792D01*
X165196150Y-77691263D01*
X165196150Y-77808737D01*
X165165746Y-77922208D01*
X165107009Y-78023943D01*
X165023943Y-78107009D01*
X164922208Y-78165746D01*
X164808737Y-78196150D01*
X164691263Y-78196150D01*
X164577792Y-78165746D01*
X164476057Y-78107009D01*
X164392991Y-78023943D01*
X164334254Y-77922208D01*
X164303850Y-77808737D01*
X164303850Y-77691263D01*
X164334254Y-77577792D01*
X164392991Y-77476057D01*
X164476057Y-77392991D01*
X164577792Y-77334254D01*
X164691263Y-77303850D01*
X164808737Y-77303850D01*
X164922208Y-77334254D01*
G37*
G36*
X138210476Y-76741866D02*
G01*
X138334819Y-76813656D01*
X138436344Y-76915181D01*
X138508134Y-77039524D01*
X138545295Y-77178211D01*
X138545295Y-77321789D01*
X138508134Y-77460476D01*
X138436344Y-77584819D01*
X138334819Y-77686344D01*
X138210476Y-77758134D01*
X138071789Y-77795295D01*
X137928211Y-77795295D01*
X137789524Y-77758134D01*
X137665181Y-77686344D01*
X137563656Y-77584819D01*
X137491866Y-77460476D01*
X137454705Y-77321789D01*
X137454705Y-77178211D01*
X137491866Y-77039524D01*
X137563656Y-76915181D01*
X137665181Y-76813656D01*
X137789524Y-76741866D01*
X137928211Y-76704705D01*
X138071789Y-76704705D01*
X138210476Y-76741866D01*
G37*
G36*
X168761256Y-75888754D02*
G01*
X168924257Y-75956271D01*
X169070954Y-76054291D01*
X169195709Y-76179046D01*
X169293729Y-76325743D01*
X169361246Y-76488744D01*
X169395666Y-76661785D01*
X169395666Y-76838215D01*
X169361246Y-77011256D01*
X169293729Y-77174257D01*
X169195709Y-77320954D01*
X169070954Y-77445709D01*
X168924257Y-77543729D01*
X168761256Y-77611246D01*
X168588215Y-77645666D01*
X168411785Y-77645666D01*
X168238744Y-77611246D01*
X168075743Y-77543729D01*
X167929046Y-77445709D01*
X167804291Y-77320954D01*
X167706271Y-77174257D01*
X167638754Y-77011256D01*
X167604334Y-76838215D01*
X167604334Y-76661785D01*
X167638754Y-76488744D01*
X167706271Y-76325743D01*
X167804291Y-76179046D01*
X167929046Y-76054291D01*
X168075743Y-75956271D01*
X168238744Y-75888754D01*
X168411785Y-75854334D01*
X168588215Y-75854334D01*
X168761256Y-75888754D01*
G37*
G36*
X128892651Y-74937301D02*
G01*
X129094123Y-75002763D01*
X129282873Y-75098936D01*
X129454255Y-75223452D01*
X129604048Y-75373245D01*
X129728564Y-75544627D01*
X129824737Y-75733377D01*
X129890199Y-75934849D01*
X129923338Y-76144080D01*
X129923338Y-76355920D01*
X129890199Y-76565151D01*
X129824737Y-76766623D01*
X129728564Y-76955373D01*
X129604048Y-77126755D01*
X129454255Y-77276548D01*
X129282873Y-77401064D01*
X129094123Y-77497237D01*
X128892651Y-77562699D01*
X128683420Y-77595838D01*
X128471580Y-77595838D01*
X128262349Y-77562699D01*
X128060877Y-77497237D01*
X127872127Y-77401064D01*
X127700745Y-77276548D01*
X127550952Y-77126755D01*
X127426436Y-76955373D01*
X127330263Y-76766623D01*
X127264801Y-76565151D01*
X127231662Y-76355920D01*
X127231662Y-76144080D01*
X127264801Y-75934849D01*
X127330263Y-75733377D01*
X127426436Y-75544627D01*
X127550952Y-75373245D01*
X127700745Y-75223452D01*
X127872127Y-75098936D01*
X128060877Y-75002763D01*
X128262349Y-74937301D01*
X128471580Y-74904162D01*
X128683420Y-74904162D01*
X128892651Y-74937301D01*
G37*
G36*
X141960476Y-75241866D02*
G01*
X142084819Y-75313656D01*
X142186344Y-75415181D01*
X142258134Y-75539524D01*
X142295295Y-75678211D01*
X142295295Y-75821789D01*
X142258134Y-75960476D01*
X142186344Y-76084819D01*
X142084819Y-76186344D01*
X141960476Y-76258134D01*
X141821789Y-76295295D01*
X141678211Y-76295295D01*
X141539524Y-76258134D01*
X141415181Y-76186344D01*
X141313656Y-76084819D01*
X141241866Y-75960476D01*
X141204705Y-75821789D01*
X141204705Y-75678211D01*
X141241866Y-75539524D01*
X141313656Y-75415181D01*
X141415181Y-75313656D01*
X141539524Y-75241866D01*
X141678211Y-75204705D01*
X141821789Y-75204705D01*
X141960476Y-75241866D01*
G37*
G36*
X160672208Y-75219254D02*
G01*
X160773943Y-75277991D01*
X160857009Y-75361057D01*
X160915746Y-75462792D01*
X160946150Y-75576263D01*
X160946150Y-75693737D01*
X160915746Y-75807208D01*
X160857009Y-75908943D01*
X160773943Y-75992009D01*
X160672208Y-76050746D01*
X160558737Y-76081150D01*
X160441263Y-76081150D01*
X160327792Y-76050746D01*
X160226057Y-75992009D01*
X160142991Y-75908943D01*
X160084254Y-75807208D01*
X160053850Y-75693737D01*
X160053850Y-75576263D01*
X160084254Y-75462792D01*
X160142991Y-75361057D01*
X160226057Y-75277991D01*
X160327792Y-75219254D01*
X160441263Y-75188850D01*
X160558737Y-75188850D01*
X160672208Y-75219254D01*
G37*
G36*
X168761256Y-73348754D02*
G01*
X168924257Y-73416271D01*
X169070954Y-73514291D01*
X169195709Y-73639046D01*
X169293729Y-73785743D01*
X169361246Y-73948744D01*
X169395666Y-74121785D01*
X169395666Y-74298215D01*
X169361246Y-74471256D01*
X169293729Y-74634257D01*
X169195709Y-74780954D01*
X169070954Y-74905709D01*
X168924257Y-75003729D01*
X168761256Y-75071246D01*
X168588215Y-75105666D01*
X168411785Y-75105666D01*
X168238744Y-75071246D01*
X168075743Y-75003729D01*
X167929046Y-74905709D01*
X167804291Y-74780954D01*
X167706271Y-74634257D01*
X167638754Y-74471256D01*
X167604334Y-74298215D01*
X167604334Y-74121785D01*
X167638754Y-73948744D01*
X167706271Y-73785743D01*
X167804291Y-73639046D01*
X167929046Y-73514291D01*
X168075743Y-73416271D01*
X168238744Y-73348754D01*
X168411785Y-73314334D01*
X168588215Y-73314334D01*
X168761256Y-73348754D01*
G37*
G36*
X160672208Y-73334254D02*
G01*
X160773943Y-73392991D01*
X160857009Y-73476057D01*
X160915746Y-73577792D01*
X160946150Y-73691263D01*
X160946150Y-73808737D01*
X160915746Y-73922208D01*
X160857009Y-74023943D01*
X160773943Y-74107009D01*
X160672208Y-74165746D01*
X160558737Y-74196150D01*
X160441263Y-74196150D01*
X160327792Y-74165746D01*
X160226057Y-74107009D01*
X160142991Y-74023943D01*
X160084254Y-73922208D01*
X160053850Y-73808737D01*
X160053850Y-73691263D01*
X160084254Y-73577792D01*
X160142991Y-73476057D01*
X160226057Y-73392991D01*
X160327792Y-73334254D01*
X160441263Y-73303850D01*
X160558737Y-73303850D01*
X160672208Y-73334254D01*
G37*
G36*
X168761256Y-70808754D02*
G01*
X168924257Y-70876271D01*
X169070954Y-70974291D01*
X169195709Y-71099046D01*
X169293729Y-71245743D01*
X169361246Y-71408744D01*
X169395666Y-71581785D01*
X169395666Y-71758215D01*
X169361246Y-71931256D01*
X169293729Y-72094257D01*
X169195709Y-72240954D01*
X169070954Y-72365709D01*
X168924257Y-72463729D01*
X168761256Y-72531246D01*
X168588215Y-72565666D01*
X168411785Y-72565666D01*
X168238744Y-72531246D01*
X168075743Y-72463729D01*
X167929046Y-72365709D01*
X167804291Y-72240954D01*
X167706271Y-72094257D01*
X167638754Y-71931256D01*
X167604334Y-71758215D01*
X167604334Y-71581785D01*
X167638754Y-71408744D01*
X167706271Y-71245743D01*
X167804291Y-71099046D01*
X167929046Y-70974291D01*
X168075743Y-70876271D01*
X168238744Y-70808754D01*
X168411785Y-70774334D01*
X168588215Y-70774334D01*
X168761256Y-70808754D01*
G37*
G36*
X129696185Y-69827969D02*
G01*
X129704858Y-69831798D01*
X129712425Y-69832901D01*
X129759723Y-69856023D01*
X129797041Y-69872501D01*
X129800496Y-69875956D01*
X129801420Y-69876408D01*
X129871091Y-69946079D01*
X129871542Y-69947002D01*
X129874999Y-69950459D01*
X129891478Y-69987782D01*
X129914598Y-70035073D01*
X129915700Y-70042639D01*
X129919531Y-70051315D01*
X129927500Y-70120000D01*
X129927500Y-72220000D01*
X129919531Y-72288685D01*
X129915699Y-72297361D01*
X129914598Y-72304925D01*
X129891485Y-72352202D01*
X129874999Y-72389541D01*
X129871541Y-72392998D01*
X129871091Y-72393920D01*
X129801420Y-72463591D01*
X129800498Y-72464041D01*
X129797041Y-72467499D01*
X129759707Y-72483983D01*
X129712426Y-72507098D01*
X129704861Y-72508200D01*
X129696185Y-72512031D01*
X129627500Y-72520000D01*
X127527500Y-72520000D01*
X127458815Y-72512031D01*
X127450138Y-72508200D01*
X127442574Y-72507098D01*
X127395287Y-72483981D01*
X127357959Y-72467499D01*
X127354502Y-72464042D01*
X127353579Y-72463591D01*
X127283908Y-72393920D01*
X127283456Y-72392996D01*
X127280001Y-72389541D01*
X127263525Y-72352228D01*
X127240401Y-72304926D01*
X127239298Y-72297357D01*
X127235469Y-72288685D01*
X127227500Y-72220000D01*
X127227500Y-70120000D01*
X127235469Y-70051315D01*
X127239298Y-70042642D01*
X127240401Y-70035074D01*
X127263528Y-69987766D01*
X127280001Y-69950459D01*
X127283455Y-69947004D01*
X127283908Y-69946079D01*
X127353579Y-69876408D01*
X127354504Y-69875955D01*
X127357959Y-69872501D01*
X127395261Y-69856030D01*
X127442573Y-69832901D01*
X127450142Y-69831798D01*
X127458815Y-69827969D01*
X127527500Y-69820000D01*
X129627500Y-69820000D01*
X129696185Y-69827969D01*
G37*
G36*
X154172208Y-70334254D02*
G01*
X154273943Y-70392991D01*
X154357009Y-70476057D01*
X154415746Y-70577792D01*
X154446150Y-70691263D01*
X154446150Y-70808737D01*
X154415746Y-70922208D01*
X154357009Y-71023943D01*
X154273943Y-71107009D01*
X154172208Y-71165746D01*
X154058737Y-71196150D01*
X153941263Y-71196150D01*
X153827792Y-71165746D01*
X153726057Y-71107009D01*
X153642991Y-71023943D01*
X153584254Y-70922208D01*
X153553850Y-70808737D01*
X153553850Y-70691263D01*
X153584254Y-70577792D01*
X153642991Y-70476057D01*
X153726057Y-70392991D01*
X153827792Y-70334254D01*
X153941263Y-70303850D01*
X154058737Y-70303850D01*
X154172208Y-70334254D01*
G37*
G36*
X161672208Y-69584254D02*
G01*
X161773943Y-69642991D01*
X161857009Y-69726057D01*
X161915746Y-69827792D01*
X161946150Y-69941263D01*
X161946150Y-70058737D01*
X161915746Y-70172208D01*
X161857009Y-70273943D01*
X161773943Y-70357009D01*
X161672208Y-70415746D01*
X161558737Y-70446150D01*
X161441263Y-70446150D01*
X161327792Y-70415746D01*
X161226057Y-70357009D01*
X161142991Y-70273943D01*
X161084254Y-70172208D01*
X161053850Y-70058737D01*
X161053850Y-69941263D01*
X161084254Y-69827792D01*
X161142991Y-69726057D01*
X161226057Y-69642991D01*
X161327792Y-69584254D01*
X161441263Y-69553850D01*
X161558737Y-69553850D01*
X161672208Y-69584254D01*
G37*
G36*
X164922208Y-69584254D02*
G01*
X165023943Y-69642991D01*
X165107009Y-69726057D01*
X165165746Y-69827792D01*
X165196150Y-69941263D01*
X165196150Y-70058737D01*
X165165746Y-70172208D01*
X165107009Y-70273943D01*
X165023943Y-70357009D01*
X164922208Y-70415746D01*
X164808737Y-70446150D01*
X164691263Y-70446150D01*
X164577792Y-70415746D01*
X164476057Y-70357009D01*
X164392991Y-70273943D01*
X164334254Y-70172208D01*
X164303850Y-70058737D01*
X164303850Y-69941263D01*
X164334254Y-69827792D01*
X164392991Y-69726057D01*
X164476057Y-69642991D01*
X164577792Y-69584254D01*
X164691263Y-69553850D01*
X164808737Y-69553850D01*
X164922208Y-69584254D01*
G37*
G36*
X155344543Y-69351258D02*
G01*
X155446278Y-69409995D01*
X155529344Y-69493061D01*
X155588081Y-69594796D01*
X155618485Y-69708267D01*
X155618485Y-69825741D01*
X155588081Y-69939212D01*
X155529344Y-70040947D01*
X155446278Y-70124013D01*
X155344543Y-70182750D01*
X155231072Y-70213154D01*
X155113598Y-70213154D01*
X155000127Y-70182750D01*
X154898392Y-70124013D01*
X154815326Y-70040947D01*
X154756589Y-69939212D01*
X154726185Y-69825741D01*
X154726185Y-69708267D01*
X154756589Y-69594796D01*
X154815326Y-69493061D01*
X154898392Y-69409995D01*
X155000127Y-69351258D01*
X155113598Y-69320854D01*
X155231072Y-69320854D01*
X155344543Y-69351258D01*
G37*
G36*
X168761256Y-68268754D02*
G01*
X168924257Y-68336271D01*
X169070954Y-68434291D01*
X169195709Y-68559046D01*
X169293729Y-68705743D01*
X169361246Y-68868744D01*
X169395666Y-69041785D01*
X169395666Y-69218215D01*
X169361246Y-69391256D01*
X169293729Y-69554257D01*
X169195709Y-69700954D01*
X169070954Y-69825709D01*
X168924257Y-69923729D01*
X168761256Y-69991246D01*
X168588215Y-70025666D01*
X168411785Y-70025666D01*
X168238744Y-69991246D01*
X168075743Y-69923729D01*
X167929046Y-69825709D01*
X167804291Y-69700954D01*
X167706271Y-69554257D01*
X167638754Y-69391256D01*
X167604334Y-69218215D01*
X167604334Y-69041785D01*
X167638754Y-68868744D01*
X167706271Y-68705743D01*
X167804291Y-68559046D01*
X167929046Y-68434291D01*
X168075743Y-68336271D01*
X168238744Y-68268754D01*
X168411785Y-68234334D01*
X168588215Y-68234334D01*
X168761256Y-68268754D01*
G37*
G36*
X161422208Y-68334254D02*
G01*
X161523943Y-68392991D01*
X161607009Y-68476057D01*
X161665746Y-68577792D01*
X161696150Y-68691263D01*
X161696150Y-68808737D01*
X161665746Y-68922208D01*
X161607009Y-69023943D01*
X161523943Y-69107009D01*
X161422208Y-69165746D01*
X161308737Y-69196150D01*
X161191263Y-69196150D01*
X161077792Y-69165746D01*
X160976057Y-69107009D01*
X160892991Y-69023943D01*
X160834254Y-68922208D01*
X160803850Y-68808737D01*
X160803850Y-68691263D01*
X160834254Y-68577792D01*
X160892991Y-68476057D01*
X160976057Y-68392991D01*
X161077792Y-68334254D01*
X161191263Y-68303850D01*
X161308737Y-68303850D01*
X161422208Y-68334254D01*
G37*
G36*
X156511256Y-66638754D02*
G01*
X156674257Y-66706271D01*
X156820954Y-66804291D01*
X156945709Y-66929046D01*
X157043729Y-67075743D01*
X157111246Y-67238744D01*
X157145666Y-67411785D01*
X157145666Y-67588215D01*
X157111246Y-67761256D01*
X157043729Y-67924257D01*
X156945709Y-68070954D01*
X156820954Y-68195709D01*
X156674257Y-68293729D01*
X156511256Y-68361246D01*
X156338215Y-68395666D01*
X156161785Y-68395666D01*
X155988744Y-68361246D01*
X155825743Y-68293729D01*
X155679046Y-68195709D01*
X155554291Y-68070954D01*
X155456271Y-67924257D01*
X155388754Y-67761256D01*
X155354334Y-67588215D01*
X155354334Y-67411785D01*
X155388754Y-67238744D01*
X155456271Y-67075743D01*
X155554291Y-66929046D01*
X155679046Y-66804291D01*
X155825743Y-66706271D01*
X155988744Y-66638754D01*
X156161785Y-66604334D01*
X156338215Y-66604334D01*
X156511256Y-66638754D01*
G37*
G36*
X159051256Y-66638754D02*
G01*
X159214257Y-66706271D01*
X159360954Y-66804291D01*
X159485709Y-66929046D01*
X159583729Y-67075743D01*
X159651246Y-67238744D01*
X159685666Y-67411785D01*
X159685666Y-67588215D01*
X159651246Y-67761256D01*
X159583729Y-67924257D01*
X159485709Y-68070954D01*
X159360954Y-68195709D01*
X159214257Y-68293729D01*
X159051256Y-68361246D01*
X158878215Y-68395666D01*
X158701785Y-68395666D01*
X158528744Y-68361246D01*
X158365743Y-68293729D01*
X158219046Y-68195709D01*
X158094291Y-68070954D01*
X157996271Y-67924257D01*
X157928754Y-67761256D01*
X157894334Y-67588215D01*
X157894334Y-67411785D01*
X157928754Y-67238744D01*
X157996271Y-67075743D01*
X158094291Y-66929046D01*
X158219046Y-66804291D01*
X158365743Y-66706271D01*
X158528744Y-66638754D01*
X158701785Y-66604334D01*
X158878215Y-66604334D01*
X159051256Y-66638754D01*
G37*
G36*
X138960476Y-66991866D02*
G01*
X139084819Y-67063656D01*
X139186344Y-67165181D01*
X139258134Y-67289524D01*
X139295295Y-67428211D01*
X139295295Y-67571789D01*
X139258134Y-67710476D01*
X139186344Y-67834819D01*
X139084819Y-67936344D01*
X138960476Y-68008134D01*
X138821789Y-68045295D01*
X138678211Y-68045295D01*
X138539524Y-68008134D01*
X138415181Y-67936344D01*
X138313656Y-67834819D01*
X138241866Y-67710476D01*
X138204705Y-67571789D01*
X138204705Y-67428211D01*
X138241866Y-67289524D01*
X138313656Y-67165181D01*
X138415181Y-67063656D01*
X138539524Y-66991866D01*
X138678211Y-66954705D01*
X138821789Y-66954705D01*
X138960476Y-66991866D01*
G37*
G36*
X141960476Y-66491866D02*
G01*
X142084819Y-66563656D01*
X142186344Y-66665181D01*
X142258134Y-66789524D01*
X142295295Y-66928211D01*
X142295295Y-67071789D01*
X142258134Y-67210476D01*
X142186344Y-67334819D01*
X142084819Y-67436344D01*
X141960476Y-67508134D01*
X141821789Y-67545295D01*
X141678211Y-67545295D01*
X141539524Y-67508134D01*
X141415181Y-67436344D01*
X141313656Y-67334819D01*
X141241866Y-67210476D01*
X141204705Y-67071789D01*
X141204705Y-66928211D01*
X141241866Y-66789524D01*
X141313656Y-66665181D01*
X141415181Y-66563656D01*
X141539524Y-66491866D01*
X141678211Y-66454705D01*
X141821789Y-66454705D01*
X141960476Y-66491866D01*
G37*
G36*
X168761256Y-65728754D02*
G01*
X168924257Y-65796271D01*
X169070954Y-65894291D01*
X169195709Y-66019046D01*
X169293729Y-66165743D01*
X169361246Y-66328744D01*
X169395666Y-66501785D01*
X169395666Y-66678215D01*
X169361246Y-66851256D01*
X169293729Y-67014257D01*
X169195709Y-67160954D01*
X169070954Y-67285709D01*
X168924257Y-67383729D01*
X168761256Y-67451246D01*
X168588215Y-67485666D01*
X168411785Y-67485666D01*
X168238744Y-67451246D01*
X168075743Y-67383729D01*
X167929046Y-67285709D01*
X167804291Y-67160954D01*
X167706271Y-67014257D01*
X167638754Y-66851256D01*
X167604334Y-66678215D01*
X167604334Y-66501785D01*
X167638754Y-66328744D01*
X167706271Y-66165743D01*
X167804291Y-66019046D01*
X167929046Y-65894291D01*
X168075743Y-65796271D01*
X168238744Y-65728754D01*
X168411785Y-65694334D01*
X168588215Y-65694334D01*
X168761256Y-65728754D01*
G37*
G36*
X136710476Y-65241866D02*
G01*
X136834819Y-65313656D01*
X136936344Y-65415181D01*
X137008134Y-65539524D01*
X137045295Y-65678211D01*
X137045295Y-65821789D01*
X137008134Y-65960476D01*
X136936344Y-66084819D01*
X136834819Y-66186344D01*
X136710476Y-66258134D01*
X136571789Y-66295295D01*
X136428211Y-66295295D01*
X136289524Y-66258134D01*
X136165181Y-66186344D01*
X136063656Y-66084819D01*
X135991866Y-65960476D01*
X135954705Y-65821789D01*
X135954705Y-65678211D01*
X135991866Y-65539524D01*
X136063656Y-65415181D01*
X136165181Y-65313656D01*
X136289524Y-65241866D01*
X136428211Y-65204705D01*
X136571789Y-65204705D01*
X136710476Y-65241866D01*
G37*
G36*
X141210476Y-65241866D02*
G01*
X141334819Y-65313656D01*
X141436344Y-65415181D01*
X141508134Y-65539524D01*
X141545295Y-65678211D01*
X141545295Y-65821789D01*
X141508134Y-65960476D01*
X141436344Y-66084819D01*
X141334819Y-66186344D01*
X141210476Y-66258134D01*
X141071789Y-66295295D01*
X140928211Y-66295295D01*
X140789524Y-66258134D01*
X140665181Y-66186344D01*
X140563656Y-66084819D01*
X140491866Y-65960476D01*
X140454705Y-65821789D01*
X140454705Y-65678211D01*
X140491866Y-65539524D01*
X140563656Y-65415181D01*
X140665181Y-65313656D01*
X140789524Y-65241866D01*
X140928211Y-65204705D01*
X141071789Y-65204705D01*
X141210476Y-65241866D01*
G37*
G36*
X156511256Y-64098754D02*
G01*
X156674257Y-64166271D01*
X156820954Y-64264291D01*
X156945709Y-64389046D01*
X157043729Y-64535743D01*
X157111246Y-64698744D01*
X157145666Y-64871785D01*
X157145666Y-65048215D01*
X157111246Y-65221256D01*
X157043729Y-65384257D01*
X156945709Y-65530954D01*
X156820954Y-65655709D01*
X156674257Y-65753729D01*
X156511256Y-65821246D01*
X156338215Y-65855666D01*
X156161785Y-65855666D01*
X155988744Y-65821246D01*
X155825743Y-65753729D01*
X155679046Y-65655709D01*
X155554291Y-65530954D01*
X155456271Y-65384257D01*
X155388754Y-65221256D01*
X155354334Y-65048215D01*
X155354334Y-64871785D01*
X155388754Y-64698744D01*
X155456271Y-64535743D01*
X155554291Y-64389046D01*
X155679046Y-64264291D01*
X155825743Y-64166271D01*
X155988744Y-64098754D01*
X156161785Y-64064334D01*
X156338215Y-64064334D01*
X156511256Y-64098754D01*
G37*
G36*
X159051256Y-64098754D02*
G01*
X159214257Y-64166271D01*
X159360954Y-64264291D01*
X159485709Y-64389046D01*
X159583729Y-64535743D01*
X159651246Y-64698744D01*
X159685666Y-64871785D01*
X159685666Y-65048215D01*
X159651246Y-65221256D01*
X159583729Y-65384257D01*
X159485709Y-65530954D01*
X159360954Y-65655709D01*
X159214257Y-65753729D01*
X159051256Y-65821246D01*
X158878215Y-65855666D01*
X158701785Y-65855666D01*
X158528744Y-65821246D01*
X158365743Y-65753729D01*
X158219046Y-65655709D01*
X158094291Y-65530954D01*
X157996271Y-65384257D01*
X157928754Y-65221256D01*
X157894334Y-65048215D01*
X157894334Y-64871785D01*
X157928754Y-64698744D01*
X157996271Y-64535743D01*
X158094291Y-64389046D01*
X158219046Y-64264291D01*
X158365743Y-64166271D01*
X158528744Y-64098754D01*
X158701785Y-64064334D01*
X158878215Y-64064334D01*
X159051256Y-64098754D01*
G37*
G36*
X157119134Y-61523806D02*
G01*
X157135355Y-61534645D01*
X157146194Y-61550866D01*
X157150000Y-61570000D01*
X157150000Y-63270000D01*
X157146194Y-63289134D01*
X157135355Y-63305355D01*
X157119134Y-63316194D01*
X157100000Y-63320000D01*
X155400000Y-63320000D01*
X155380866Y-63316194D01*
X155364645Y-63305355D01*
X155353806Y-63289134D01*
X155350000Y-63270000D01*
X155350000Y-61570000D01*
X155353806Y-61550866D01*
X155364645Y-61534645D01*
X155380866Y-61523806D01*
X155400000Y-61520000D01*
X157100000Y-61520000D01*
X157119134Y-61523806D01*
G37*
G36*
X159051256Y-61558754D02*
G01*
X159214257Y-61626271D01*
X159360954Y-61724291D01*
X159485709Y-61849046D01*
X159583729Y-61995743D01*
X159651246Y-62158744D01*
X159685666Y-62331785D01*
X159685666Y-62508215D01*
X159651246Y-62681256D01*
X159583729Y-62844257D01*
X159485709Y-62990954D01*
X159360954Y-63115709D01*
X159214257Y-63213729D01*
X159051256Y-63281246D01*
X158878215Y-63315666D01*
X158701785Y-63315666D01*
X158528744Y-63281246D01*
X158365743Y-63213729D01*
X158219046Y-63115709D01*
X158094291Y-62990954D01*
X157996271Y-62844257D01*
X157928754Y-62681256D01*
X157894334Y-62508215D01*
X157894334Y-62331785D01*
X157928754Y-62158744D01*
X157996271Y-61995743D01*
X158094291Y-61849046D01*
X158219046Y-61724291D01*
X158365743Y-61626271D01*
X158528744Y-61558754D01*
X158701785Y-61524334D01*
X158878215Y-61524334D01*
X159051256Y-61558754D01*
G37*
M02*
