%TF.GenerationSoftware,KiCad,Pcbnew,10.0.5-10.0.5~ubuntu24.04.1*%
%TF.CreationDate,2026-07-28T01:24:53+02:00*%
%TF.ProjectId,Attiny13A_Devboard_v1_SMD,41747469-6e79-4313-9341-5f446576626f,rev?*%
%TF.SameCoordinates,Original*%
%TF.FileFunction,Copper,L2,Bot*%
%TF.FilePolarity,Positive*%
%FSLAX46Y46*%
G04 Gerber Fmt 4.6, Leading zero omitted, Abs format (unit mm)*
G04 Created by KiCad (PCBNEW 10.0.5-10.0.5~ubuntu24.04.1) date 2026-07-28 01:24:54*
%MOMM*%
%LPD*%
G01*
G04 APERTURE LIST*
G04 Aperture macros list*
%AMRoundRect*
0 Rectangle with rounded corners*
0 $1 Rounding radius*
0 $2 $3 $4 $5 $6 $7 $8 $9 X,Y pos of 4 corners*
0 Add a 4 corners polygon primitive as box body*
4,1,4,$2,$3,$4,$5,$6,$7,$8,$9,$2,$3,0*
0 Add four circle primitives for the rounded corners*
1,1,$1+$1,$2,$3*
1,1,$1+$1,$4,$5*
1,1,$1+$1,$6,$7*
1,1,$1+$1,$8,$9*
0 Add four rect primitives between the rounded corners*
20,1,$1+$1,$2,$3,$4,$5,0*
20,1,$1+$1,$4,$5,$6,$7,0*
20,1,$1+$1,$6,$7,$8,$9,0*
20,1,$1+$1,$8,$9,$2,$3,0*%
G04 Aperture macros list end*
%TA.AperFunction,ComponentPad*%
%ADD10R,1.700000X1.700000*%
%TD*%
%TA.AperFunction,ComponentPad*%
%ADD11C,1.700000*%
%TD*%
%TA.AperFunction,ComponentPad*%
%ADD12RoundRect,0.250000X-1.050000X1.050000X-1.050000X-1.050000X1.050000X-1.050000X1.050000X1.050000X0*%
%TD*%
%TA.AperFunction,ComponentPad*%
%ADD13C,2.600000*%
%TD*%
%TA.AperFunction,ViaPad*%
%ADD14C,1.000000*%
%TD*%
%TA.AperFunction,ViaPad*%
%ADD15C,0.800000*%
%TD*%
%TA.AperFunction,Conductor*%
%ADD16C,0.300000*%
%TD*%
G04 APERTURE END LIST*
D10*
%TO.P,J3,1,Pin_1_1*%
%TO.N,VCC*%
X168500000Y-79290000D03*
D11*
%TO.P,J3,2,Pin_2_2*%
%TO.N,AVR_MOSI*%
X168500000Y-76750000D03*
%TO.P,J3,3,Pin_3_3*%
%TO.N,AVR_MISO*%
X168500000Y-74210000D03*
%TO.P,J3,4,Pin_4_4*%
%TO.N,AVR_SCK*%
X168500000Y-71670000D03*
%TO.P,J3,5,Pin_5_5*%
%TO.N,AVR_PB3*%
X168500000Y-69130000D03*
%TO.P,J3,6,Pin_6_6*%
%TO.N,GND*%
X168500000Y-66590000D03*
%TD*%
D10*
%TO.P,J2,1,MISO_1*%
%TO.N,AVR_MISO*%
X156250000Y-62420000D03*
D11*
%TO.P,J2,2,VCC_2*%
%TO.N,VCC*%
X158790000Y-62420000D03*
%TO.P,J2,3,SCK_3*%
%TO.N,AVR_SCK*%
X156250000Y-64960000D03*
%TO.P,J2,4,MOSI_4*%
%TO.N,AVR_MOSI*%
X158790000Y-64960000D03*
%TO.P,J2,5,~{RST}_5*%
%TO.N,AVR_RST*%
X156250000Y-67500000D03*
%TO.P,J2,6,GND_6*%
%TO.N,GND*%
X158790000Y-67500000D03*
%TD*%
D12*
%TO.P,J1,1,Pin_1_1*%
%TO.N,+5V*%
X128577500Y-71170000D03*
D13*
%TO.P,J1,2,Pin_2_2*%
%TO.N,GND*%
X128577500Y-76250000D03*
%TD*%
D14*
%TO.N,GND*%
X138750000Y-67500000D03*
X138000000Y-77250000D03*
X141750000Y-67000000D03*
X136500000Y-65750000D03*
X154750000Y-82250000D03*
X141000000Y-65750000D03*
X153000000Y-80500000D03*
X131000000Y-81500000D03*
X136500000Y-79250000D03*
X138250000Y-81250000D03*
X141750000Y-75750000D03*
D15*
%TO.N,AVR_MOSI*%
X164750000Y-77750000D03*
X161250000Y-68750000D03*
%TO.N,AVR_SCK*%
X155172335Y-69767004D03*
X160500000Y-73750000D03*
%TO.N,AVR_MISO*%
X160500000Y-75635000D03*
X154000000Y-70750000D03*
%TO.N,AVR_PB3*%
X161500000Y-70000000D03*
X164750000Y-70000000D03*
%TD*%
%TO.N,AVR_MOSI*%
D16*
X160750000Y-69250000D02*
X160750000Y-72250000D01*
X160750000Y-72250000D02*
X164750000Y-76250000D01*
X161250000Y-68750000D02*
X160750000Y-69250000D01*
X164750000Y-76250000D02*
X164750000Y-77750000D01*
%TO.N,AVR_SCK*%
X156000000Y-70000000D02*
X159750000Y-73750000D01*
X155405331Y-70000000D02*
X156000000Y-70000000D01*
X155172335Y-69767004D02*
X155405331Y-70000000D01*
X159750000Y-73750000D02*
X160500000Y-73750000D01*
%TO.N,AVR_MISO*%
X160500000Y-75635000D02*
X160365000Y-75500000D01*
X160365000Y-75500000D02*
X160250000Y-75500000D01*
X155500000Y-70750000D02*
X154000000Y-70750000D01*
X160250000Y-75500000D02*
X155500000Y-70750000D01*
%TO.N,AVR_PB3*%
X164750000Y-70000000D02*
X161500000Y-70000000D01*
%TD*%
%TA.AperFunction,Conductor*%
%TO.N,GND*%
G36*
X157556630Y-64970253D02*
G01*
X157614863Y-65008863D01*
X157642473Y-65069321D01*
X157667829Y-65229410D01*
X157723787Y-65401636D01*
X157723788Y-65401639D01*
X157806006Y-65562997D01*
X157912441Y-65709494D01*
X157912445Y-65709499D01*
X158040500Y-65837554D01*
X158040505Y-65837558D01*
X158102293Y-65882449D01*
X158187006Y-65943996D01*
X158288780Y-65995853D01*
X158318684Y-66011090D01*
X158369480Y-66059065D01*
X158386275Y-66126886D01*
X158363737Y-66193021D01*
X158309022Y-66236472D01*
X158300708Y-66239506D01*
X158271781Y-66248905D01*
X158082439Y-66345380D01*
X158028282Y-66384727D01*
X158028282Y-66384728D01*
X158660591Y-67017037D01*
X158597007Y-67034075D01*
X158482993Y-67099901D01*
X158389901Y-67192993D01*
X158324075Y-67307007D01*
X158307037Y-67370591D01*
X157674728Y-66738282D01*
X157674727Y-66738282D01*
X157635380Y-66792439D01*
X157538905Y-66981781D01*
X157529506Y-67010708D01*
X157490068Y-67068383D01*
X157425709Y-67095581D01*
X157356862Y-67083666D01*
X157305387Y-67036421D01*
X157301090Y-67028684D01*
X157285853Y-66998780D01*
X157233996Y-66897006D01*
X157220396Y-66878287D01*
X157127558Y-66750505D01*
X157127554Y-66750500D01*
X156999499Y-66622445D01*
X156999494Y-66622441D01*
X156852997Y-66516006D01*
X156852996Y-66516005D01*
X156852994Y-66516004D01*
X156789698Y-66483753D01*
X156691639Y-66433788D01*
X156691636Y-66433787D01*
X156519410Y-66377829D01*
X156359321Y-66352473D01*
X156296186Y-66322544D01*
X156259255Y-66263232D01*
X156260253Y-66193370D01*
X156298863Y-66135137D01*
X156359321Y-66107527D01*
X156429425Y-66096422D01*
X156519409Y-66082171D01*
X156691639Y-66026211D01*
X156852994Y-65943996D01*
X156999501Y-65837553D01*
X157127553Y-65709501D01*
X157233996Y-65562994D01*
X157316211Y-65401639D01*
X157372171Y-65229409D01*
X157386422Y-65139425D01*
X157397527Y-65069321D01*
X157427456Y-65006186D01*
X157486768Y-64969255D01*
X157556630Y-64970253D01*
G37*
%TD.AperFunction*%
%TA.AperFunction,Conductor*%
G36*
X170642539Y-59570185D02*
G01*
X170688294Y-59622989D01*
X170699500Y-59674500D01*
X170699500Y-82825500D01*
X170679815Y-82892539D01*
X170627011Y-82938294D01*
X170575500Y-82949500D01*
X123424500Y-82949500D01*
X123357461Y-82929815D01*
X123311706Y-82877011D01*
X123300500Y-82825500D01*
X123300500Y-76132014D01*
X126777500Y-76132014D01*
X126777500Y-76367985D01*
X126808299Y-76601914D01*
X126869370Y-76829837D01*
X126959660Y-77047819D01*
X126959665Y-77047828D01*
X127077644Y-77252171D01*
X127077645Y-77252172D01*
X127140221Y-77333723D01*
X127976458Y-76497487D01*
X128001478Y-76557890D01*
X128072612Y-76664351D01*
X128163149Y-76754888D01*
X128269610Y-76826022D01*
X128330011Y-76851041D01*
X127493775Y-77687277D01*
X127575327Y-77749854D01*
X127575328Y-77749855D01*
X127779671Y-77867834D01*
X127779680Y-77867839D01*
X127997663Y-77958129D01*
X127997661Y-77958129D01*
X128225585Y-78019200D01*
X128459514Y-78049999D01*
X128459529Y-78050000D01*
X128695471Y-78050000D01*
X128695485Y-78049999D01*
X128929414Y-78019200D01*
X129157337Y-77958129D01*
X129375319Y-77867839D01*
X129375328Y-77867834D01*
X129579681Y-77749850D01*
X129661223Y-77687279D01*
X129661223Y-77687276D01*
X128824987Y-76851041D01*
X128885390Y-76826022D01*
X128991851Y-76754888D01*
X129082388Y-76664351D01*
X129153522Y-76557890D01*
X129178541Y-76497487D01*
X130014776Y-77333723D01*
X130014779Y-77333723D01*
X130077350Y-77252181D01*
X130195334Y-77047828D01*
X130195339Y-77047819D01*
X130285629Y-76829837D01*
X130346700Y-76601914D01*
X130377499Y-76367985D01*
X130377500Y-76367971D01*
X130377500Y-76132028D01*
X130377499Y-76132014D01*
X130346700Y-75898085D01*
X130285629Y-75670162D01*
X130195339Y-75452180D01*
X130195334Y-75452171D01*
X130077355Y-75247828D01*
X130077354Y-75247827D01*
X130014777Y-75166275D01*
X129178541Y-76002511D01*
X129153522Y-75942110D01*
X129082388Y-75835649D01*
X128991851Y-75745112D01*
X128885390Y-75673978D01*
X128824988Y-75648958D01*
X129661223Y-74812721D01*
X129579672Y-74750145D01*
X129579671Y-74750144D01*
X129375328Y-74632165D01*
X129375319Y-74632160D01*
X129157336Y-74541870D01*
X129157338Y-74541870D01*
X128929414Y-74480799D01*
X128695485Y-74450000D01*
X128459514Y-74450000D01*
X128225585Y-74480799D01*
X127997662Y-74541870D01*
X127779680Y-74632160D01*
X127779671Y-74632165D01*
X127575328Y-74750144D01*
X127575318Y-74750150D01*
X127493775Y-74812720D01*
X127493775Y-74812721D01*
X128330012Y-75648958D01*
X128269610Y-75673978D01*
X128163149Y-75745112D01*
X128072612Y-75835649D01*
X128001478Y-75942110D01*
X127976458Y-76002512D01*
X127140221Y-75166275D01*
X127140220Y-75166275D01*
X127077650Y-75247818D01*
X127077644Y-75247828D01*
X126959665Y-75452171D01*
X126959660Y-75452180D01*
X126869370Y-75670162D01*
X126808299Y-75898085D01*
X126777500Y-76132014D01*
X123300500Y-76132014D01*
X123300500Y-70076898D01*
X126977000Y-70076898D01*
X126977000Y-72263102D01*
X126982549Y-72309308D01*
X126987622Y-72351561D01*
X127043139Y-72492343D01*
X127134577Y-72612922D01*
X127255156Y-72704360D01*
X127255157Y-72704360D01*
X127255158Y-72704361D01*
X127395936Y-72759877D01*
X127484398Y-72770500D01*
X127484403Y-72770500D01*
X129670597Y-72770500D01*
X129670602Y-72770500D01*
X129759064Y-72759877D01*
X129899842Y-72704361D01*
X130020422Y-72612922D01*
X130111861Y-72492342D01*
X130167377Y-72351564D01*
X130178000Y-72263102D01*
X130178000Y-70818995D01*
X153299499Y-70818995D01*
X153326418Y-70954322D01*
X153326421Y-70954332D01*
X153379221Y-71081804D01*
X153379228Y-71081817D01*
X153455885Y-71196541D01*
X153455888Y-71196545D01*
X153553454Y-71294111D01*
X153553458Y-71294114D01*
X153668182Y-71370771D01*
X153668195Y-71370778D01*
X153740171Y-71400591D01*
X153795672Y-71423580D01*
X153795676Y-71423580D01*
X153795677Y-71423581D01*
X153931004Y-71450500D01*
X153931007Y-71450500D01*
X154068995Y-71450500D01*
X154160041Y-71432389D01*
X154204328Y-71423580D01*
X154331811Y-71370775D01*
X154446542Y-71294114D01*
X154503838Y-71236817D01*
X154565159Y-71203334D01*
X154591518Y-71200500D01*
X155262035Y-71200500D01*
X155329074Y-71220185D01*
X155349716Y-71236819D01*
X159768583Y-75655686D01*
X159802068Y-75717009D01*
X159802519Y-75719175D01*
X159826418Y-75839322D01*
X159826421Y-75839332D01*
X159879221Y-75966804D01*
X159879228Y-75966817D01*
X159955885Y-76081541D01*
X159955888Y-76081545D01*
X160053454Y-76179111D01*
X160053458Y-76179114D01*
X160168182Y-76255771D01*
X160168195Y-76255778D01*
X160295141Y-76308360D01*
X160295672Y-76308580D01*
X160295676Y-76308580D01*
X160295677Y-76308581D01*
X160431004Y-76335500D01*
X160431007Y-76335500D01*
X160568995Y-76335500D01*
X160676984Y-76314019D01*
X160704328Y-76308580D01*
X160831811Y-76255775D01*
X160946542Y-76179114D01*
X161044114Y-76081542D01*
X161120775Y-75966811D01*
X161173580Y-75839328D01*
X161200500Y-75703993D01*
X161200500Y-75566007D01*
X161200500Y-75566004D01*
X161173581Y-75430677D01*
X161173580Y-75430676D01*
X161173580Y-75430672D01*
X161173578Y-75430667D01*
X161120778Y-75303195D01*
X161120771Y-75303182D01*
X161044114Y-75188458D01*
X161044111Y-75188454D01*
X160946545Y-75090888D01*
X160946541Y-75090885D01*
X160831817Y-75014228D01*
X160831804Y-75014221D01*
X160704332Y-74961421D01*
X160704322Y-74961418D01*
X160568995Y-74934500D01*
X160568993Y-74934500D01*
X160431007Y-74934500D01*
X160404757Y-74939721D01*
X160335166Y-74933492D01*
X160292887Y-74905784D01*
X159799284Y-74412181D01*
X159765799Y-74350858D01*
X159770783Y-74281166D01*
X159812655Y-74225233D01*
X159878119Y-74200816D01*
X159886965Y-74200500D01*
X159908482Y-74200500D01*
X159975521Y-74220185D01*
X159996158Y-74236814D01*
X160040510Y-74281166D01*
X160053459Y-74294115D01*
X160168182Y-74370771D01*
X160168195Y-74370778D01*
X160268152Y-74412181D01*
X160295672Y-74423580D01*
X160295676Y-74423580D01*
X160295677Y-74423581D01*
X160431004Y-74450500D01*
X160431007Y-74450500D01*
X160568995Y-74450500D01*
X160660041Y-74432389D01*
X160704328Y-74423580D01*
X160831811Y-74370775D01*
X160946542Y-74294114D01*
X161044114Y-74196542D01*
X161120775Y-74081811D01*
X161173580Y-73954328D01*
X161200500Y-73818993D01*
X161200500Y-73681007D01*
X161194979Y-73653252D01*
X161201205Y-73583664D01*
X161244067Y-73528485D01*
X161309956Y-73505239D01*
X161377953Y-73521305D01*
X161404277Y-73541380D01*
X164263181Y-76400284D01*
X164296666Y-76461607D01*
X164299500Y-76487965D01*
X164299500Y-77158481D01*
X164279815Y-77225520D01*
X164263181Y-77246162D01*
X164205888Y-77303454D01*
X164205885Y-77303458D01*
X164129228Y-77418182D01*
X164129221Y-77418195D01*
X164076421Y-77545667D01*
X164076418Y-77545677D01*
X164049500Y-77681004D01*
X164049500Y-77681007D01*
X164049500Y-77818993D01*
X164049500Y-77818995D01*
X164049499Y-77818995D01*
X164076418Y-77954322D01*
X164076421Y-77954332D01*
X164129221Y-78081804D01*
X164129228Y-78081817D01*
X164205885Y-78196541D01*
X164205888Y-78196545D01*
X164303454Y-78294111D01*
X164303458Y-78294114D01*
X164418182Y-78370771D01*
X164418195Y-78370778D01*
X164545667Y-78423578D01*
X164545672Y-78423580D01*
X164545676Y-78423580D01*
X164545677Y-78423581D01*
X164681004Y-78450500D01*
X164681007Y-78450500D01*
X164818995Y-78450500D01*
X164910041Y-78432389D01*
X164954328Y-78423580D01*
X165081811Y-78370775D01*
X165196542Y-78294114D01*
X165294114Y-78196542D01*
X165370775Y-78081811D01*
X165423580Y-77954328D01*
X165439922Y-77872171D01*
X165450500Y-77818995D01*
X165450500Y-77681004D01*
X165423581Y-77545677D01*
X165423580Y-77545676D01*
X165423580Y-77545672D01*
X165423578Y-77545667D01*
X165370778Y-77418195D01*
X165370771Y-77418182D01*
X165294114Y-77303458D01*
X165294111Y-77303454D01*
X165236819Y-77246162D01*
X165203334Y-77184839D01*
X165200500Y-77158481D01*
X165200500Y-76190693D01*
X165200500Y-76190691D01*
X165172314Y-76085499D01*
X165169799Y-76076113D01*
X165110489Y-75973386D01*
X161236819Y-72099716D01*
X161203334Y-72038393D01*
X161200500Y-72012035D01*
X161200500Y-70805743D01*
X161220185Y-70738704D01*
X161272989Y-70692949D01*
X161342147Y-70683005D01*
X161348670Y-70684122D01*
X161410738Y-70696468D01*
X161431006Y-70700500D01*
X161431007Y-70700500D01*
X161568995Y-70700500D01*
X161667005Y-70681004D01*
X161704328Y-70673580D01*
X161831811Y-70620775D01*
X161946542Y-70544114D01*
X162003838Y-70486817D01*
X162065159Y-70453334D01*
X162091518Y-70450500D01*
X164158482Y-70450500D01*
X164225521Y-70470185D01*
X164246158Y-70486814D01*
X164278844Y-70519500D01*
X164303459Y-70544115D01*
X164418182Y-70620771D01*
X164418195Y-70620778D01*
X164545667Y-70673578D01*
X164545672Y-70673580D01*
X164545676Y-70673580D01*
X164545677Y-70673581D01*
X164681004Y-70700500D01*
X164681007Y-70700500D01*
X164818995Y-70700500D01*
X164917005Y-70681004D01*
X164954328Y-70673580D01*
X165081811Y-70620775D01*
X165196542Y-70544114D01*
X165294114Y-70446542D01*
X165370775Y-70331811D01*
X165423580Y-70204328D01*
X165438199Y-70130836D01*
X165450500Y-70068995D01*
X165450500Y-69931004D01*
X165423581Y-69795677D01*
X165423580Y-69795676D01*
X165423580Y-69795672D01*
X165423578Y-69795667D01*
X165370778Y-69668195D01*
X165370771Y-69668182D01*
X165294114Y-69553458D01*
X165294111Y-69553454D01*
X165196545Y-69455888D01*
X165196541Y-69455885D01*
X165081817Y-69379228D01*
X165081804Y-69379221D01*
X164954332Y-69326421D01*
X164954322Y-69326418D01*
X164818995Y-69299500D01*
X164818993Y-69299500D01*
X164681007Y-69299500D01*
X164681005Y-69299500D01*
X164545677Y-69326418D01*
X164545667Y-69326421D01*
X164418195Y-69379221D01*
X164418182Y-69379228D01*
X164303459Y-69455884D01*
X164286392Y-69472952D01*
X164246161Y-69513182D01*
X164184841Y-69546666D01*
X164158482Y-69549500D01*
X162091518Y-69549500D01*
X162024479Y-69529815D01*
X162003841Y-69513185D01*
X161946542Y-69455886D01*
X161946541Y-69455885D01*
X161946540Y-69455884D01*
X161826746Y-69375840D01*
X161827900Y-69374112D01*
X161784805Y-69331777D01*
X161769346Y-69263639D01*
X161791636Y-69202212D01*
X161790730Y-69201607D01*
X161870771Y-69081817D01*
X161870771Y-69081816D01*
X161870775Y-69081811D01*
X161923580Y-68954328D01*
X161942226Y-68860589D01*
X161950500Y-68818995D01*
X161950500Y-68681004D01*
X161923581Y-68545677D01*
X161923580Y-68545676D01*
X161923580Y-68545672D01*
X161891280Y-68467692D01*
X161870778Y-68418195D01*
X161870771Y-68418182D01*
X161794114Y-68303458D01*
X161794111Y-68303454D01*
X161696545Y-68205888D01*
X161696541Y-68205885D01*
X161581817Y-68129228D01*
X161581804Y-68129221D01*
X161454332Y-68076421D01*
X161454322Y-68076418D01*
X161318995Y-68049500D01*
X161318993Y-68049500D01*
X161181007Y-68049500D01*
X161181005Y-68049500D01*
X161045677Y-68076418D01*
X161045667Y-68076421D01*
X160918195Y-68129221D01*
X160918182Y-68129228D01*
X160803458Y-68205885D01*
X160803454Y-68205888D01*
X160705888Y-68303454D01*
X160705885Y-68303458D01*
X160629228Y-68418182D01*
X160629221Y-68418195D01*
X160576421Y-68545667D01*
X160576418Y-68545677D01*
X160549500Y-68681004D01*
X160549500Y-68762033D01*
X160529815Y-68829072D01*
X160513182Y-68849714D01*
X160389510Y-68973387D01*
X160389509Y-68973389D01*
X160330201Y-69076112D01*
X160330200Y-69076117D01*
X160299500Y-69190691D01*
X160299500Y-72309308D01*
X160323712Y-72399672D01*
X160330200Y-72423885D01*
X160330200Y-72423886D01*
X160330201Y-72423887D01*
X160389511Y-72526614D01*
X160389513Y-72526616D01*
X160708619Y-72845722D01*
X160742104Y-72907045D01*
X160737120Y-72976737D01*
X160695248Y-73032670D01*
X160629784Y-73057087D01*
X160596747Y-73055020D01*
X160568996Y-73049500D01*
X160568993Y-73049500D01*
X160431007Y-73049500D01*
X160431005Y-73049500D01*
X160295677Y-73076418D01*
X160295667Y-73076421D01*
X160168195Y-73129221D01*
X160168182Y-73129228D01*
X160053458Y-73205885D01*
X160053453Y-73205889D01*
X160035902Y-73223440D01*
X159974578Y-73256924D01*
X159904887Y-73251938D01*
X159860542Y-73223438D01*
X156276616Y-69639513D01*
X156276614Y-69639511D01*
X156234922Y-69615440D01*
X156173885Y-69580199D01*
X156141933Y-69571639D01*
X156074065Y-69553454D01*
X156059309Y-69549500D01*
X156059308Y-69549500D01*
X155923311Y-69549500D01*
X155856272Y-69529815D01*
X155810517Y-69477011D01*
X155808771Y-69473004D01*
X155793110Y-69435193D01*
X155716449Y-69320462D01*
X155716446Y-69320458D01*
X155618880Y-69222892D01*
X155618876Y-69222889D01*
X155504152Y-69146232D01*
X155504139Y-69146225D01*
X155376667Y-69093425D01*
X155376657Y-69093422D01*
X155241330Y-69066504D01*
X155241328Y-69066504D01*
X155103342Y-69066504D01*
X155103340Y-69066504D01*
X154968012Y-69093422D01*
X154968002Y-69093425D01*
X154840530Y-69146225D01*
X154840517Y-69146232D01*
X154725793Y-69222889D01*
X154725789Y-69222892D01*
X154628223Y-69320458D01*
X154628220Y-69320462D01*
X154551563Y-69435186D01*
X154551556Y-69435199D01*
X154498756Y-69562671D01*
X154498753Y-69562681D01*
X154471835Y-69698008D01*
X154471835Y-69698011D01*
X154471835Y-69835997D01*
X154471835Y-69835999D01*
X154471834Y-69835999D01*
X154498753Y-69971326D01*
X154500523Y-69977159D01*
X154498675Y-69977719D01*
X154505181Y-70038309D01*
X154473897Y-70100784D01*
X154413803Y-70136428D01*
X154343978Y-70133924D01*
X154335702Y-70130836D01*
X154204332Y-70076421D01*
X154204322Y-70076418D01*
X154068995Y-70049500D01*
X154068993Y-70049500D01*
X153931007Y-70049500D01*
X153931005Y-70049500D01*
X153795677Y-70076418D01*
X153795667Y-70076421D01*
X153668195Y-70129221D01*
X153668182Y-70129228D01*
X153553458Y-70205885D01*
X153553454Y-70205888D01*
X153455888Y-70303454D01*
X153455885Y-70303458D01*
X153379228Y-70418182D01*
X153379221Y-70418195D01*
X153326421Y-70545667D01*
X153326418Y-70545677D01*
X153299500Y-70681004D01*
X153299500Y-70681007D01*
X153299500Y-70818993D01*
X153299500Y-70818995D01*
X153299499Y-70818995D01*
X130178000Y-70818995D01*
X130178000Y-70076898D01*
X130167377Y-69988436D01*
X130111861Y-69847658D01*
X130111860Y-69847657D01*
X130111860Y-69847656D01*
X130020422Y-69727077D01*
X129899843Y-69635639D01*
X129803692Y-69597722D01*
X129759064Y-69580123D01*
X129759063Y-69580122D01*
X129759061Y-69580122D01*
X129713426Y-69574642D01*
X129670602Y-69569500D01*
X127484398Y-69569500D01*
X127445353Y-69574188D01*
X127395938Y-69580122D01*
X127255156Y-69635639D01*
X127134577Y-69727077D01*
X127043139Y-69847656D01*
X126987622Y-69988438D01*
X126981688Y-70037853D01*
X126977000Y-70076898D01*
X123300500Y-70076898D01*
X123300500Y-61525131D01*
X155099500Y-61525131D01*
X155099500Y-63314856D01*
X155099502Y-63314882D01*
X155102413Y-63339987D01*
X155102415Y-63339991D01*
X155147793Y-63442764D01*
X155147794Y-63442765D01*
X155227235Y-63522206D01*
X155330009Y-63567585D01*
X155355135Y-63570500D01*
X156092873Y-63570499D01*
X156159910Y-63590183D01*
X156205665Y-63642987D01*
X156215609Y-63712146D01*
X156186584Y-63775702D01*
X156127806Y-63813476D01*
X156112270Y-63816972D01*
X155980589Y-63837829D01*
X155808363Y-63893787D01*
X155808360Y-63893788D01*
X155647002Y-63976006D01*
X155500505Y-64082441D01*
X155500500Y-64082445D01*
X155372445Y-64210500D01*
X155372441Y-64210505D01*
X155266006Y-64357002D01*
X155183788Y-64518360D01*
X155183787Y-64518363D01*
X155127829Y-64690589D01*
X155099500Y-64869448D01*
X155099500Y-65050551D01*
X155127829Y-65229410D01*
X155183787Y-65401636D01*
X155183788Y-65401639D01*
X155266006Y-65562997D01*
X155372441Y-65709494D01*
X155372445Y-65709499D01*
X155500500Y-65837554D01*
X155500505Y-65837558D01*
X155562293Y-65882449D01*
X155647006Y-65943996D01*
X155752484Y-65997740D01*
X155808360Y-66026211D01*
X155808363Y-66026212D01*
X155894476Y-66054191D01*
X155980591Y-66082171D01*
X156053639Y-66093740D01*
X156140678Y-66107527D01*
X156203813Y-66137456D01*
X156240744Y-66196768D01*
X156239746Y-66266631D01*
X156201136Y-66324863D01*
X156140678Y-66352473D01*
X155980589Y-66377829D01*
X155808363Y-66433787D01*
X155808360Y-66433788D01*
X155647002Y-66516006D01*
X155500505Y-66622441D01*
X155500500Y-66622445D01*
X155372445Y-66750500D01*
X155372441Y-66750505D01*
X155266006Y-66897002D01*
X155183788Y-67058360D01*
X155183787Y-67058363D01*
X155127829Y-67230589D01*
X155099500Y-67409448D01*
X155099500Y-67590551D01*
X155127829Y-67769410D01*
X155183787Y-67941636D01*
X155183788Y-67941639D01*
X155225313Y-68023134D01*
X155253731Y-68078908D01*
X155266006Y-68102997D01*
X155372441Y-68249494D01*
X155372445Y-68249499D01*
X155500500Y-68377554D01*
X155500505Y-68377558D01*
X155556438Y-68418195D01*
X155647006Y-68483996D01*
X155752484Y-68537740D01*
X155808360Y-68566211D01*
X155808363Y-68566212D01*
X155894476Y-68594191D01*
X155980591Y-68622171D01*
X156063429Y-68635291D01*
X156159449Y-68650500D01*
X156159454Y-68650500D01*
X156340551Y-68650500D01*
X156427259Y-68636765D01*
X156519409Y-68622171D01*
X156691639Y-68566211D01*
X156852994Y-68483996D01*
X156943580Y-68418182D01*
X156999495Y-68377558D01*
X156999497Y-68377555D01*
X156999501Y-68377553D01*
X157127553Y-68249501D01*
X157233996Y-68102994D01*
X157301090Y-67971314D01*
X157349065Y-67920519D01*
X157416886Y-67903724D01*
X157483021Y-67926262D01*
X157526472Y-67980977D01*
X157529506Y-67989292D01*
X157538904Y-68018217D01*
X157635375Y-68207550D01*
X157674728Y-68261716D01*
X158307037Y-67629408D01*
X158324075Y-67692993D01*
X158389901Y-67807007D01*
X158482993Y-67900099D01*
X158597007Y-67965925D01*
X158660590Y-67982962D01*
X158028282Y-68615269D01*
X158028282Y-68615270D01*
X158082449Y-68654624D01*
X158271782Y-68751095D01*
X158473870Y-68816757D01*
X158683754Y-68850000D01*
X158896246Y-68850000D01*
X159106127Y-68816757D01*
X159106130Y-68816757D01*
X159308217Y-68751095D01*
X159497554Y-68654622D01*
X159551716Y-68615270D01*
X159551717Y-68615270D01*
X158919408Y-67982962D01*
X158982993Y-67965925D01*
X159097007Y-67900099D01*
X159190099Y-67807007D01*
X159255925Y-67692993D01*
X159272962Y-67629409D01*
X159905270Y-68261717D01*
X159905270Y-68261716D01*
X159944622Y-68207554D01*
X160041095Y-68018217D01*
X160106757Y-67816130D01*
X160106757Y-67816127D01*
X160140000Y-67606246D01*
X160140000Y-67393753D01*
X160106757Y-67183872D01*
X160106757Y-67183869D01*
X160041095Y-66981782D01*
X159944624Y-66792449D01*
X159905270Y-66738282D01*
X159905269Y-66738282D01*
X159272962Y-67370590D01*
X159255925Y-67307007D01*
X159190099Y-67192993D01*
X159097007Y-67099901D01*
X158982993Y-67034075D01*
X158919409Y-67017037D01*
X159452692Y-66483753D01*
X167150000Y-66483753D01*
X167150000Y-66696246D01*
X167183242Y-66906127D01*
X167183242Y-66906130D01*
X167248904Y-67108217D01*
X167345375Y-67297550D01*
X167384728Y-67351716D01*
X168017037Y-66719408D01*
X168034075Y-66782993D01*
X168099901Y-66897007D01*
X168192993Y-66990099D01*
X168307007Y-67055925D01*
X168370590Y-67072962D01*
X167738282Y-67705269D01*
X167738282Y-67705270D01*
X167792449Y-67744624D01*
X167981780Y-67841094D01*
X168010705Y-67850492D01*
X168068381Y-67889929D01*
X168095580Y-67954287D01*
X168083667Y-68023134D01*
X168036424Y-68074610D01*
X168028685Y-68078908D01*
X167897004Y-68146004D01*
X167750505Y-68252441D01*
X167750500Y-68252445D01*
X167622445Y-68380500D01*
X167622441Y-68380505D01*
X167516006Y-68527002D01*
X167433788Y-68688360D01*
X167433787Y-68688363D01*
X167377829Y-68860589D01*
X167349500Y-69039448D01*
X167349500Y-69220551D01*
X167377829Y-69399410D01*
X167433787Y-69571636D01*
X167433788Y-69571639D01*
X167482980Y-69668182D01*
X167512989Y-69727077D01*
X167516006Y-69732997D01*
X167622441Y-69879494D01*
X167622445Y-69879499D01*
X167750500Y-70007554D01*
X167750505Y-70007558D01*
X167876111Y-70098815D01*
X167897006Y-70113996D01*
X168002484Y-70167740D01*
X168058360Y-70196211D01*
X168058363Y-70196212D01*
X168144476Y-70224191D01*
X168230591Y-70252171D01*
X168303639Y-70263740D01*
X168390678Y-70277527D01*
X168453813Y-70307456D01*
X168490744Y-70366768D01*
X168489746Y-70436631D01*
X168451136Y-70494863D01*
X168390678Y-70522473D01*
X168230589Y-70547829D01*
X168058363Y-70603787D01*
X168058360Y-70603788D01*
X167897002Y-70686006D01*
X167750505Y-70792441D01*
X167750500Y-70792445D01*
X167622445Y-70920500D01*
X167622441Y-70920505D01*
X167516006Y-71067002D01*
X167433788Y-71228360D01*
X167433787Y-71228363D01*
X167377829Y-71400589D01*
X167349500Y-71579448D01*
X167349500Y-71760551D01*
X167377829Y-71939410D01*
X167433787Y-72111636D01*
X167433788Y-72111639D01*
X167516006Y-72272997D01*
X167622441Y-72419494D01*
X167622445Y-72419499D01*
X167750500Y-72547554D01*
X167750505Y-72547558D01*
X167840472Y-72612922D01*
X167897006Y-72653996D01*
X167995850Y-72704360D01*
X168058360Y-72736211D01*
X168058363Y-72736212D01*
X168144476Y-72764191D01*
X168230591Y-72792171D01*
X168303639Y-72803740D01*
X168390678Y-72817527D01*
X168453813Y-72847456D01*
X168490744Y-72906768D01*
X168489746Y-72976631D01*
X168451136Y-73034863D01*
X168390678Y-73062473D01*
X168230589Y-73087829D01*
X168058363Y-73143787D01*
X168058360Y-73143788D01*
X167897002Y-73226006D01*
X167750505Y-73332441D01*
X167750500Y-73332445D01*
X167622445Y-73460500D01*
X167622441Y-73460505D01*
X167516006Y-73607002D01*
X167433788Y-73768360D01*
X167433787Y-73768363D01*
X167377829Y-73940589D01*
X167349500Y-74119448D01*
X167349500Y-74300551D01*
X167377829Y-74479410D01*
X167433787Y-74651636D01*
X167433788Y-74651639D01*
X167483980Y-74750144D01*
X167515864Y-74812720D01*
X167516006Y-74812997D01*
X167622441Y-74959494D01*
X167622445Y-74959499D01*
X167750500Y-75087554D01*
X167750505Y-75087558D01*
X167858851Y-75166275D01*
X167897006Y-75193996D01*
X168002484Y-75247740D01*
X168058360Y-75276211D01*
X168058363Y-75276212D01*
X168141371Y-75303182D01*
X168230591Y-75332171D01*
X168303639Y-75343740D01*
X168390678Y-75357527D01*
X168453813Y-75387456D01*
X168490744Y-75446768D01*
X168489746Y-75516631D01*
X168451136Y-75574863D01*
X168390678Y-75602473D01*
X168230589Y-75627829D01*
X168058363Y-75683787D01*
X168058360Y-75683788D01*
X167897002Y-75766006D01*
X167750505Y-75872441D01*
X167750500Y-75872445D01*
X167622445Y-76000500D01*
X167622441Y-76000505D01*
X167516006Y-76147002D01*
X167433788Y-76308360D01*
X167433787Y-76308363D01*
X167377829Y-76480589D01*
X167349500Y-76659448D01*
X167349500Y-76840551D01*
X167377829Y-77019410D01*
X167433787Y-77191636D01*
X167433788Y-77191639D01*
X167516006Y-77352997D01*
X167622441Y-77499494D01*
X167622445Y-77499499D01*
X167750500Y-77627554D01*
X167750505Y-77627558D01*
X167832701Y-77687276D01*
X167897006Y-77733996D01*
X168002484Y-77787740D01*
X168058360Y-77816211D01*
X168058363Y-77816212D01*
X168144476Y-77844191D01*
X168230591Y-77872171D01*
X168334716Y-77888662D01*
X168362270Y-77893027D01*
X168425405Y-77922956D01*
X168462336Y-77982268D01*
X168461338Y-78052130D01*
X168422728Y-78110363D01*
X168358765Y-78138477D01*
X168342872Y-78139500D01*
X167605143Y-78139500D01*
X167605117Y-78139502D01*
X167580012Y-78142413D01*
X167580008Y-78142415D01*
X167477235Y-78187793D01*
X167397794Y-78267234D01*
X167352415Y-78370006D01*
X167352415Y-78370008D01*
X167349500Y-78395131D01*
X167349500Y-80184856D01*
X167349502Y-80184882D01*
X167352413Y-80209987D01*
X167352415Y-80209991D01*
X167397793Y-80312764D01*
X167397794Y-80312765D01*
X167477235Y-80392206D01*
X167580009Y-80437585D01*
X167605135Y-80440500D01*
X169394864Y-80440499D01*
X169394879Y-80440497D01*
X169394882Y-80440497D01*
X169419987Y-80437586D01*
X169419988Y-80437585D01*
X169419991Y-80437585D01*
X169522765Y-80392206D01*
X169602206Y-80312765D01*
X169647585Y-80209991D01*
X169650500Y-80184865D01*
X169650499Y-78395136D01*
X169650497Y-78395117D01*
X169647586Y-78370012D01*
X169647585Y-78370010D01*
X169647585Y-78370009D01*
X169602206Y-78267235D01*
X169522765Y-78187794D01*
X169522763Y-78187793D01*
X169419992Y-78142415D01*
X169394868Y-78139500D01*
X168657128Y-78139500D01*
X168590089Y-78119815D01*
X168544334Y-78067011D01*
X168534390Y-77997853D01*
X168563415Y-77934297D01*
X168622193Y-77896523D01*
X168637730Y-77893027D01*
X168661014Y-77889338D01*
X168769409Y-77872171D01*
X168941639Y-77816211D01*
X169102994Y-77733996D01*
X169249501Y-77627553D01*
X169377553Y-77499501D01*
X169483996Y-77352994D01*
X169566211Y-77191639D01*
X169622171Y-77019409D01*
X169636765Y-76927259D01*
X169650500Y-76840551D01*
X169650500Y-76659448D01*
X169634019Y-76555397D01*
X169622171Y-76480591D01*
X169575029Y-76335500D01*
X169566212Y-76308363D01*
X169566211Y-76308360D01*
X169536474Y-76249999D01*
X169483996Y-76147006D01*
X169436433Y-76081541D01*
X169377558Y-76000505D01*
X169377554Y-76000500D01*
X169249499Y-75872445D01*
X169249494Y-75872441D01*
X169102997Y-75766006D01*
X169102996Y-75766005D01*
X169102994Y-75766004D01*
X169051300Y-75739664D01*
X168941639Y-75683788D01*
X168941636Y-75683787D01*
X168769410Y-75627829D01*
X168609321Y-75602473D01*
X168546186Y-75572544D01*
X168509255Y-75513232D01*
X168510253Y-75443370D01*
X168548863Y-75385137D01*
X168609321Y-75357527D01*
X168679425Y-75346422D01*
X168769409Y-75332171D01*
X168941639Y-75276211D01*
X169102994Y-75193996D01*
X169249501Y-75087553D01*
X169377553Y-74959501D01*
X169483996Y-74812994D01*
X169566211Y-74651639D01*
X169622171Y-74479409D01*
X169636765Y-74387259D01*
X169650500Y-74300551D01*
X169650500Y-74119448D01*
X169624347Y-73954332D01*
X169622171Y-73940591D01*
X169566211Y-73768361D01*
X169566211Y-73768360D01*
X169537740Y-73712484D01*
X169483996Y-73607006D01*
X169467037Y-73583664D01*
X169377558Y-73460505D01*
X169377554Y-73460500D01*
X169249499Y-73332445D01*
X169249494Y-73332441D01*
X169102997Y-73226006D01*
X169102996Y-73226005D01*
X169102994Y-73226004D01*
X169051300Y-73199664D01*
X168941639Y-73143788D01*
X168941636Y-73143787D01*
X168769410Y-73087829D01*
X168609321Y-73062473D01*
X168546186Y-73032544D01*
X168509255Y-72973232D01*
X168510253Y-72903370D01*
X168548863Y-72845137D01*
X168609321Y-72817527D01*
X168679425Y-72806422D01*
X168769409Y-72792171D01*
X168941639Y-72736211D01*
X169102994Y-72653996D01*
X169249501Y-72547553D01*
X169377553Y-72419501D01*
X169483996Y-72272994D01*
X169566211Y-72111639D01*
X169622171Y-71939409D01*
X169636765Y-71847259D01*
X169650500Y-71760551D01*
X169650500Y-71579448D01*
X169625812Y-71423580D01*
X169622171Y-71400591D01*
X169594191Y-71314476D01*
X169566212Y-71228363D01*
X169566211Y-71228360D01*
X169537740Y-71172484D01*
X169483996Y-71067006D01*
X169402134Y-70954332D01*
X169377558Y-70920505D01*
X169377554Y-70920500D01*
X169249499Y-70792445D01*
X169249494Y-70792441D01*
X169102997Y-70686006D01*
X169102996Y-70686005D01*
X169102994Y-70686004D01*
X169051300Y-70659664D01*
X168941639Y-70603788D01*
X168941636Y-70603787D01*
X168769410Y-70547829D01*
X168609321Y-70522473D01*
X168546186Y-70492544D01*
X168509255Y-70433232D01*
X168510253Y-70363370D01*
X168548863Y-70305137D01*
X168609321Y-70277527D01*
X168679425Y-70266422D01*
X168769409Y-70252171D01*
X168941639Y-70196211D01*
X169102994Y-70113996D01*
X169249501Y-70007553D01*
X169377553Y-69879501D01*
X169483996Y-69732994D01*
X169566211Y-69571639D01*
X169622171Y-69399409D01*
X169643675Y-69263639D01*
X169650500Y-69220551D01*
X169650500Y-69039448D01*
X169634019Y-68935397D01*
X169622171Y-68860591D01*
X169566211Y-68688361D01*
X169566211Y-68688360D01*
X169528969Y-68615270D01*
X169483996Y-68527006D01*
X169452747Y-68483995D01*
X169377558Y-68380505D01*
X169377554Y-68380500D01*
X169249499Y-68252445D01*
X169249494Y-68252441D01*
X169102995Y-68146004D01*
X168971314Y-68078908D01*
X168920519Y-68030934D01*
X168903724Y-67963113D01*
X168926262Y-67896978D01*
X168980977Y-67853527D01*
X168989295Y-67850492D01*
X169018217Y-67841095D01*
X169207554Y-67744622D01*
X169261716Y-67705270D01*
X169261717Y-67705270D01*
X168629408Y-67072962D01*
X168692993Y-67055925D01*
X168807007Y-66990099D01*
X168900099Y-66897007D01*
X168965925Y-66782993D01*
X168982962Y-66719408D01*
X169615270Y-67351717D01*
X169615270Y-67351716D01*
X169654622Y-67297554D01*
X169751095Y-67108217D01*
X169816757Y-66906130D01*
X169816757Y-66906127D01*
X169850000Y-66696246D01*
X169850000Y-66483753D01*
X169816757Y-66273872D01*
X169816757Y-66273869D01*
X169751095Y-66071782D01*
X169654624Y-65882449D01*
X169615270Y-65828282D01*
X169615269Y-65828282D01*
X168982962Y-66460590D01*
X168965925Y-66397007D01*
X168900099Y-66282993D01*
X168807007Y-66189901D01*
X168692993Y-66124075D01*
X168629409Y-66107037D01*
X169261716Y-65474728D01*
X169207550Y-65435375D01*
X169018217Y-65338904D01*
X168816129Y-65273242D01*
X168606246Y-65240000D01*
X168393754Y-65240000D01*
X168183872Y-65273242D01*
X168183869Y-65273242D01*
X167981782Y-65338904D01*
X167792439Y-65435380D01*
X167738282Y-65474727D01*
X167738282Y-65474728D01*
X168370591Y-66107037D01*
X168307007Y-66124075D01*
X168192993Y-66189901D01*
X168099901Y-66282993D01*
X168034075Y-66397007D01*
X168017037Y-66460591D01*
X167384728Y-65828282D01*
X167384727Y-65828282D01*
X167345380Y-65882439D01*
X167248904Y-66071782D01*
X167183242Y-66273869D01*
X167183242Y-66273872D01*
X167150000Y-66483753D01*
X159452692Y-66483753D01*
X159545245Y-66391200D01*
X159551716Y-66384728D01*
X159497550Y-66345375D01*
X159308217Y-66248904D01*
X159279292Y-66239506D01*
X159221616Y-66200068D01*
X159194418Y-66135710D01*
X159206333Y-66066863D01*
X159253577Y-66015388D01*
X159261315Y-66011090D01*
X159392994Y-65943996D01*
X159539501Y-65837553D01*
X159667553Y-65709501D01*
X159773996Y-65562994D01*
X159856211Y-65401639D01*
X159912171Y-65229409D01*
X159926765Y-65137259D01*
X159940500Y-65050551D01*
X159940500Y-64869448D01*
X159924019Y-64765397D01*
X159912171Y-64690591D01*
X159856211Y-64518361D01*
X159856211Y-64518360D01*
X159827740Y-64462484D01*
X159773996Y-64357006D01*
X159760396Y-64338287D01*
X159667558Y-64210505D01*
X159667554Y-64210500D01*
X159539499Y-64082445D01*
X159539494Y-64082441D01*
X159392997Y-63976006D01*
X159392996Y-63976005D01*
X159392994Y-63976004D01*
X159341300Y-63949664D01*
X159231639Y-63893788D01*
X159231636Y-63893787D01*
X159059410Y-63837829D01*
X158899321Y-63812473D01*
X158836186Y-63782544D01*
X158799255Y-63723232D01*
X158800253Y-63653370D01*
X158838863Y-63595137D01*
X158899321Y-63567527D01*
X158969425Y-63556422D01*
X159059409Y-63542171D01*
X159231639Y-63486211D01*
X159392994Y-63403996D01*
X159539501Y-63297553D01*
X159667553Y-63169501D01*
X159773996Y-63022994D01*
X159856211Y-62861639D01*
X159912171Y-62689409D01*
X159926765Y-62597259D01*
X159940500Y-62510551D01*
X159940500Y-62329448D01*
X159924019Y-62225397D01*
X159912171Y-62150591D01*
X159856211Y-61978361D01*
X159856211Y-61978360D01*
X159827740Y-61922484D01*
X159773996Y-61817006D01*
X159760396Y-61798287D01*
X159667558Y-61670505D01*
X159667554Y-61670500D01*
X159539499Y-61542445D01*
X159539494Y-61542441D01*
X159392997Y-61436006D01*
X159392996Y-61436005D01*
X159392994Y-61436004D01*
X159316906Y-61397235D01*
X159231639Y-61353788D01*
X159231636Y-61353787D01*
X159059410Y-61297829D01*
X158880551Y-61269500D01*
X158880546Y-61269500D01*
X158699454Y-61269500D01*
X158699449Y-61269500D01*
X158520589Y-61297829D01*
X158348363Y-61353787D01*
X158348360Y-61353788D01*
X158187002Y-61436006D01*
X158040505Y-61542441D01*
X158040500Y-61542445D01*
X157912445Y-61670500D01*
X157912441Y-61670505D01*
X157806006Y-61817002D01*
X157723788Y-61978360D01*
X157723787Y-61978363D01*
X157667829Y-62150589D01*
X157646972Y-62282271D01*
X157617042Y-62345405D01*
X157557731Y-62382336D01*
X157487868Y-62381338D01*
X157429636Y-62342728D01*
X157401522Y-62278764D01*
X157400499Y-62262872D01*
X157400499Y-61525143D01*
X157400499Y-61525136D01*
X157400497Y-61525117D01*
X157397586Y-61500012D01*
X157397585Y-61500010D01*
X157397585Y-61500009D01*
X157352206Y-61397235D01*
X157272765Y-61317794D01*
X157272763Y-61317793D01*
X157169992Y-61272415D01*
X157144865Y-61269500D01*
X155355143Y-61269500D01*
X155355117Y-61269502D01*
X155330012Y-61272413D01*
X155330008Y-61272415D01*
X155227235Y-61317793D01*
X155147794Y-61397234D01*
X155102415Y-61500006D01*
X155102415Y-61500008D01*
X155099500Y-61525131D01*
X123300500Y-61525131D01*
X123300500Y-59674500D01*
X123320185Y-59607461D01*
X123372989Y-59561706D01*
X123424500Y-59550500D01*
X170575500Y-59550500D01*
X170642539Y-59570185D01*
G37*
%TD.AperFunction*%
%TD*%
M02*
