%TF.GenerationSoftware,KiCad,Pcbnew,10.0.5-10.0.5~ubuntu24.04.1*%
%TF.CreationDate,2026-07-28T01:24:54+02:00*%
%TF.ProjectId,Attiny13A_Devboard_v1_SMD,41747469-6e79-4313-9341-5f446576626f,rev?*%
%TF.SameCoordinates,Original*%
%TF.FileFunction,Legend,Top*%
%TF.FilePolarity,Positive*%
%FSLAX46Y46*%
G04 Gerber Fmt 4.6, Leading zero omitted, Abs format (unit mm)*
G04 Created by KiCad (PCBNEW 10.0.5-10.0.5~ubuntu24.04.1) date 2026-07-28 01:24:54*
%MOMM*%
%LPD*%
G01*
G04 APERTURE LIST*
%ADD10C,0.150000*%
%ADD11C,0.300000*%
%ADD12C,0.120000*%
G04 APERTURE END LIST*
D10*
X163586779Y-76619819D02*
X163586779Y-75619819D01*
X163586779Y-75619819D02*
X163920112Y-76334104D01*
X163920112Y-76334104D02*
X164253445Y-75619819D01*
X164253445Y-75619819D02*
X164253445Y-76619819D01*
X164920112Y-75619819D02*
X165110588Y-75619819D01*
X165110588Y-75619819D02*
X165205826Y-75667438D01*
X165205826Y-75667438D02*
X165301064Y-75762676D01*
X165301064Y-75762676D02*
X165348683Y-75953152D01*
X165348683Y-75953152D02*
X165348683Y-76286485D01*
X165348683Y-76286485D02*
X165301064Y-76476961D01*
X165301064Y-76476961D02*
X165205826Y-76572200D01*
X165205826Y-76572200D02*
X165110588Y-76619819D01*
X165110588Y-76619819D02*
X164920112Y-76619819D01*
X164920112Y-76619819D02*
X164824874Y-76572200D01*
X164824874Y-76572200D02*
X164729636Y-76476961D01*
X164729636Y-76476961D02*
X164682017Y-76286485D01*
X164682017Y-76286485D02*
X164682017Y-75953152D01*
X164682017Y-75953152D02*
X164729636Y-75762676D01*
X164729636Y-75762676D02*
X164824874Y-75667438D01*
X164824874Y-75667438D02*
X164920112Y-75619819D01*
X165729636Y-76572200D02*
X165872493Y-76619819D01*
X165872493Y-76619819D02*
X166110588Y-76619819D01*
X166110588Y-76619819D02*
X166205826Y-76572200D01*
X166205826Y-76572200D02*
X166253445Y-76524580D01*
X166253445Y-76524580D02*
X166301064Y-76429342D01*
X166301064Y-76429342D02*
X166301064Y-76334104D01*
X166301064Y-76334104D02*
X166253445Y-76238866D01*
X166253445Y-76238866D02*
X166205826Y-76191247D01*
X166205826Y-76191247D02*
X166110588Y-76143628D01*
X166110588Y-76143628D02*
X165920112Y-76096009D01*
X165920112Y-76096009D02*
X165824874Y-76048390D01*
X165824874Y-76048390D02*
X165777255Y-76000771D01*
X165777255Y-76000771D02*
X165729636Y-75905533D01*
X165729636Y-75905533D02*
X165729636Y-75810295D01*
X165729636Y-75810295D02*
X165777255Y-75715057D01*
X165777255Y-75715057D02*
X165824874Y-75667438D01*
X165824874Y-75667438D02*
X165920112Y-75619819D01*
X165920112Y-75619819D02*
X166158207Y-75619819D01*
X166158207Y-75619819D02*
X166301064Y-75667438D01*
X166729636Y-76619819D02*
X166729636Y-75619819D01*
X163586779Y-74869819D02*
X163586779Y-73869819D01*
X163586779Y-73869819D02*
X163920112Y-74584104D01*
X163920112Y-74584104D02*
X164253445Y-73869819D01*
X164253445Y-73869819D02*
X164253445Y-74869819D01*
X164729636Y-74869819D02*
X164729636Y-73869819D01*
X165158207Y-74822200D02*
X165301064Y-74869819D01*
X165301064Y-74869819D02*
X165539159Y-74869819D01*
X165539159Y-74869819D02*
X165634397Y-74822200D01*
X165634397Y-74822200D02*
X165682016Y-74774580D01*
X165682016Y-74774580D02*
X165729635Y-74679342D01*
X165729635Y-74679342D02*
X165729635Y-74584104D01*
X165729635Y-74584104D02*
X165682016Y-74488866D01*
X165682016Y-74488866D02*
X165634397Y-74441247D01*
X165634397Y-74441247D02*
X165539159Y-74393628D01*
X165539159Y-74393628D02*
X165348683Y-74346009D01*
X165348683Y-74346009D02*
X165253445Y-74298390D01*
X165253445Y-74298390D02*
X165205826Y-74250771D01*
X165205826Y-74250771D02*
X165158207Y-74155533D01*
X165158207Y-74155533D02*
X165158207Y-74060295D01*
X165158207Y-74060295D02*
X165205826Y-73965057D01*
X165205826Y-73965057D02*
X165253445Y-73917438D01*
X165253445Y-73917438D02*
X165348683Y-73869819D01*
X165348683Y-73869819D02*
X165586778Y-73869819D01*
X165586778Y-73869819D02*
X165729635Y-73917438D01*
X166348683Y-73869819D02*
X166539159Y-73869819D01*
X166539159Y-73869819D02*
X166634397Y-73917438D01*
X166634397Y-73917438D02*
X166729635Y-74012676D01*
X166729635Y-74012676D02*
X166777254Y-74203152D01*
X166777254Y-74203152D02*
X166777254Y-74536485D01*
X166777254Y-74536485D02*
X166729635Y-74726961D01*
X166729635Y-74726961D02*
X166634397Y-74822200D01*
X166634397Y-74822200D02*
X166539159Y-74869819D01*
X166539159Y-74869819D02*
X166348683Y-74869819D01*
X166348683Y-74869819D02*
X166253445Y-74822200D01*
X166253445Y-74822200D02*
X166158207Y-74726961D01*
X166158207Y-74726961D02*
X166110588Y-74536485D01*
X166110588Y-74536485D02*
X166110588Y-74203152D01*
X166110588Y-74203152D02*
X166158207Y-74012676D01*
X166158207Y-74012676D02*
X166253445Y-73917438D01*
X166253445Y-73917438D02*
X166348683Y-73869819D01*
X164039160Y-72322200D02*
X164182017Y-72369819D01*
X164182017Y-72369819D02*
X164420112Y-72369819D01*
X164420112Y-72369819D02*
X164515350Y-72322200D01*
X164515350Y-72322200D02*
X164562969Y-72274580D01*
X164562969Y-72274580D02*
X164610588Y-72179342D01*
X164610588Y-72179342D02*
X164610588Y-72084104D01*
X164610588Y-72084104D02*
X164562969Y-71988866D01*
X164562969Y-71988866D02*
X164515350Y-71941247D01*
X164515350Y-71941247D02*
X164420112Y-71893628D01*
X164420112Y-71893628D02*
X164229636Y-71846009D01*
X164229636Y-71846009D02*
X164134398Y-71798390D01*
X164134398Y-71798390D02*
X164086779Y-71750771D01*
X164086779Y-71750771D02*
X164039160Y-71655533D01*
X164039160Y-71655533D02*
X164039160Y-71560295D01*
X164039160Y-71560295D02*
X164086779Y-71465057D01*
X164086779Y-71465057D02*
X164134398Y-71417438D01*
X164134398Y-71417438D02*
X164229636Y-71369819D01*
X164229636Y-71369819D02*
X164467731Y-71369819D01*
X164467731Y-71369819D02*
X164610588Y-71417438D01*
X165610588Y-72274580D02*
X165562969Y-72322200D01*
X165562969Y-72322200D02*
X165420112Y-72369819D01*
X165420112Y-72369819D02*
X165324874Y-72369819D01*
X165324874Y-72369819D02*
X165182017Y-72322200D01*
X165182017Y-72322200D02*
X165086779Y-72226961D01*
X165086779Y-72226961D02*
X165039160Y-72131723D01*
X165039160Y-72131723D02*
X164991541Y-71941247D01*
X164991541Y-71941247D02*
X164991541Y-71798390D01*
X164991541Y-71798390D02*
X165039160Y-71607914D01*
X165039160Y-71607914D02*
X165086779Y-71512676D01*
X165086779Y-71512676D02*
X165182017Y-71417438D01*
X165182017Y-71417438D02*
X165324874Y-71369819D01*
X165324874Y-71369819D02*
X165420112Y-71369819D01*
X165420112Y-71369819D02*
X165562969Y-71417438D01*
X165562969Y-71417438D02*
X165610588Y-71465057D01*
X166039160Y-72369819D02*
X166039160Y-71369819D01*
X166610588Y-72369819D02*
X166182017Y-71798390D01*
X166610588Y-71369819D02*
X166039160Y-71941247D01*
X164086779Y-70369819D02*
X164086779Y-69369819D01*
X164086779Y-69369819D02*
X164467731Y-69369819D01*
X164467731Y-69369819D02*
X164562969Y-69417438D01*
X164562969Y-69417438D02*
X164610588Y-69465057D01*
X164610588Y-69465057D02*
X164658207Y-69560295D01*
X164658207Y-69560295D02*
X164658207Y-69703152D01*
X164658207Y-69703152D02*
X164610588Y-69798390D01*
X164610588Y-69798390D02*
X164562969Y-69846009D01*
X164562969Y-69846009D02*
X164467731Y-69893628D01*
X164467731Y-69893628D02*
X164086779Y-69893628D01*
X165420112Y-69846009D02*
X165562969Y-69893628D01*
X165562969Y-69893628D02*
X165610588Y-69941247D01*
X165610588Y-69941247D02*
X165658207Y-70036485D01*
X165658207Y-70036485D02*
X165658207Y-70179342D01*
X165658207Y-70179342D02*
X165610588Y-70274580D01*
X165610588Y-70274580D02*
X165562969Y-70322200D01*
X165562969Y-70322200D02*
X165467731Y-70369819D01*
X165467731Y-70369819D02*
X165086779Y-70369819D01*
X165086779Y-70369819D02*
X165086779Y-69369819D01*
X165086779Y-69369819D02*
X165420112Y-69369819D01*
X165420112Y-69369819D02*
X165515350Y-69417438D01*
X165515350Y-69417438D02*
X165562969Y-69465057D01*
X165562969Y-69465057D02*
X165610588Y-69560295D01*
X165610588Y-69560295D02*
X165610588Y-69655533D01*
X165610588Y-69655533D02*
X165562969Y-69750771D01*
X165562969Y-69750771D02*
X165515350Y-69798390D01*
X165515350Y-69798390D02*
X165420112Y-69846009D01*
X165420112Y-69846009D02*
X165086779Y-69846009D01*
X165991541Y-69369819D02*
X166610588Y-69369819D01*
X166610588Y-69369819D02*
X166277255Y-69750771D01*
X166277255Y-69750771D02*
X166420112Y-69750771D01*
X166420112Y-69750771D02*
X166515350Y-69798390D01*
X166515350Y-69798390D02*
X166562969Y-69846009D01*
X166562969Y-69846009D02*
X166610588Y-69941247D01*
X166610588Y-69941247D02*
X166610588Y-70179342D01*
X166610588Y-70179342D02*
X166562969Y-70274580D01*
X166562969Y-70274580D02*
X166515350Y-70322200D01*
X166515350Y-70322200D02*
X166420112Y-70369819D01*
X166420112Y-70369819D02*
X166134398Y-70369819D01*
X166134398Y-70369819D02*
X166039160Y-70322200D01*
X166039160Y-70322200D02*
X165991541Y-70274580D01*
X164193922Y-79619819D02*
X164527255Y-80619819D01*
X164527255Y-80619819D02*
X164860588Y-79619819D01*
X165765350Y-80524580D02*
X165717731Y-80572200D01*
X165717731Y-80572200D02*
X165574874Y-80619819D01*
X165574874Y-80619819D02*
X165479636Y-80619819D01*
X165479636Y-80619819D02*
X165336779Y-80572200D01*
X165336779Y-80572200D02*
X165241541Y-80476961D01*
X165241541Y-80476961D02*
X165193922Y-80381723D01*
X165193922Y-80381723D02*
X165146303Y-80191247D01*
X165146303Y-80191247D02*
X165146303Y-80048390D01*
X165146303Y-80048390D02*
X165193922Y-79857914D01*
X165193922Y-79857914D02*
X165241541Y-79762676D01*
X165241541Y-79762676D02*
X165336779Y-79667438D01*
X165336779Y-79667438D02*
X165479636Y-79619819D01*
X165479636Y-79619819D02*
X165574874Y-79619819D01*
X165574874Y-79619819D02*
X165717731Y-79667438D01*
X165717731Y-79667438D02*
X165765350Y-79715057D01*
X166765350Y-80524580D02*
X166717731Y-80572200D01*
X166717731Y-80572200D02*
X166574874Y-80619819D01*
X166574874Y-80619819D02*
X166479636Y-80619819D01*
X166479636Y-80619819D02*
X166336779Y-80572200D01*
X166336779Y-80572200D02*
X166241541Y-80476961D01*
X166241541Y-80476961D02*
X166193922Y-80381723D01*
X166193922Y-80381723D02*
X166146303Y-80191247D01*
X166146303Y-80191247D02*
X166146303Y-80048390D01*
X166146303Y-80048390D02*
X166193922Y-79857914D01*
X166193922Y-79857914D02*
X166241541Y-79762676D01*
X166241541Y-79762676D02*
X166336779Y-79667438D01*
X166336779Y-79667438D02*
X166479636Y-79619819D01*
X166479636Y-79619819D02*
X166574874Y-79619819D01*
X166574874Y-79619819D02*
X166717731Y-79667438D01*
X166717731Y-79667438D02*
X166765350Y-79715057D01*
X164610588Y-65917438D02*
X164515350Y-65869819D01*
X164515350Y-65869819D02*
X164372493Y-65869819D01*
X164372493Y-65869819D02*
X164229636Y-65917438D01*
X164229636Y-65917438D02*
X164134398Y-66012676D01*
X164134398Y-66012676D02*
X164086779Y-66107914D01*
X164086779Y-66107914D02*
X164039160Y-66298390D01*
X164039160Y-66298390D02*
X164039160Y-66441247D01*
X164039160Y-66441247D02*
X164086779Y-66631723D01*
X164086779Y-66631723D02*
X164134398Y-66726961D01*
X164134398Y-66726961D02*
X164229636Y-66822200D01*
X164229636Y-66822200D02*
X164372493Y-66869819D01*
X164372493Y-66869819D02*
X164467731Y-66869819D01*
X164467731Y-66869819D02*
X164610588Y-66822200D01*
X164610588Y-66822200D02*
X164658207Y-66774580D01*
X164658207Y-66774580D02*
X164658207Y-66441247D01*
X164658207Y-66441247D02*
X164467731Y-66441247D01*
X165086779Y-66869819D02*
X165086779Y-65869819D01*
X165086779Y-65869819D02*
X165658207Y-66869819D01*
X165658207Y-66869819D02*
X165658207Y-65869819D01*
X166134398Y-66869819D02*
X166134398Y-65869819D01*
X166134398Y-65869819D02*
X166372493Y-65869819D01*
X166372493Y-65869819D02*
X166515350Y-65917438D01*
X166515350Y-65917438D02*
X166610588Y-66012676D01*
X166610588Y-66012676D02*
X166658207Y-66107914D01*
X166658207Y-66107914D02*
X166705826Y-66298390D01*
X166705826Y-66298390D02*
X166705826Y-66441247D01*
X166705826Y-66441247D02*
X166658207Y-66631723D01*
X166658207Y-66631723D02*
X166610588Y-66726961D01*
X166610588Y-66726961D02*
X166515350Y-66822200D01*
X166515350Y-66822200D02*
X166372493Y-66869819D01*
X166372493Y-66869819D02*
X166134398Y-66869819D01*
X135324874Y-75985533D02*
X136848684Y-75985533D01*
X135074874Y-70485533D02*
X136598684Y-70485533D01*
X135836779Y-71247438D02*
X135836779Y-69723628D01*
D11*
X154150000Y-61250000D02*
G75*
G02*
X153850000Y-61250000I-150000J0D01*
G01*
X153850000Y-61250000D02*
G75*
G02*
X154150000Y-61250000I150000J0D01*
G01*
D10*
X160178572Y-80204819D02*
X160178572Y-79204819D01*
X160178572Y-79204819D02*
X160511905Y-79919104D01*
X160511905Y-79919104D02*
X160845238Y-79204819D01*
X160845238Y-79204819D02*
X160845238Y-80204819D01*
X161511905Y-79204819D02*
X161702381Y-79204819D01*
X161702381Y-79204819D02*
X161797619Y-79252438D01*
X161797619Y-79252438D02*
X161892857Y-79347676D01*
X161892857Y-79347676D02*
X161940476Y-79538152D01*
X161940476Y-79538152D02*
X161940476Y-79871485D01*
X161940476Y-79871485D02*
X161892857Y-80061961D01*
X161892857Y-80061961D02*
X161797619Y-80157200D01*
X161797619Y-80157200D02*
X161702381Y-80204819D01*
X161702381Y-80204819D02*
X161511905Y-80204819D01*
X161511905Y-80204819D02*
X161416667Y-80157200D01*
X161416667Y-80157200D02*
X161321429Y-80061961D01*
X161321429Y-80061961D02*
X161273810Y-79871485D01*
X161273810Y-79871485D02*
X161273810Y-79538152D01*
X161273810Y-79538152D02*
X161321429Y-79347676D01*
X161321429Y-79347676D02*
X161416667Y-79252438D01*
X161416667Y-79252438D02*
X161511905Y-79204819D01*
X162321429Y-80157200D02*
X162464286Y-80204819D01*
X162464286Y-80204819D02*
X162702381Y-80204819D01*
X162702381Y-80204819D02*
X162797619Y-80157200D01*
X162797619Y-80157200D02*
X162845238Y-80109580D01*
X162845238Y-80109580D02*
X162892857Y-80014342D01*
X162892857Y-80014342D02*
X162892857Y-79919104D01*
X162892857Y-79919104D02*
X162845238Y-79823866D01*
X162845238Y-79823866D02*
X162797619Y-79776247D01*
X162797619Y-79776247D02*
X162702381Y-79728628D01*
X162702381Y-79728628D02*
X162511905Y-79681009D01*
X162511905Y-79681009D02*
X162416667Y-79633390D01*
X162416667Y-79633390D02*
X162369048Y-79585771D01*
X162369048Y-79585771D02*
X162321429Y-79490533D01*
X162321429Y-79490533D02*
X162321429Y-79395295D01*
X162321429Y-79395295D02*
X162369048Y-79300057D01*
X162369048Y-79300057D02*
X162416667Y-79252438D01*
X162416667Y-79252438D02*
X162511905Y-79204819D01*
X162511905Y-79204819D02*
X162750000Y-79204819D01*
X162750000Y-79204819D02*
X162892857Y-79252438D01*
X163321429Y-80204819D02*
X163321429Y-79204819D01*
X155238095Y-71054819D02*
X155238095Y-71864342D01*
X155238095Y-71864342D02*
X155285714Y-71959580D01*
X155285714Y-71959580D02*
X155333333Y-72007200D01*
X155333333Y-72007200D02*
X155428571Y-72054819D01*
X155428571Y-72054819D02*
X155619047Y-72054819D01*
X155619047Y-72054819D02*
X155714285Y-72007200D01*
X155714285Y-72007200D02*
X155761904Y-71959580D01*
X155761904Y-71959580D02*
X155809523Y-71864342D01*
X155809523Y-71864342D02*
X155809523Y-71054819D01*
X156809523Y-72054819D02*
X156238095Y-72054819D01*
X156523809Y-72054819D02*
X156523809Y-71054819D01*
X156523809Y-71054819D02*
X156428571Y-71197676D01*
X156428571Y-71197676D02*
X156333333Y-71292914D01*
X156333333Y-71292914D02*
X156238095Y-71340533D01*
X149821428Y-78569104D02*
X150297618Y-78569104D01*
X149726190Y-78854819D02*
X150059523Y-77854819D01*
X150059523Y-77854819D02*
X150392856Y-78854819D01*
X150583333Y-77854819D02*
X151154761Y-77854819D01*
X150869047Y-78854819D02*
X150869047Y-77854819D01*
X151345238Y-78188152D02*
X151726190Y-78188152D01*
X151488095Y-77854819D02*
X151488095Y-78711961D01*
X151488095Y-78711961D02*
X151535714Y-78807200D01*
X151535714Y-78807200D02*
X151630952Y-78854819D01*
X151630952Y-78854819D02*
X151726190Y-78854819D01*
X152059524Y-78854819D02*
X152059524Y-78188152D01*
X152059524Y-77854819D02*
X152011905Y-77902438D01*
X152011905Y-77902438D02*
X152059524Y-77950057D01*
X152059524Y-77950057D02*
X152107143Y-77902438D01*
X152107143Y-77902438D02*
X152059524Y-77854819D01*
X152059524Y-77854819D02*
X152059524Y-77950057D01*
X152535714Y-78188152D02*
X152535714Y-78854819D01*
X152535714Y-78283390D02*
X152583333Y-78235771D01*
X152583333Y-78235771D02*
X152678571Y-78188152D01*
X152678571Y-78188152D02*
X152821428Y-78188152D01*
X152821428Y-78188152D02*
X152916666Y-78235771D01*
X152916666Y-78235771D02*
X152964285Y-78331009D01*
X152964285Y-78331009D02*
X152964285Y-78854819D01*
X153345238Y-78188152D02*
X153583333Y-78854819D01*
X153821428Y-78188152D02*
X153583333Y-78854819D01*
X153583333Y-78854819D02*
X153488095Y-79092914D01*
X153488095Y-79092914D02*
X153440476Y-79140533D01*
X153440476Y-79140533D02*
X153345238Y-79188152D01*
X154726190Y-78854819D02*
X154154762Y-78854819D01*
X154440476Y-78854819D02*
X154440476Y-77854819D01*
X154440476Y-77854819D02*
X154345238Y-77997676D01*
X154345238Y-77997676D02*
X154250000Y-78092914D01*
X154250000Y-78092914D02*
X154154762Y-78140533D01*
X155059524Y-77854819D02*
X155678571Y-77854819D01*
X155678571Y-77854819D02*
X155345238Y-78235771D01*
X155345238Y-78235771D02*
X155488095Y-78235771D01*
X155488095Y-78235771D02*
X155583333Y-78283390D01*
X155583333Y-78283390D02*
X155630952Y-78331009D01*
X155630952Y-78331009D02*
X155678571Y-78426247D01*
X155678571Y-78426247D02*
X155678571Y-78664342D01*
X155678571Y-78664342D02*
X155630952Y-78759580D01*
X155630952Y-78759580D02*
X155583333Y-78807200D01*
X155583333Y-78807200D02*
X155488095Y-78854819D01*
X155488095Y-78854819D02*
X155202381Y-78854819D01*
X155202381Y-78854819D02*
X155107143Y-78807200D01*
X155107143Y-78807200D02*
X155059524Y-78759580D01*
X156059524Y-78569104D02*
X156535714Y-78569104D01*
X155964286Y-78854819D02*
X156297619Y-77854819D01*
X156297619Y-77854819D02*
X156630952Y-78854819D01*
X156964286Y-78473866D02*
X157726191Y-78473866D01*
X158154762Y-78807200D02*
X158297619Y-78854819D01*
X158297619Y-78854819D02*
X158535714Y-78854819D01*
X158535714Y-78854819D02*
X158630952Y-78807200D01*
X158630952Y-78807200D02*
X158678571Y-78759580D01*
X158678571Y-78759580D02*
X158726190Y-78664342D01*
X158726190Y-78664342D02*
X158726190Y-78569104D01*
X158726190Y-78569104D02*
X158678571Y-78473866D01*
X158678571Y-78473866D02*
X158630952Y-78426247D01*
X158630952Y-78426247D02*
X158535714Y-78378628D01*
X158535714Y-78378628D02*
X158345238Y-78331009D01*
X158345238Y-78331009D02*
X158250000Y-78283390D01*
X158250000Y-78283390D02*
X158202381Y-78235771D01*
X158202381Y-78235771D02*
X158154762Y-78140533D01*
X158154762Y-78140533D02*
X158154762Y-78045295D01*
X158154762Y-78045295D02*
X158202381Y-77950057D01*
X158202381Y-77950057D02*
X158250000Y-77902438D01*
X158250000Y-77902438D02*
X158345238Y-77854819D01*
X158345238Y-77854819D02*
X158583333Y-77854819D01*
X158583333Y-77854819D02*
X158726190Y-77902438D01*
X159107143Y-78807200D02*
X159250000Y-78854819D01*
X159250000Y-78854819D02*
X159488095Y-78854819D01*
X159488095Y-78854819D02*
X159583333Y-78807200D01*
X159583333Y-78807200D02*
X159630952Y-78759580D01*
X159630952Y-78759580D02*
X159678571Y-78664342D01*
X159678571Y-78664342D02*
X159678571Y-78569104D01*
X159678571Y-78569104D02*
X159630952Y-78473866D01*
X159630952Y-78473866D02*
X159583333Y-78426247D01*
X159583333Y-78426247D02*
X159488095Y-78378628D01*
X159488095Y-78378628D02*
X159297619Y-78331009D01*
X159297619Y-78331009D02*
X159202381Y-78283390D01*
X159202381Y-78283390D02*
X159154762Y-78235771D01*
X159154762Y-78235771D02*
X159107143Y-78140533D01*
X159107143Y-78140533D02*
X159107143Y-78045295D01*
X159107143Y-78045295D02*
X159154762Y-77950057D01*
X159154762Y-77950057D02*
X159202381Y-77902438D01*
X159202381Y-77902438D02*
X159297619Y-77854819D01*
X159297619Y-77854819D02*
X159535714Y-77854819D01*
X159535714Y-77854819D02*
X159678571Y-77902438D01*
X139011905Y-77704819D02*
X139011905Y-76704819D01*
X139011905Y-76704819D02*
X139250000Y-76704819D01*
X139250000Y-76704819D02*
X139392857Y-76752438D01*
X139392857Y-76752438D02*
X139488095Y-76847676D01*
X139488095Y-76847676D02*
X139535714Y-76942914D01*
X139535714Y-76942914D02*
X139583333Y-77133390D01*
X139583333Y-77133390D02*
X139583333Y-77276247D01*
X139583333Y-77276247D02*
X139535714Y-77466723D01*
X139535714Y-77466723D02*
X139488095Y-77561961D01*
X139488095Y-77561961D02*
X139392857Y-77657200D01*
X139392857Y-77657200D02*
X139250000Y-77704819D01*
X139250000Y-77704819D02*
X139011905Y-77704819D01*
X139964286Y-76800057D02*
X140011905Y-76752438D01*
X140011905Y-76752438D02*
X140107143Y-76704819D01*
X140107143Y-76704819D02*
X140345238Y-76704819D01*
X140345238Y-76704819D02*
X140440476Y-76752438D01*
X140440476Y-76752438D02*
X140488095Y-76800057D01*
X140488095Y-76800057D02*
X140535714Y-76895295D01*
X140535714Y-76895295D02*
X140535714Y-76990533D01*
X140535714Y-76990533D02*
X140488095Y-77133390D01*
X140488095Y-77133390D02*
X139916667Y-77704819D01*
X139916667Y-77704819D02*
X140535714Y-77704819D01*
X140107142Y-81954819D02*
X139773809Y-81478628D01*
X139535714Y-81954819D02*
X139535714Y-80954819D01*
X139535714Y-80954819D02*
X139916666Y-80954819D01*
X139916666Y-80954819D02*
X140011904Y-81002438D01*
X140011904Y-81002438D02*
X140059523Y-81050057D01*
X140059523Y-81050057D02*
X140107142Y-81145295D01*
X140107142Y-81145295D02*
X140107142Y-81288152D01*
X140107142Y-81288152D02*
X140059523Y-81383390D01*
X140059523Y-81383390D02*
X140011904Y-81431009D01*
X140011904Y-81431009D02*
X139916666Y-81478628D01*
X139916666Y-81478628D02*
X139535714Y-81478628D01*
X140535714Y-81431009D02*
X140869047Y-81431009D01*
X141011904Y-81954819D02*
X140535714Y-81954819D01*
X140535714Y-81954819D02*
X140535714Y-80954819D01*
X140535714Y-80954819D02*
X141011904Y-80954819D01*
X141440476Y-81954819D02*
X141440476Y-80954819D01*
X141440476Y-80954819D02*
X141678571Y-80954819D01*
X141678571Y-80954819D02*
X141821428Y-81002438D01*
X141821428Y-81002438D02*
X141916666Y-81097676D01*
X141916666Y-81097676D02*
X141964285Y-81192914D01*
X141964285Y-81192914D02*
X142011904Y-81383390D01*
X142011904Y-81383390D02*
X142011904Y-81526247D01*
X142011904Y-81526247D02*
X141964285Y-81716723D01*
X141964285Y-81716723D02*
X141916666Y-81811961D01*
X141916666Y-81811961D02*
X141821428Y-81907200D01*
X141821428Y-81907200D02*
X141678571Y-81954819D01*
X141678571Y-81954819D02*
X141440476Y-81954819D01*
X148357142Y-74454819D02*
X147880952Y-74454819D01*
X147880952Y-74454819D02*
X147880952Y-73454819D01*
X148690476Y-73931009D02*
X149023809Y-73931009D01*
X149166666Y-74454819D02*
X148690476Y-74454819D01*
X148690476Y-74454819D02*
X148690476Y-73454819D01*
X148690476Y-73454819D02*
X149166666Y-73454819D01*
X149595238Y-74454819D02*
X149595238Y-73454819D01*
X149595238Y-73454819D02*
X149833333Y-73454819D01*
X149833333Y-73454819D02*
X149976190Y-73502438D01*
X149976190Y-73502438D02*
X150071428Y-73597676D01*
X150071428Y-73597676D02*
X150119047Y-73692914D01*
X150119047Y-73692914D02*
X150166666Y-73883390D01*
X150166666Y-73883390D02*
X150166666Y-74026247D01*
X150166666Y-74026247D02*
X150119047Y-74216723D01*
X150119047Y-74216723D02*
X150071428Y-74311961D01*
X150071428Y-74311961D02*
X149976190Y-74407200D01*
X149976190Y-74407200D02*
X149833333Y-74454819D01*
X149833333Y-74454819D02*
X149595238Y-74454819D01*
X129761905Y-65704819D02*
X129761905Y-64704819D01*
X129761905Y-64704819D02*
X130000000Y-64704819D01*
X130000000Y-64704819D02*
X130142857Y-64752438D01*
X130142857Y-64752438D02*
X130238095Y-64847676D01*
X130238095Y-64847676D02*
X130285714Y-64942914D01*
X130285714Y-64942914D02*
X130333333Y-65133390D01*
X130333333Y-65133390D02*
X130333333Y-65276247D01*
X130333333Y-65276247D02*
X130285714Y-65466723D01*
X130285714Y-65466723D02*
X130238095Y-65561961D01*
X130238095Y-65561961D02*
X130142857Y-65657200D01*
X130142857Y-65657200D02*
X130000000Y-65704819D01*
X130000000Y-65704819D02*
X129761905Y-65704819D01*
X131285714Y-65704819D02*
X130714286Y-65704819D01*
X131000000Y-65704819D02*
X131000000Y-64704819D01*
X131000000Y-64704819D02*
X130904762Y-64847676D01*
X130904762Y-64847676D02*
X130809524Y-64942914D01*
X130809524Y-64942914D02*
X130714286Y-64990533D01*
X128535714Y-60657200D02*
X128678571Y-60704819D01*
X128678571Y-60704819D02*
X128916666Y-60704819D01*
X128916666Y-60704819D02*
X129011904Y-60657200D01*
X129011904Y-60657200D02*
X129059523Y-60609580D01*
X129059523Y-60609580D02*
X129107142Y-60514342D01*
X129107142Y-60514342D02*
X129107142Y-60419104D01*
X129107142Y-60419104D02*
X129059523Y-60323866D01*
X129059523Y-60323866D02*
X129011904Y-60276247D01*
X129011904Y-60276247D02*
X128916666Y-60228628D01*
X128916666Y-60228628D02*
X128726190Y-60181009D01*
X128726190Y-60181009D02*
X128630952Y-60133390D01*
X128630952Y-60133390D02*
X128583333Y-60085771D01*
X128583333Y-60085771D02*
X128535714Y-59990533D01*
X128535714Y-59990533D02*
X128535714Y-59895295D01*
X128535714Y-59895295D02*
X128583333Y-59800057D01*
X128583333Y-59800057D02*
X128630952Y-59752438D01*
X128630952Y-59752438D02*
X128726190Y-59704819D01*
X128726190Y-59704819D02*
X128964285Y-59704819D01*
X128964285Y-59704819D02*
X129107142Y-59752438D01*
X129488095Y-60657200D02*
X129630952Y-60704819D01*
X129630952Y-60704819D02*
X129869047Y-60704819D01*
X129869047Y-60704819D02*
X129964285Y-60657200D01*
X129964285Y-60657200D02*
X130011904Y-60609580D01*
X130011904Y-60609580D02*
X130059523Y-60514342D01*
X130059523Y-60514342D02*
X130059523Y-60419104D01*
X130059523Y-60419104D02*
X130011904Y-60323866D01*
X130011904Y-60323866D02*
X129964285Y-60276247D01*
X129964285Y-60276247D02*
X129869047Y-60228628D01*
X129869047Y-60228628D02*
X129678571Y-60181009D01*
X129678571Y-60181009D02*
X129583333Y-60133390D01*
X129583333Y-60133390D02*
X129535714Y-60085771D01*
X129535714Y-60085771D02*
X129488095Y-59990533D01*
X129488095Y-59990533D02*
X129488095Y-59895295D01*
X129488095Y-59895295D02*
X129535714Y-59800057D01*
X129535714Y-59800057D02*
X129583333Y-59752438D01*
X129583333Y-59752438D02*
X129678571Y-59704819D01*
X129678571Y-59704819D02*
X129916666Y-59704819D01*
X129916666Y-59704819D02*
X130059523Y-59752438D01*
X131011904Y-60704819D02*
X130440476Y-60704819D01*
X130726190Y-60704819D02*
X130726190Y-59704819D01*
X130726190Y-59704819D02*
X130630952Y-59847676D01*
X130630952Y-59847676D02*
X130535714Y-59942914D01*
X130535714Y-59942914D02*
X130440476Y-59990533D01*
X131869047Y-60038152D02*
X131869047Y-60704819D01*
X131630952Y-59657200D02*
X131392857Y-60371485D01*
X131392857Y-60371485D02*
X132011904Y-60371485D01*
X142416667Y-60204819D02*
X142750000Y-61204819D01*
X142750000Y-61204819D02*
X143083333Y-60204819D01*
X143988095Y-61109580D02*
X143940476Y-61157200D01*
X143940476Y-61157200D02*
X143797619Y-61204819D01*
X143797619Y-61204819D02*
X143702381Y-61204819D01*
X143702381Y-61204819D02*
X143559524Y-61157200D01*
X143559524Y-61157200D02*
X143464286Y-61061961D01*
X143464286Y-61061961D02*
X143416667Y-60966723D01*
X143416667Y-60966723D02*
X143369048Y-60776247D01*
X143369048Y-60776247D02*
X143369048Y-60633390D01*
X143369048Y-60633390D02*
X143416667Y-60442914D01*
X143416667Y-60442914D02*
X143464286Y-60347676D01*
X143464286Y-60347676D02*
X143559524Y-60252438D01*
X143559524Y-60252438D02*
X143702381Y-60204819D01*
X143702381Y-60204819D02*
X143797619Y-60204819D01*
X143797619Y-60204819D02*
X143940476Y-60252438D01*
X143940476Y-60252438D02*
X143988095Y-60300057D01*
X144988095Y-61109580D02*
X144940476Y-61157200D01*
X144940476Y-61157200D02*
X144797619Y-61204819D01*
X144797619Y-61204819D02*
X144702381Y-61204819D01*
X144702381Y-61204819D02*
X144559524Y-61157200D01*
X144559524Y-61157200D02*
X144464286Y-61061961D01*
X144464286Y-61061961D02*
X144416667Y-60966723D01*
X144416667Y-60966723D02*
X144369048Y-60776247D01*
X144369048Y-60776247D02*
X144369048Y-60633390D01*
X144369048Y-60633390D02*
X144416667Y-60442914D01*
X144416667Y-60442914D02*
X144464286Y-60347676D01*
X144464286Y-60347676D02*
X144559524Y-60252438D01*
X144559524Y-60252438D02*
X144702381Y-60204819D01*
X144702381Y-60204819D02*
X144797619Y-60204819D01*
X144797619Y-60204819D02*
X144940476Y-60252438D01*
X144940476Y-60252438D02*
X144988095Y-60300057D01*
X160178572Y-73204819D02*
X160178572Y-72204819D01*
X160178572Y-72204819D02*
X160511905Y-72919104D01*
X160511905Y-72919104D02*
X160845238Y-72204819D01*
X160845238Y-72204819D02*
X160845238Y-73204819D01*
X161321429Y-73204819D02*
X161321429Y-72204819D01*
X161750000Y-73157200D02*
X161892857Y-73204819D01*
X161892857Y-73204819D02*
X162130952Y-73204819D01*
X162130952Y-73204819D02*
X162226190Y-73157200D01*
X162226190Y-73157200D02*
X162273809Y-73109580D01*
X162273809Y-73109580D02*
X162321428Y-73014342D01*
X162321428Y-73014342D02*
X162321428Y-72919104D01*
X162321428Y-72919104D02*
X162273809Y-72823866D01*
X162273809Y-72823866D02*
X162226190Y-72776247D01*
X162226190Y-72776247D02*
X162130952Y-72728628D01*
X162130952Y-72728628D02*
X161940476Y-72681009D01*
X161940476Y-72681009D02*
X161845238Y-72633390D01*
X161845238Y-72633390D02*
X161797619Y-72585771D01*
X161797619Y-72585771D02*
X161750000Y-72490533D01*
X161750000Y-72490533D02*
X161750000Y-72395295D01*
X161750000Y-72395295D02*
X161797619Y-72300057D01*
X161797619Y-72300057D02*
X161845238Y-72252438D01*
X161845238Y-72252438D02*
X161940476Y-72204819D01*
X161940476Y-72204819D02*
X162178571Y-72204819D01*
X162178571Y-72204819D02*
X162321428Y-72252438D01*
X162940476Y-72204819D02*
X163130952Y-72204819D01*
X163130952Y-72204819D02*
X163226190Y-72252438D01*
X163226190Y-72252438D02*
X163321428Y-72347676D01*
X163321428Y-72347676D02*
X163369047Y-72538152D01*
X163369047Y-72538152D02*
X163369047Y-72871485D01*
X163369047Y-72871485D02*
X163321428Y-73061961D01*
X163321428Y-73061961D02*
X163226190Y-73157200D01*
X163226190Y-73157200D02*
X163130952Y-73204819D01*
X163130952Y-73204819D02*
X162940476Y-73204819D01*
X162940476Y-73204819D02*
X162845238Y-73157200D01*
X162845238Y-73157200D02*
X162750000Y-73061961D01*
X162750000Y-73061961D02*
X162702381Y-72871485D01*
X162702381Y-72871485D02*
X162702381Y-72538152D01*
X162702381Y-72538152D02*
X162750000Y-72347676D01*
X162750000Y-72347676D02*
X162845238Y-72252438D01*
X162845238Y-72252438D02*
X162940476Y-72204819D01*
X168166666Y-81124819D02*
X168166666Y-81839104D01*
X168166666Y-81839104D02*
X168119047Y-81981961D01*
X168119047Y-81981961D02*
X168023809Y-82077200D01*
X168023809Y-82077200D02*
X167880952Y-82124819D01*
X167880952Y-82124819D02*
X167785714Y-82124819D01*
X168547619Y-81124819D02*
X169166666Y-81124819D01*
X169166666Y-81124819D02*
X168833333Y-81505771D01*
X168833333Y-81505771D02*
X168976190Y-81505771D01*
X168976190Y-81505771D02*
X169071428Y-81553390D01*
X169071428Y-81553390D02*
X169119047Y-81601009D01*
X169119047Y-81601009D02*
X169166666Y-81696247D01*
X169166666Y-81696247D02*
X169166666Y-81934342D01*
X169166666Y-81934342D02*
X169119047Y-82029580D01*
X169119047Y-82029580D02*
X169071428Y-82077200D01*
X169071428Y-82077200D02*
X168976190Y-82124819D01*
X168976190Y-82124819D02*
X168690476Y-82124819D01*
X168690476Y-82124819D02*
X168595238Y-82077200D01*
X168595238Y-82077200D02*
X168547619Y-82029580D01*
X140407200Y-75249999D02*
X140454819Y-75107142D01*
X140454819Y-75107142D02*
X140454819Y-74869047D01*
X140454819Y-74869047D02*
X140407200Y-74773809D01*
X140407200Y-74773809D02*
X140359580Y-74726190D01*
X140359580Y-74726190D02*
X140264342Y-74678571D01*
X140264342Y-74678571D02*
X140169104Y-74678571D01*
X140169104Y-74678571D02*
X140073866Y-74726190D01*
X140073866Y-74726190D02*
X140026247Y-74773809D01*
X140026247Y-74773809D02*
X139978628Y-74869047D01*
X139978628Y-74869047D02*
X139931009Y-75059523D01*
X139931009Y-75059523D02*
X139883390Y-75154761D01*
X139883390Y-75154761D02*
X139835771Y-75202380D01*
X139835771Y-75202380D02*
X139740533Y-75249999D01*
X139740533Y-75249999D02*
X139645295Y-75249999D01*
X139645295Y-75249999D02*
X139550057Y-75202380D01*
X139550057Y-75202380D02*
X139502438Y-75154761D01*
X139502438Y-75154761D02*
X139454819Y-75059523D01*
X139454819Y-75059523D02*
X139454819Y-74821428D01*
X139454819Y-74821428D02*
X139502438Y-74678571D01*
X139454819Y-74345237D02*
X140454819Y-74107142D01*
X140454819Y-74107142D02*
X139740533Y-73916666D01*
X139740533Y-73916666D02*
X140454819Y-73726190D01*
X140454819Y-73726190D02*
X139454819Y-73488095D01*
X140550057Y-73345238D02*
X140550057Y-72583333D01*
X140454819Y-71773809D02*
X139978628Y-72107142D01*
X140454819Y-72345237D02*
X139454819Y-72345237D01*
X139454819Y-72345237D02*
X139454819Y-71964285D01*
X139454819Y-71964285D02*
X139502438Y-71869047D01*
X139502438Y-71869047D02*
X139550057Y-71821428D01*
X139550057Y-71821428D02*
X139645295Y-71773809D01*
X139645295Y-71773809D02*
X139788152Y-71773809D01*
X139788152Y-71773809D02*
X139883390Y-71821428D01*
X139883390Y-71821428D02*
X139931009Y-71869047D01*
X139931009Y-71869047D02*
X139978628Y-71964285D01*
X139978628Y-71964285D02*
X139978628Y-72345237D01*
X139931009Y-71345237D02*
X139931009Y-71011904D01*
X140454819Y-70869047D02*
X140454819Y-71345237D01*
X140454819Y-71345237D02*
X139454819Y-71345237D01*
X139454819Y-71345237D02*
X139454819Y-70869047D01*
X140407200Y-70488094D02*
X140454819Y-70345237D01*
X140454819Y-70345237D02*
X140454819Y-70107142D01*
X140454819Y-70107142D02*
X140407200Y-70011904D01*
X140407200Y-70011904D02*
X140359580Y-69964285D01*
X140359580Y-69964285D02*
X140264342Y-69916666D01*
X140264342Y-69916666D02*
X140169104Y-69916666D01*
X140169104Y-69916666D02*
X140073866Y-69964285D01*
X140073866Y-69964285D02*
X140026247Y-70011904D01*
X140026247Y-70011904D02*
X139978628Y-70107142D01*
X139978628Y-70107142D02*
X139931009Y-70297618D01*
X139931009Y-70297618D02*
X139883390Y-70392856D01*
X139883390Y-70392856D02*
X139835771Y-70440475D01*
X139835771Y-70440475D02*
X139740533Y-70488094D01*
X139740533Y-70488094D02*
X139645295Y-70488094D01*
X139645295Y-70488094D02*
X139550057Y-70440475D01*
X139550057Y-70440475D02*
X139502438Y-70392856D01*
X139502438Y-70392856D02*
X139454819Y-70297618D01*
X139454819Y-70297618D02*
X139454819Y-70059523D01*
X139454819Y-70059523D02*
X139502438Y-69916666D01*
X139931009Y-69488094D02*
X139931009Y-69154761D01*
X140454819Y-69011904D02*
X140454819Y-69488094D01*
X140454819Y-69488094D02*
X139454819Y-69488094D01*
X139454819Y-69488094D02*
X139454819Y-69011904D01*
X139454819Y-68726189D02*
X139454819Y-68154761D01*
X140454819Y-68440475D02*
X139454819Y-68440475D01*
X152333333Y-82109580D02*
X152285714Y-82157200D01*
X152285714Y-82157200D02*
X152142857Y-82204819D01*
X152142857Y-82204819D02*
X152047619Y-82204819D01*
X152047619Y-82204819D02*
X151904762Y-82157200D01*
X151904762Y-82157200D02*
X151809524Y-82061961D01*
X151809524Y-82061961D02*
X151761905Y-81966723D01*
X151761905Y-81966723D02*
X151714286Y-81776247D01*
X151714286Y-81776247D02*
X151714286Y-81633390D01*
X151714286Y-81633390D02*
X151761905Y-81442914D01*
X151761905Y-81442914D02*
X151809524Y-81347676D01*
X151809524Y-81347676D02*
X151904762Y-81252438D01*
X151904762Y-81252438D02*
X152047619Y-81204819D01*
X152047619Y-81204819D02*
X152142857Y-81204819D01*
X152142857Y-81204819D02*
X152285714Y-81252438D01*
X152285714Y-81252438D02*
X152333333Y-81300057D01*
X152714286Y-81300057D02*
X152761905Y-81252438D01*
X152761905Y-81252438D02*
X152857143Y-81204819D01*
X152857143Y-81204819D02*
X153095238Y-81204819D01*
X153095238Y-81204819D02*
X153190476Y-81252438D01*
X153190476Y-81252438D02*
X153238095Y-81300057D01*
X153238095Y-81300057D02*
X153285714Y-81395295D01*
X153285714Y-81395295D02*
X153285714Y-81490533D01*
X153285714Y-81490533D02*
X153238095Y-81633390D01*
X153238095Y-81633390D02*
X152666667Y-82204819D01*
X152666667Y-82204819D02*
X153285714Y-82204819D01*
X156071428Y-82704819D02*
X155500000Y-82704819D01*
X155785714Y-82704819D02*
X155785714Y-81704819D01*
X155785714Y-81704819D02*
X155690476Y-81847676D01*
X155690476Y-81847676D02*
X155595238Y-81942914D01*
X155595238Y-81942914D02*
X155500000Y-81990533D01*
X156690476Y-81704819D02*
X156785714Y-81704819D01*
X156785714Y-81704819D02*
X156880952Y-81752438D01*
X156880952Y-81752438D02*
X156928571Y-81800057D01*
X156928571Y-81800057D02*
X156976190Y-81895295D01*
X156976190Y-81895295D02*
X157023809Y-82085771D01*
X157023809Y-82085771D02*
X157023809Y-82323866D01*
X157023809Y-82323866D02*
X156976190Y-82514342D01*
X156976190Y-82514342D02*
X156928571Y-82609580D01*
X156928571Y-82609580D02*
X156880952Y-82657200D01*
X156880952Y-82657200D02*
X156785714Y-82704819D01*
X156785714Y-82704819D02*
X156690476Y-82704819D01*
X156690476Y-82704819D02*
X156595238Y-82657200D01*
X156595238Y-82657200D02*
X156547619Y-82609580D01*
X156547619Y-82609580D02*
X156500000Y-82514342D01*
X156500000Y-82514342D02*
X156452381Y-82323866D01*
X156452381Y-82323866D02*
X156452381Y-82085771D01*
X156452381Y-82085771D02*
X156500000Y-81895295D01*
X156500000Y-81895295D02*
X156547619Y-81800057D01*
X156547619Y-81800057D02*
X156595238Y-81752438D01*
X156595238Y-81752438D02*
X156690476Y-81704819D01*
X157642857Y-81704819D02*
X157738095Y-81704819D01*
X157738095Y-81704819D02*
X157833333Y-81752438D01*
X157833333Y-81752438D02*
X157880952Y-81800057D01*
X157880952Y-81800057D02*
X157928571Y-81895295D01*
X157928571Y-81895295D02*
X157976190Y-82085771D01*
X157976190Y-82085771D02*
X157976190Y-82323866D01*
X157976190Y-82323866D02*
X157928571Y-82514342D01*
X157928571Y-82514342D02*
X157880952Y-82609580D01*
X157880952Y-82609580D02*
X157833333Y-82657200D01*
X157833333Y-82657200D02*
X157738095Y-82704819D01*
X157738095Y-82704819D02*
X157642857Y-82704819D01*
X157642857Y-82704819D02*
X157547619Y-82657200D01*
X157547619Y-82657200D02*
X157500000Y-82609580D01*
X157500000Y-82609580D02*
X157452381Y-82514342D01*
X157452381Y-82514342D02*
X157404762Y-82323866D01*
X157404762Y-82323866D02*
X157404762Y-82085771D01*
X157404762Y-82085771D02*
X157452381Y-81895295D01*
X157452381Y-81895295D02*
X157500000Y-81800057D01*
X157500000Y-81800057D02*
X157547619Y-81752438D01*
X157547619Y-81752438D02*
X157642857Y-81704819D01*
X159166667Y-82038152D02*
X159166667Y-82704819D01*
X159166667Y-82133390D02*
X159214286Y-82085771D01*
X159214286Y-82085771D02*
X159309524Y-82038152D01*
X159309524Y-82038152D02*
X159452381Y-82038152D01*
X159452381Y-82038152D02*
X159547619Y-82085771D01*
X159547619Y-82085771D02*
X159595238Y-82181009D01*
X159595238Y-82181009D02*
X159595238Y-82704819D01*
X160404762Y-82181009D02*
X160071429Y-82181009D01*
X160071429Y-82704819D02*
X160071429Y-81704819D01*
X160071429Y-81704819D02*
X160547619Y-81704819D01*
X127059523Y-66954819D02*
X126583333Y-66954819D01*
X126583333Y-66954819D02*
X126535714Y-67431009D01*
X126535714Y-67431009D02*
X126583333Y-67383390D01*
X126583333Y-67383390D02*
X126678571Y-67335771D01*
X126678571Y-67335771D02*
X126916666Y-67335771D01*
X126916666Y-67335771D02*
X127011904Y-67383390D01*
X127011904Y-67383390D02*
X127059523Y-67431009D01*
X127059523Y-67431009D02*
X127107142Y-67526247D01*
X127107142Y-67526247D02*
X127107142Y-67764342D01*
X127107142Y-67764342D02*
X127059523Y-67859580D01*
X127059523Y-67859580D02*
X127011904Y-67907200D01*
X127011904Y-67907200D02*
X126916666Y-67954819D01*
X126916666Y-67954819D02*
X126678571Y-67954819D01*
X126678571Y-67954819D02*
X126583333Y-67907200D01*
X126583333Y-67907200D02*
X126535714Y-67859580D01*
X127392857Y-66954819D02*
X127726190Y-67954819D01*
X127726190Y-67954819D02*
X128059523Y-66954819D01*
X148333333Y-61454819D02*
X148000000Y-60978628D01*
X147761905Y-61454819D02*
X147761905Y-60454819D01*
X147761905Y-60454819D02*
X148142857Y-60454819D01*
X148142857Y-60454819D02*
X148238095Y-60502438D01*
X148238095Y-60502438D02*
X148285714Y-60550057D01*
X148285714Y-60550057D02*
X148333333Y-60645295D01*
X148333333Y-60645295D02*
X148333333Y-60788152D01*
X148333333Y-60788152D02*
X148285714Y-60883390D01*
X148285714Y-60883390D02*
X148238095Y-60931009D01*
X148238095Y-60931009D02*
X148142857Y-60978628D01*
X148142857Y-60978628D02*
X147761905Y-60978628D01*
X148714286Y-60550057D02*
X148761905Y-60502438D01*
X148761905Y-60502438D02*
X148857143Y-60454819D01*
X148857143Y-60454819D02*
X149095238Y-60454819D01*
X149095238Y-60454819D02*
X149190476Y-60502438D01*
X149190476Y-60502438D02*
X149238095Y-60550057D01*
X149238095Y-60550057D02*
X149285714Y-60645295D01*
X149285714Y-60645295D02*
X149285714Y-60740533D01*
X149285714Y-60740533D02*
X149238095Y-60883390D01*
X149238095Y-60883390D02*
X148666667Y-61454819D01*
X148666667Y-61454819D02*
X149285714Y-61454819D01*
X147124819Y-64845238D02*
X147124819Y-65416666D01*
X147124819Y-65130952D02*
X146124819Y-65130952D01*
X146124819Y-65130952D02*
X146267676Y-65226190D01*
X146267676Y-65226190D02*
X146362914Y-65321428D01*
X146362914Y-65321428D02*
X146410533Y-65416666D01*
X146124819Y-64226190D02*
X146124819Y-64130952D01*
X146124819Y-64130952D02*
X146172438Y-64035714D01*
X146172438Y-64035714D02*
X146220057Y-63988095D01*
X146220057Y-63988095D02*
X146315295Y-63940476D01*
X146315295Y-63940476D02*
X146505771Y-63892857D01*
X146505771Y-63892857D02*
X146743866Y-63892857D01*
X146743866Y-63892857D02*
X146934342Y-63940476D01*
X146934342Y-63940476D02*
X147029580Y-63988095D01*
X147029580Y-63988095D02*
X147077200Y-64035714D01*
X147077200Y-64035714D02*
X147124819Y-64130952D01*
X147124819Y-64130952D02*
X147124819Y-64226190D01*
X147124819Y-64226190D02*
X147077200Y-64321428D01*
X147077200Y-64321428D02*
X147029580Y-64369047D01*
X147029580Y-64369047D02*
X146934342Y-64416666D01*
X146934342Y-64416666D02*
X146743866Y-64464285D01*
X146743866Y-64464285D02*
X146505771Y-64464285D01*
X146505771Y-64464285D02*
X146315295Y-64416666D01*
X146315295Y-64416666D02*
X146220057Y-64369047D01*
X146220057Y-64369047D02*
X146172438Y-64321428D01*
X146172438Y-64321428D02*
X146124819Y-64226190D01*
X147124819Y-63464285D02*
X146124819Y-63464285D01*
X146743866Y-63369047D02*
X147124819Y-63083333D01*
X146458152Y-63083333D02*
X146839104Y-63464285D01*
X146083333Y-81534819D02*
X145750000Y-81058628D01*
X145511905Y-81534819D02*
X145511905Y-80534819D01*
X145511905Y-80534819D02*
X145892857Y-80534819D01*
X145892857Y-80534819D02*
X145988095Y-80582438D01*
X145988095Y-80582438D02*
X146035714Y-80630057D01*
X146035714Y-80630057D02*
X146083333Y-80725295D01*
X146083333Y-80725295D02*
X146083333Y-80868152D01*
X146083333Y-80868152D02*
X146035714Y-80963390D01*
X146035714Y-80963390D02*
X145988095Y-81011009D01*
X145988095Y-81011009D02*
X145892857Y-81058628D01*
X145892857Y-81058628D02*
X145511905Y-81058628D01*
X147035714Y-81534819D02*
X146464286Y-81534819D01*
X146750000Y-81534819D02*
X146750000Y-80534819D01*
X146750000Y-80534819D02*
X146654762Y-80677676D01*
X146654762Y-80677676D02*
X146559524Y-80772914D01*
X146559524Y-80772914D02*
X146464286Y-80820533D01*
X144988095Y-77208152D02*
X144988095Y-77874819D01*
X144750000Y-76827200D02*
X144511905Y-77541485D01*
X144511905Y-77541485D02*
X145130952Y-77541485D01*
X145416667Y-76874819D02*
X146083333Y-76874819D01*
X146083333Y-76874819D02*
X145654762Y-77874819D01*
X146654762Y-76874819D02*
X146750000Y-76874819D01*
X146750000Y-76874819D02*
X146845238Y-76922438D01*
X146845238Y-76922438D02*
X146892857Y-76970057D01*
X146892857Y-76970057D02*
X146940476Y-77065295D01*
X146940476Y-77065295D02*
X146988095Y-77255771D01*
X146988095Y-77255771D02*
X146988095Y-77493866D01*
X146988095Y-77493866D02*
X146940476Y-77684342D01*
X146940476Y-77684342D02*
X146892857Y-77779580D01*
X146892857Y-77779580D02*
X146845238Y-77827200D01*
X146845238Y-77827200D02*
X146750000Y-77874819D01*
X146750000Y-77874819D02*
X146654762Y-77874819D01*
X146654762Y-77874819D02*
X146559524Y-77827200D01*
X146559524Y-77827200D02*
X146511905Y-77779580D01*
X146511905Y-77779580D02*
X146464286Y-77684342D01*
X146464286Y-77684342D02*
X146416667Y-77493866D01*
X146416667Y-77493866D02*
X146416667Y-77255771D01*
X146416667Y-77255771D02*
X146464286Y-77065295D01*
X146464286Y-77065295D02*
X146511905Y-76970057D01*
X146511905Y-76970057D02*
X146559524Y-76922438D01*
X146559524Y-76922438D02*
X146654762Y-76874819D01*
X124988095Y-81002438D02*
X124892857Y-80954819D01*
X124892857Y-80954819D02*
X124750000Y-80954819D01*
X124750000Y-80954819D02*
X124607143Y-81002438D01*
X124607143Y-81002438D02*
X124511905Y-81097676D01*
X124511905Y-81097676D02*
X124464286Y-81192914D01*
X124464286Y-81192914D02*
X124416667Y-81383390D01*
X124416667Y-81383390D02*
X124416667Y-81526247D01*
X124416667Y-81526247D02*
X124464286Y-81716723D01*
X124464286Y-81716723D02*
X124511905Y-81811961D01*
X124511905Y-81811961D02*
X124607143Y-81907200D01*
X124607143Y-81907200D02*
X124750000Y-81954819D01*
X124750000Y-81954819D02*
X124845238Y-81954819D01*
X124845238Y-81954819D02*
X124988095Y-81907200D01*
X124988095Y-81907200D02*
X125035714Y-81859580D01*
X125035714Y-81859580D02*
X125035714Y-81526247D01*
X125035714Y-81526247D02*
X124845238Y-81526247D01*
X125464286Y-81954819D02*
X125464286Y-80954819D01*
X125464286Y-80954819D02*
X126035714Y-81954819D01*
X126035714Y-81954819D02*
X126035714Y-80954819D01*
X126511905Y-81954819D02*
X126511905Y-80954819D01*
X126511905Y-80954819D02*
X126750000Y-80954819D01*
X126750000Y-80954819D02*
X126892857Y-81002438D01*
X126892857Y-81002438D02*
X126988095Y-81097676D01*
X126988095Y-81097676D02*
X127035714Y-81192914D01*
X127035714Y-81192914D02*
X127083333Y-81383390D01*
X127083333Y-81383390D02*
X127083333Y-81526247D01*
X127083333Y-81526247D02*
X127035714Y-81716723D01*
X127035714Y-81716723D02*
X126988095Y-81811961D01*
X126988095Y-81811961D02*
X126892857Y-81907200D01*
X126892857Y-81907200D02*
X126750000Y-81954819D01*
X126750000Y-81954819D02*
X126511905Y-81954819D01*
X162204819Y-67488094D02*
X161204819Y-67488094D01*
X161204819Y-67488094D02*
X161204819Y-67107142D01*
X161204819Y-67107142D02*
X161252438Y-67011904D01*
X161252438Y-67011904D02*
X161300057Y-66964285D01*
X161300057Y-66964285D02*
X161395295Y-66916666D01*
X161395295Y-66916666D02*
X161538152Y-66916666D01*
X161538152Y-66916666D02*
X161633390Y-66964285D01*
X161633390Y-66964285D02*
X161681009Y-67011904D01*
X161681009Y-67011904D02*
X161728628Y-67107142D01*
X161728628Y-67107142D02*
X161728628Y-67488094D01*
X161681009Y-66154761D02*
X161728628Y-66011904D01*
X161728628Y-66011904D02*
X161776247Y-65964285D01*
X161776247Y-65964285D02*
X161871485Y-65916666D01*
X161871485Y-65916666D02*
X162014342Y-65916666D01*
X162014342Y-65916666D02*
X162109580Y-65964285D01*
X162109580Y-65964285D02*
X162157200Y-66011904D01*
X162157200Y-66011904D02*
X162204819Y-66107142D01*
X162204819Y-66107142D02*
X162204819Y-66488094D01*
X162204819Y-66488094D02*
X161204819Y-66488094D01*
X161204819Y-66488094D02*
X161204819Y-66154761D01*
X161204819Y-66154761D02*
X161252438Y-66059523D01*
X161252438Y-66059523D02*
X161300057Y-66011904D01*
X161300057Y-66011904D02*
X161395295Y-65964285D01*
X161395295Y-65964285D02*
X161490533Y-65964285D01*
X161490533Y-65964285D02*
X161585771Y-66011904D01*
X161585771Y-66011904D02*
X161633390Y-66059523D01*
X161633390Y-66059523D02*
X161681009Y-66154761D01*
X161681009Y-66154761D02*
X161681009Y-66488094D01*
X161204819Y-65583332D02*
X161204819Y-64964285D01*
X161204819Y-64964285D02*
X161585771Y-65297618D01*
X161585771Y-65297618D02*
X161585771Y-65154761D01*
X161585771Y-65154761D02*
X161633390Y-65059523D01*
X161633390Y-65059523D02*
X161681009Y-65011904D01*
X161681009Y-65011904D02*
X161776247Y-64964285D01*
X161776247Y-64964285D02*
X162014342Y-64964285D01*
X162014342Y-64964285D02*
X162109580Y-65011904D01*
X162109580Y-65011904D02*
X162157200Y-65059523D01*
X162157200Y-65059523D02*
X162204819Y-65154761D01*
X162204819Y-65154761D02*
X162204819Y-65440475D01*
X162204819Y-65440475D02*
X162157200Y-65535713D01*
X162157200Y-65535713D02*
X162109580Y-65583332D01*
X149702380Y-71454819D02*
X149369047Y-70978628D01*
X149130952Y-71454819D02*
X149130952Y-70454819D01*
X149130952Y-70454819D02*
X149511904Y-70454819D01*
X149511904Y-70454819D02*
X149607142Y-70502438D01*
X149607142Y-70502438D02*
X149654761Y-70550057D01*
X149654761Y-70550057D02*
X149702380Y-70645295D01*
X149702380Y-70645295D02*
X149702380Y-70788152D01*
X149702380Y-70788152D02*
X149654761Y-70883390D01*
X149654761Y-70883390D02*
X149607142Y-70931009D01*
X149607142Y-70931009D02*
X149511904Y-70978628D01*
X149511904Y-70978628D02*
X149130952Y-70978628D01*
X150083333Y-71407200D02*
X150226190Y-71454819D01*
X150226190Y-71454819D02*
X150464285Y-71454819D01*
X150464285Y-71454819D02*
X150559523Y-71407200D01*
X150559523Y-71407200D02*
X150607142Y-71359580D01*
X150607142Y-71359580D02*
X150654761Y-71264342D01*
X150654761Y-71264342D02*
X150654761Y-71169104D01*
X150654761Y-71169104D02*
X150607142Y-71073866D01*
X150607142Y-71073866D02*
X150559523Y-71026247D01*
X150559523Y-71026247D02*
X150464285Y-70978628D01*
X150464285Y-70978628D02*
X150273809Y-70931009D01*
X150273809Y-70931009D02*
X150178571Y-70883390D01*
X150178571Y-70883390D02*
X150130952Y-70835771D01*
X150130952Y-70835771D02*
X150083333Y-70740533D01*
X150083333Y-70740533D02*
X150083333Y-70645295D01*
X150083333Y-70645295D02*
X150130952Y-70550057D01*
X150130952Y-70550057D02*
X150178571Y-70502438D01*
X150178571Y-70502438D02*
X150273809Y-70454819D01*
X150273809Y-70454819D02*
X150511904Y-70454819D01*
X150511904Y-70454819D02*
X150654761Y-70502438D01*
X150940476Y-70454819D02*
X151511904Y-70454819D01*
X151226190Y-71454819D02*
X151226190Y-70454819D01*
X151157200Y-65535713D02*
X151204819Y-65392856D01*
X151204819Y-65392856D02*
X151204819Y-65154761D01*
X151204819Y-65154761D02*
X151157200Y-65059523D01*
X151157200Y-65059523D02*
X151109580Y-65011904D01*
X151109580Y-65011904D02*
X151014342Y-64964285D01*
X151014342Y-64964285D02*
X150919104Y-64964285D01*
X150919104Y-64964285D02*
X150823866Y-65011904D01*
X150823866Y-65011904D02*
X150776247Y-65059523D01*
X150776247Y-65059523D02*
X150728628Y-65154761D01*
X150728628Y-65154761D02*
X150681009Y-65345237D01*
X150681009Y-65345237D02*
X150633390Y-65440475D01*
X150633390Y-65440475D02*
X150585771Y-65488094D01*
X150585771Y-65488094D02*
X150490533Y-65535713D01*
X150490533Y-65535713D02*
X150395295Y-65535713D01*
X150395295Y-65535713D02*
X150300057Y-65488094D01*
X150300057Y-65488094D02*
X150252438Y-65440475D01*
X150252438Y-65440475D02*
X150204819Y-65345237D01*
X150204819Y-65345237D02*
X150204819Y-65107142D01*
X150204819Y-65107142D02*
X150252438Y-64964285D01*
X151109580Y-63964285D02*
X151157200Y-64011904D01*
X151157200Y-64011904D02*
X151204819Y-64154761D01*
X151204819Y-64154761D02*
X151204819Y-64249999D01*
X151204819Y-64249999D02*
X151157200Y-64392856D01*
X151157200Y-64392856D02*
X151061961Y-64488094D01*
X151061961Y-64488094D02*
X150966723Y-64535713D01*
X150966723Y-64535713D02*
X150776247Y-64583332D01*
X150776247Y-64583332D02*
X150633390Y-64583332D01*
X150633390Y-64583332D02*
X150442914Y-64535713D01*
X150442914Y-64535713D02*
X150347676Y-64488094D01*
X150347676Y-64488094D02*
X150252438Y-64392856D01*
X150252438Y-64392856D02*
X150204819Y-64249999D01*
X150204819Y-64249999D02*
X150204819Y-64154761D01*
X150204819Y-64154761D02*
X150252438Y-64011904D01*
X150252438Y-64011904D02*
X150300057Y-63964285D01*
X151204819Y-63535713D02*
X150204819Y-63535713D01*
X151204819Y-62964285D02*
X150633390Y-63392856D01*
X150204819Y-62964285D02*
X150776247Y-63535713D01*
X157186666Y-59704819D02*
X157186666Y-60419104D01*
X157186666Y-60419104D02*
X157139047Y-60561961D01*
X157139047Y-60561961D02*
X157043809Y-60657200D01*
X157043809Y-60657200D02*
X156900952Y-60704819D01*
X156900952Y-60704819D02*
X156805714Y-60704819D01*
X157615238Y-59800057D02*
X157662857Y-59752438D01*
X157662857Y-59752438D02*
X157758095Y-59704819D01*
X157758095Y-59704819D02*
X157996190Y-59704819D01*
X157996190Y-59704819D02*
X158091428Y-59752438D01*
X158091428Y-59752438D02*
X158139047Y-59800057D01*
X158139047Y-59800057D02*
X158186666Y-59895295D01*
X158186666Y-59895295D02*
X158186666Y-59990533D01*
X158186666Y-59990533D02*
X158139047Y-60133390D01*
X158139047Y-60133390D02*
X157567619Y-60704819D01*
X157567619Y-60704819D02*
X158186666Y-60704819D01*
X161428572Y-61704819D02*
X161428572Y-60704819D01*
X161857143Y-61657200D02*
X162000000Y-61704819D01*
X162000000Y-61704819D02*
X162238095Y-61704819D01*
X162238095Y-61704819D02*
X162333333Y-61657200D01*
X162333333Y-61657200D02*
X162380952Y-61609580D01*
X162380952Y-61609580D02*
X162428571Y-61514342D01*
X162428571Y-61514342D02*
X162428571Y-61419104D01*
X162428571Y-61419104D02*
X162380952Y-61323866D01*
X162380952Y-61323866D02*
X162333333Y-61276247D01*
X162333333Y-61276247D02*
X162238095Y-61228628D01*
X162238095Y-61228628D02*
X162047619Y-61181009D01*
X162047619Y-61181009D02*
X161952381Y-61133390D01*
X161952381Y-61133390D02*
X161904762Y-61085771D01*
X161904762Y-61085771D02*
X161857143Y-60990533D01*
X161857143Y-60990533D02*
X161857143Y-60895295D01*
X161857143Y-60895295D02*
X161904762Y-60800057D01*
X161904762Y-60800057D02*
X161952381Y-60752438D01*
X161952381Y-60752438D02*
X162047619Y-60704819D01*
X162047619Y-60704819D02*
X162285714Y-60704819D01*
X162285714Y-60704819D02*
X162428571Y-60752438D01*
X162857143Y-61704819D02*
X162857143Y-60704819D01*
X162857143Y-60704819D02*
X163238095Y-60704819D01*
X163238095Y-60704819D02*
X163333333Y-60752438D01*
X163333333Y-60752438D02*
X163380952Y-60800057D01*
X163380952Y-60800057D02*
X163428571Y-60895295D01*
X163428571Y-60895295D02*
X163428571Y-61038152D01*
X163428571Y-61038152D02*
X163380952Y-61133390D01*
X163380952Y-61133390D02*
X163333333Y-61181009D01*
X163333333Y-61181009D02*
X163238095Y-61228628D01*
X163238095Y-61228628D02*
X162857143Y-61228628D01*
X163857143Y-61323866D02*
X164619048Y-61323866D01*
X165523809Y-60704819D02*
X165333333Y-60704819D01*
X165333333Y-60704819D02*
X165238095Y-60752438D01*
X165238095Y-60752438D02*
X165190476Y-60800057D01*
X165190476Y-60800057D02*
X165095238Y-60942914D01*
X165095238Y-60942914D02*
X165047619Y-61133390D01*
X165047619Y-61133390D02*
X165047619Y-61514342D01*
X165047619Y-61514342D02*
X165095238Y-61609580D01*
X165095238Y-61609580D02*
X165142857Y-61657200D01*
X165142857Y-61657200D02*
X165238095Y-61704819D01*
X165238095Y-61704819D02*
X165428571Y-61704819D01*
X165428571Y-61704819D02*
X165523809Y-61657200D01*
X165523809Y-61657200D02*
X165571428Y-61609580D01*
X165571428Y-61609580D02*
X165619047Y-61514342D01*
X165619047Y-61514342D02*
X165619047Y-61276247D01*
X165619047Y-61276247D02*
X165571428Y-61181009D01*
X165571428Y-61181009D02*
X165523809Y-61133390D01*
X165523809Y-61133390D02*
X165428571Y-61085771D01*
X165428571Y-61085771D02*
X165238095Y-61085771D01*
X165238095Y-61085771D02*
X165142857Y-61133390D01*
X165142857Y-61133390D02*
X165095238Y-61181009D01*
X165095238Y-61181009D02*
X165047619Y-61276247D01*
X134352319Y-74043333D02*
X135066604Y-74043333D01*
X135066604Y-74043333D02*
X135209461Y-74090952D01*
X135209461Y-74090952D02*
X135304700Y-74186190D01*
X135304700Y-74186190D02*
X135352319Y-74329047D01*
X135352319Y-74329047D02*
X135352319Y-74424285D01*
X135352319Y-73043333D02*
X135352319Y-73614761D01*
X135352319Y-73329047D02*
X134352319Y-73329047D01*
X134352319Y-73329047D02*
X134495176Y-73424285D01*
X134495176Y-73424285D02*
X134590414Y-73519523D01*
X134590414Y-73519523D02*
X134638033Y-73614761D01*
X140959580Y-64416666D02*
X141007200Y-64464285D01*
X141007200Y-64464285D02*
X141054819Y-64607142D01*
X141054819Y-64607142D02*
X141054819Y-64702380D01*
X141054819Y-64702380D02*
X141007200Y-64845237D01*
X141007200Y-64845237D02*
X140911961Y-64940475D01*
X140911961Y-64940475D02*
X140816723Y-64988094D01*
X140816723Y-64988094D02*
X140626247Y-65035713D01*
X140626247Y-65035713D02*
X140483390Y-65035713D01*
X140483390Y-65035713D02*
X140292914Y-64988094D01*
X140292914Y-64988094D02*
X140197676Y-64940475D01*
X140197676Y-64940475D02*
X140102438Y-64845237D01*
X140102438Y-64845237D02*
X140054819Y-64702380D01*
X140054819Y-64702380D02*
X140054819Y-64607142D01*
X140054819Y-64607142D02*
X140102438Y-64464285D01*
X140102438Y-64464285D02*
X140150057Y-64416666D01*
X141054819Y-63464285D02*
X141054819Y-64035713D01*
X141054819Y-63749999D02*
X140054819Y-63749999D01*
X140054819Y-63749999D02*
X140197676Y-63845237D01*
X140197676Y-63845237D02*
X140292914Y-63940475D01*
X140292914Y-63940475D02*
X140340533Y-64035713D01*
X137204819Y-64202381D02*
X137204819Y-64773809D01*
X137204819Y-64488095D02*
X136204819Y-64488095D01*
X136204819Y-64488095D02*
X136347676Y-64583333D01*
X136347676Y-64583333D02*
X136442914Y-64678571D01*
X136442914Y-64678571D02*
X136490533Y-64773809D01*
X136204819Y-63583333D02*
X136204819Y-63488095D01*
X136204819Y-63488095D02*
X136252438Y-63392857D01*
X136252438Y-63392857D02*
X136300057Y-63345238D01*
X136300057Y-63345238D02*
X136395295Y-63297619D01*
X136395295Y-63297619D02*
X136585771Y-63250000D01*
X136585771Y-63250000D02*
X136823866Y-63250000D01*
X136823866Y-63250000D02*
X137014342Y-63297619D01*
X137014342Y-63297619D02*
X137109580Y-63345238D01*
X137109580Y-63345238D02*
X137157200Y-63392857D01*
X137157200Y-63392857D02*
X137204819Y-63488095D01*
X137204819Y-63488095D02*
X137204819Y-63583333D01*
X137204819Y-63583333D02*
X137157200Y-63678571D01*
X137157200Y-63678571D02*
X137109580Y-63726190D01*
X137109580Y-63726190D02*
X137014342Y-63773809D01*
X137014342Y-63773809D02*
X136823866Y-63821428D01*
X136823866Y-63821428D02*
X136585771Y-63821428D01*
X136585771Y-63821428D02*
X136395295Y-63773809D01*
X136395295Y-63773809D02*
X136300057Y-63726190D01*
X136300057Y-63726190D02*
X136252438Y-63678571D01*
X136252438Y-63678571D02*
X136204819Y-63583333D01*
X136538152Y-61630952D02*
X137204819Y-61630952D01*
X136538152Y-62059523D02*
X137061961Y-62059523D01*
X137061961Y-62059523D02*
X137157200Y-62011904D01*
X137157200Y-62011904D02*
X137204819Y-61916666D01*
X137204819Y-61916666D02*
X137204819Y-61773809D01*
X137204819Y-61773809D02*
X137157200Y-61678571D01*
X137157200Y-61678571D02*
X137109580Y-61630952D01*
X136681009Y-60821428D02*
X136681009Y-61154761D01*
X137204819Y-61154761D02*
X136204819Y-61154761D01*
X136204819Y-61154761D02*
X136204819Y-60678571D01*
%TO.C,TP8*%
D12*
X163700000Y-77750000D02*
G75*
G02*
X161800000Y-77750000I-950000J0D01*
G01*
X161800000Y-77750000D02*
G75*
G02*
X163700000Y-77750000I950000J0D01*
G01*
%TO.C,U1*%
X153940000Y-72440000D02*
X158060000Y-72440000D01*
X153940000Y-72535000D02*
X153940000Y-72440000D01*
X153940000Y-77560000D02*
X153940000Y-77465000D01*
X158060000Y-72440000D02*
X158060000Y-72535000D01*
X158060000Y-77465000D02*
X158060000Y-77560000D01*
X158060000Y-77560000D02*
X153940000Y-77560000D01*
X153400000Y-72530000D02*
X153160000Y-72200000D01*
X153640000Y-72200000D01*
X153400000Y-72530000D01*
G36*
X153400000Y-72530000D02*
G01*
X153160000Y-72200000D01*
X153640000Y-72200000D01*
X153400000Y-72530000D01*
G37*
%TO.C,D2*%
X137290000Y-78115000D02*
X137290000Y-80385000D01*
X137290000Y-80385000D02*
X141350000Y-80385000D01*
X141350000Y-78115000D02*
X137290000Y-78115000D01*
%TO.C,TP2*%
X150200000Y-75750000D02*
G75*
G02*
X148300000Y-75750000I-950000J0D01*
G01*
X148300000Y-75750000D02*
G75*
G02*
X150200000Y-75750000I950000J0D01*
G01*
%TO.C,D1*%
X135010000Y-61100000D02*
X128000000Y-61100000D01*
X135010000Y-64400000D02*
X128000000Y-64400000D01*
X135010000Y-64400000D02*
X135010000Y-61100000D01*
%TO.C,TP3*%
X144700000Y-62500000D02*
G75*
G02*
X142800000Y-62500000I-950000J0D01*
G01*
X142800000Y-62500000D02*
G75*
G02*
X144700000Y-62500000I950000J0D01*
G01*
%TO.C,TP7*%
X163200000Y-74750000D02*
G75*
G02*
X161300000Y-74750000I-950000J0D01*
G01*
X161300000Y-74750000D02*
G75*
G02*
X163200000Y-74750000I950000J0D01*
G01*
%TO.C,J3*%
X167120000Y-78020000D02*
X167120000Y-65210000D01*
X169880000Y-65210000D02*
X167120000Y-65210000D01*
X169880000Y-78020000D02*
X167120000Y-78020000D01*
X169880000Y-78020000D02*
X169880000Y-65210000D01*
X169880000Y-79290000D02*
X169880000Y-80670000D01*
X169880000Y-80670000D02*
X168500000Y-80670000D01*
%TO.C,SW1*%
X141050000Y-68800000D02*
X141050000Y-73700000D01*
X141050000Y-68800000D02*
X141100000Y-68800000D01*
X141050000Y-73700000D02*
X141100000Y-73700000D01*
X144250000Y-68800000D02*
X142750000Y-68800000D01*
X144250000Y-73700000D02*
X142750000Y-73700000D01*
X145950000Y-68800000D02*
X145900000Y-68800000D01*
X145950000Y-68800000D02*
X145950000Y-73700000D01*
X145950000Y-73700000D02*
X145900000Y-73700000D01*
%TO.C,C2*%
X155538748Y-79590000D02*
X156961252Y-79590000D01*
X155538748Y-81410000D02*
X156961252Y-81410000D01*
%TO.C,TP1*%
X126200000Y-66500000D02*
G75*
G02*
X124300000Y-66500000I-950000J0D01*
G01*
X124300000Y-66500000D02*
G75*
G02*
X126200000Y-66500000I950000J0D01*
G01*
%TO.C,R2*%
X147590000Y-63522936D02*
X147590000Y-64977064D01*
X149410000Y-63522936D02*
X149410000Y-64977064D01*
%TO.C,R1*%
X146977064Y-78340000D02*
X145522936Y-78340000D01*
X146977064Y-80160000D02*
X145522936Y-80160000D01*
%TO.C,TP9*%
X129725000Y-81525000D02*
G75*
G02*
X127825000Y-81525000I-950000J0D01*
G01*
X127825000Y-81525000D02*
G75*
G02*
X129725000Y-81525000I950000J0D01*
G01*
%TO.C,TP5*%
X164700000Y-68000000D02*
G75*
G02*
X162800000Y-68000000I-950000J0D01*
G01*
X162800000Y-68000000D02*
G75*
G02*
X164700000Y-68000000I950000J0D01*
G01*
%TO.C,TP4*%
X151200000Y-69250000D02*
G75*
G02*
X149300000Y-69250000I-950000J0D01*
G01*
X149300000Y-69250000D02*
G75*
G02*
X151200000Y-69250000I950000J0D01*
G01*
%TO.C,TP6*%
X153700000Y-65000000D02*
G75*
G02*
X151800000Y-65000000I-950000J0D01*
G01*
X151800000Y-65000000D02*
G75*
G02*
X153700000Y-65000000I950000J0D01*
G01*
%TO.C,J2*%
X154870000Y-61040000D02*
X156250000Y-61040000D01*
X154870000Y-62420000D02*
X154870000Y-61040000D01*
X154870000Y-63690000D02*
X154870000Y-68880000D01*
X154870000Y-63690000D02*
X157520000Y-63690000D01*
X154870000Y-68880000D02*
X160170000Y-68880000D01*
X157520000Y-61040000D02*
X160170000Y-61040000D01*
X157520000Y-63690000D02*
X157520000Y-61040000D01*
X160170000Y-61040000D02*
X160170000Y-68880000D01*
%TO.C,J1*%
X123857500Y-68510000D02*
X133897500Y-68510000D01*
X123857500Y-70870000D02*
X123857500Y-68510000D01*
X123857500Y-78910000D02*
X123857500Y-71470000D01*
X124477500Y-68510000D02*
X124477500Y-78910000D01*
X125977500Y-68510000D02*
X125977500Y-78910000D01*
X130877500Y-68510000D02*
X130877500Y-78910000D01*
X133897500Y-68510000D02*
X133897500Y-78910000D01*
X133897500Y-78910000D02*
X123857500Y-78910000D01*
X123857500Y-71170000D02*
X123247500Y-71610000D01*
X123247500Y-70730000D01*
X123857500Y-71170000D01*
G36*
X123857500Y-71170000D02*
G01*
X123247500Y-71610000D01*
X123247500Y-70730000D01*
X123857500Y-71170000D01*
G37*
%TO.C,C1*%
X137840000Y-63538748D02*
X137840000Y-64961252D01*
X139660000Y-63538748D02*
X139660000Y-64961252D01*
%TD*%
M02*
