%TF.GenerationSoftware,KiCad,Pcbnew,10.0.5-10.0.5~ubuntu24.04.1*%
%TF.CreationDate,2026-07-28T01:24:54+02:00*%
%TF.ProjectId,Attiny13A_Devboard_v1_SMD,41747469-6e79-4313-9341-5f446576626f,rev?*%
%TF.SameCoordinates,Original*%
%TF.FileFunction,Soldermask,Top*%
%TF.FilePolarity,Negative*%
%FSLAX46Y46*%
G04 Gerber Fmt 4.6, Leading zero omitted, Abs format (unit mm)*
G04 Created by KiCad (PCBNEW 10.0.5-10.0.5~ubuntu24.04.1) date 2026-07-28 01:24:54*
%MOMM*%
%LPD*%
G01*
G04 APERTURE LIST*
G04 APERTURE END LIST*
G36*
X154960476Y-81741866D02*
G01*
X155084819Y-81813656D01*
X155186344Y-81915181D01*
X155258134Y-82039524D01*
X155295295Y-82178211D01*
X155295295Y-82321789D01*
X155258134Y-82460476D01*
X155186344Y-82584819D01*
X155084819Y-82686344D01*
X154960476Y-82758134D01*
X154821789Y-82795295D01*
X154678211Y-82795295D01*
X154539524Y-82758134D01*
X154415181Y-82686344D01*
X154313656Y-82584819D01*
X154241866Y-82460476D01*
X154204705Y-82321789D01*
X154204705Y-82178211D01*
X154241866Y-82039524D01*
X154313656Y-81915181D01*
X154415181Y-81813656D01*
X154539524Y-81741866D01*
X154678211Y-81704705D01*
X154821789Y-81704705D01*
X154960476Y-81741866D01*
G37*
G36*
X129007228Y-80759448D02*
G01*
X129152117Y-80819463D01*
X129282515Y-80906592D01*
X129393408Y-81017485D01*
X129480537Y-81147883D01*
X129540552Y-81292772D01*
X129571148Y-81446586D01*
X129571148Y-81603414D01*
X129540552Y-81757228D01*
X129480537Y-81902117D01*
X129393408Y-82032515D01*
X129282515Y-82143408D01*
X129152117Y-82230537D01*
X129007228Y-82290552D01*
X128853414Y-82321148D01*
X128696586Y-82321148D01*
X128542772Y-82290552D01*
X128397883Y-82230537D01*
X128267485Y-82143408D01*
X128156592Y-82032515D01*
X128069463Y-81902117D01*
X128009448Y-81757228D01*
X127978852Y-81603414D01*
X127978852Y-81446586D01*
X128009448Y-81292772D01*
X128069463Y-81147883D01*
X128156592Y-81017485D01*
X128267485Y-80906592D01*
X128397883Y-80819463D01*
X128542772Y-80759448D01*
X128696586Y-80728852D01*
X128853414Y-80728852D01*
X129007228Y-80759448D01*
G37*
G36*
X131210476Y-80991866D02*
G01*
X131334819Y-81063656D01*
X131436344Y-81165181D01*
X131508134Y-81289524D01*
X131545295Y-81428211D01*
X131545295Y-81571789D01*
X131508134Y-81710476D01*
X131436344Y-81834819D01*
X131334819Y-81936344D01*
X131210476Y-82008134D01*
X131071789Y-82045295D01*
X130928211Y-82045295D01*
X130789524Y-82008134D01*
X130665181Y-81936344D01*
X130563656Y-81834819D01*
X130491866Y-81710476D01*
X130454705Y-81571789D01*
X130454705Y-81428211D01*
X130491866Y-81289524D01*
X130563656Y-81165181D01*
X130665181Y-81063656D01*
X130789524Y-80991866D01*
X130928211Y-80954705D01*
X131071789Y-80954705D01*
X131210476Y-80991866D01*
G37*
G36*
X138460476Y-80741866D02*
G01*
X138584819Y-80813656D01*
X138686344Y-80915181D01*
X138758134Y-81039524D01*
X138795295Y-81178211D01*
X138795295Y-81321789D01*
X138758134Y-81460476D01*
X138686344Y-81584819D01*
X138584819Y-81686344D01*
X138460476Y-81758134D01*
X138321789Y-81795295D01*
X138178211Y-81795295D01*
X138039524Y-81758134D01*
X137915181Y-81686344D01*
X137813656Y-81584819D01*
X137741866Y-81460476D01*
X137704705Y-81321789D01*
X137704705Y-81178211D01*
X137741866Y-81039524D01*
X137813656Y-80915181D01*
X137915181Y-80813656D01*
X138039524Y-80741866D01*
X138178211Y-80704705D01*
X138321789Y-80704705D01*
X138460476Y-80741866D01*
G37*
G36*
X155168685Y-79557969D02*
G01*
X155177358Y-79561798D01*
X155184925Y-79562901D01*
X155232223Y-79586023D01*
X155269541Y-79602501D01*
X155272996Y-79605956D01*
X155273920Y-79606408D01*
X155343591Y-79676079D01*
X155344042Y-79677002D01*
X155347499Y-79680459D01*
X155363978Y-79717782D01*
X155387098Y-79765073D01*
X155388200Y-79772639D01*
X155392031Y-79781315D01*
X155400000Y-79850000D01*
X155400000Y-81150000D01*
X155392031Y-81218685D01*
X155388199Y-81227361D01*
X155387098Y-81234925D01*
X155363985Y-81282202D01*
X155347499Y-81319541D01*
X155344041Y-81322998D01*
X155343591Y-81323920D01*
X155273920Y-81393591D01*
X155272998Y-81394041D01*
X155269541Y-81397499D01*
X155232207Y-81413983D01*
X155184926Y-81437098D01*
X155177361Y-81438200D01*
X155168685Y-81442031D01*
X155100000Y-81450000D01*
X154275000Y-81450000D01*
X154206315Y-81442031D01*
X154197638Y-81438200D01*
X154190074Y-81437098D01*
X154142787Y-81413981D01*
X154105459Y-81397499D01*
X154102002Y-81394042D01*
X154101079Y-81393591D01*
X154031408Y-81323920D01*
X154030956Y-81322996D01*
X154027501Y-81319541D01*
X154011025Y-81282228D01*
X153987901Y-81234926D01*
X153986798Y-81227357D01*
X153982969Y-81218685D01*
X153975000Y-81150000D01*
X153975000Y-79850000D01*
X153982969Y-79781315D01*
X153986798Y-79772642D01*
X153987901Y-79765074D01*
X154011028Y-79717766D01*
X154027501Y-79680459D01*
X154030955Y-79677004D01*
X154031408Y-79676079D01*
X154101079Y-79606408D01*
X154102004Y-79605955D01*
X154105459Y-79602501D01*
X154142761Y-79586030D01*
X154190073Y-79562901D01*
X154197642Y-79561798D01*
X154206315Y-79557969D01*
X154275000Y-79550000D01*
X155100000Y-79550000D01*
X155168685Y-79557969D01*
G37*
G36*
X158293685Y-79557969D02*
G01*
X158302358Y-79561798D01*
X158309925Y-79562901D01*
X158357223Y-79586023D01*
X158394541Y-79602501D01*
X158397996Y-79605956D01*
X158398920Y-79606408D01*
X158468591Y-79676079D01*
X158469042Y-79677002D01*
X158472499Y-79680459D01*
X158488978Y-79717782D01*
X158512098Y-79765073D01*
X158513200Y-79772639D01*
X158517031Y-79781315D01*
X158525000Y-79850000D01*
X158525000Y-81150000D01*
X158517031Y-81218685D01*
X158513199Y-81227361D01*
X158512098Y-81234925D01*
X158488985Y-81282202D01*
X158472499Y-81319541D01*
X158469041Y-81322998D01*
X158468591Y-81323920D01*
X158398920Y-81393591D01*
X158397998Y-81394041D01*
X158394541Y-81397499D01*
X158357207Y-81413983D01*
X158309926Y-81437098D01*
X158302361Y-81438200D01*
X158293685Y-81442031D01*
X158225000Y-81450000D01*
X157400000Y-81450000D01*
X157331315Y-81442031D01*
X157322638Y-81438200D01*
X157315074Y-81437098D01*
X157267787Y-81413981D01*
X157230459Y-81397499D01*
X157227002Y-81394042D01*
X157226079Y-81393591D01*
X157156408Y-81323920D01*
X157155956Y-81322996D01*
X157152501Y-81319541D01*
X157136025Y-81282228D01*
X157112901Y-81234926D01*
X157111798Y-81227357D01*
X157107969Y-81218685D01*
X157100000Y-81150000D01*
X157100000Y-79850000D01*
X157107969Y-79781315D01*
X157111798Y-79772642D01*
X157112901Y-79765074D01*
X157136028Y-79717766D01*
X157152501Y-79680459D01*
X157155955Y-79677004D01*
X157156408Y-79676079D01*
X157226079Y-79606408D01*
X157227004Y-79605955D01*
X157230459Y-79602501D01*
X157267761Y-79586030D01*
X157315073Y-79562901D01*
X157322642Y-79561798D01*
X157331315Y-79557969D01*
X157400000Y-79550000D01*
X158225000Y-79550000D01*
X158293685Y-79557969D01*
G37*
G36*
X153210476Y-79991866D02*
G01*
X153334819Y-80063656D01*
X153436344Y-80165181D01*
X153508134Y-80289524D01*
X153545295Y-80428211D01*
X153545295Y-80571789D01*
X153508134Y-80710476D01*
X153436344Y-80834819D01*
X153334819Y-80936344D01*
X153210476Y-81008134D01*
X153071789Y-81045295D01*
X152928211Y-81045295D01*
X152789524Y-81008134D01*
X152665181Y-80936344D01*
X152563656Y-80834819D01*
X152491866Y-80710476D01*
X152454705Y-80571789D01*
X152454705Y-80428211D01*
X152491866Y-80289524D01*
X152563656Y-80165181D01*
X152665181Y-80063656D01*
X152789524Y-79991866D01*
X152928211Y-79954705D01*
X153071789Y-79954705D01*
X153210476Y-79991866D01*
G37*
G36*
X169369134Y-78393806D02*
G01*
X169385355Y-78404645D01*
X169396194Y-78420866D01*
X169400000Y-78440000D01*
X169400000Y-80140000D01*
X169396194Y-80159134D01*
X169385355Y-80175355D01*
X169369134Y-80186194D01*
X169350000Y-80190000D01*
X167650000Y-80190000D01*
X167630866Y-80186194D01*
X167614645Y-80175355D01*
X167603806Y-80159134D01*
X167600000Y-80140000D01*
X167600000Y-78440000D01*
X167603806Y-78420866D01*
X167614645Y-78404645D01*
X167630866Y-78393806D01*
X167650000Y-78390000D01*
X169350000Y-78390000D01*
X169369134Y-78393806D01*
G37*
G36*
X138793684Y-78332969D02*
G01*
X138802356Y-78336798D01*
X138809925Y-78337901D01*
X138857232Y-78361028D01*
X138894540Y-78377501D01*
X138897994Y-78380955D01*
X138898920Y-78381408D01*
X138968591Y-78451079D01*
X138969043Y-78452004D01*
X138972499Y-78455460D01*
X138988976Y-78492778D01*
X139012098Y-78540074D01*
X139013200Y-78547640D01*
X139017031Y-78556316D01*
X139024999Y-78625002D01*
X139024999Y-78628619D01*
X139025000Y-78628626D01*
X139025000Y-79321734D01*
X139025000Y-79874999D01*
X139017031Y-79943684D01*
X139013200Y-79952359D01*
X139012098Y-79959925D01*
X138988981Y-80007211D01*
X138972499Y-80044540D01*
X138969042Y-80047996D01*
X138968591Y-80048920D01*
X138898920Y-80118591D01*
X138897996Y-80119042D01*
X138894540Y-80122499D01*
X138857211Y-80138981D01*
X138809925Y-80162098D01*
X138802359Y-80163200D01*
X138793684Y-80167031D01*
X138724998Y-80174999D01*
X138721380Y-80174999D01*
X138721374Y-80175000D01*
X137803626Y-80175000D01*
X137803625Y-80174999D01*
X137800001Y-80175000D01*
X137731316Y-80167031D01*
X137722640Y-80163200D01*
X137715074Y-80162098D01*
X137667778Y-80138976D01*
X137630460Y-80122499D01*
X137627004Y-80119043D01*
X137626079Y-80118591D01*
X137556408Y-80048920D01*
X137555955Y-80047994D01*
X137552501Y-80044540D01*
X137536028Y-80007232D01*
X137512901Y-79959925D01*
X137511798Y-79952356D01*
X137507969Y-79943684D01*
X137500001Y-79874998D01*
X137500000Y-79871379D01*
X137500000Y-79871373D01*
X137500000Y-78628626D01*
X137500000Y-78628625D01*
X137500000Y-78625001D01*
X137507969Y-78556316D01*
X137511798Y-78547643D01*
X137512901Y-78540074D01*
X137536032Y-78492757D01*
X137552501Y-78455460D01*
X137555954Y-78452006D01*
X137556408Y-78451079D01*
X137626079Y-78381408D01*
X137627006Y-78380954D01*
X137630460Y-78377501D01*
X137667757Y-78361032D01*
X137715074Y-78337901D01*
X137722643Y-78336798D01*
X137731316Y-78332969D01*
X137800002Y-78325001D01*
X137803619Y-78325000D01*
X137803626Y-78325000D01*
X138721374Y-78325000D01*
X138724999Y-78325000D01*
X138793684Y-78332969D01*
G37*
G36*
X141768684Y-78332969D02*
G01*
X141777356Y-78336798D01*
X141784925Y-78337901D01*
X141832232Y-78361028D01*
X141869540Y-78377501D01*
X141872994Y-78380955D01*
X141873920Y-78381408D01*
X141943591Y-78451079D01*
X141944043Y-78452004D01*
X141947499Y-78455460D01*
X141963976Y-78492778D01*
X141987098Y-78540074D01*
X141988200Y-78547640D01*
X141992031Y-78556316D01*
X141999999Y-78625002D01*
X141999999Y-78628619D01*
X142000000Y-78628626D01*
X142000000Y-79321734D01*
X142000000Y-79874999D01*
X141992031Y-79943684D01*
X141988200Y-79952359D01*
X141987098Y-79959925D01*
X141963981Y-80007211D01*
X141947499Y-80044540D01*
X141944042Y-80047996D01*
X141943591Y-80048920D01*
X141873920Y-80118591D01*
X141872996Y-80119042D01*
X141869540Y-80122499D01*
X141832211Y-80138981D01*
X141784925Y-80162098D01*
X141777359Y-80163200D01*
X141768684Y-80167031D01*
X141699998Y-80174999D01*
X141696380Y-80174999D01*
X141696374Y-80175000D01*
X140778626Y-80175000D01*
X140778625Y-80174999D01*
X140775001Y-80175000D01*
X140706316Y-80167031D01*
X140697640Y-80163200D01*
X140690074Y-80162098D01*
X140642778Y-80138976D01*
X140605460Y-80122499D01*
X140602004Y-80119043D01*
X140601079Y-80118591D01*
X140531408Y-80048920D01*
X140530955Y-80047994D01*
X140527501Y-80044540D01*
X140511028Y-80007232D01*
X140487901Y-79959925D01*
X140486798Y-79952356D01*
X140482969Y-79943684D01*
X140475001Y-79874998D01*
X140475000Y-79871379D01*
X140475000Y-79871373D01*
X140475000Y-78628626D01*
X140475000Y-78628625D01*
X140475000Y-78625001D01*
X140482969Y-78556316D01*
X140486798Y-78547643D01*
X140487901Y-78540074D01*
X140511032Y-78492757D01*
X140527501Y-78455460D01*
X140530954Y-78452006D01*
X140531408Y-78451079D01*
X140601079Y-78381408D01*
X140602006Y-78380954D01*
X140605460Y-78377501D01*
X140642757Y-78361032D01*
X140690074Y-78337901D01*
X140697643Y-78336798D01*
X140706316Y-78332969D01*
X140775002Y-78325001D01*
X140778619Y-78325000D01*
X140778626Y-78325000D01*
X141696374Y-78325000D01*
X141699999Y-78325000D01*
X141768684Y-78332969D01*
G37*
G36*
X145168685Y-78332969D02*
G01*
X145177358Y-78336798D01*
X145184925Y-78337901D01*
X145232223Y-78361023D01*
X145269541Y-78377501D01*
X145272996Y-78380956D01*
X145273920Y-78381408D01*
X145343591Y-78451079D01*
X145344042Y-78452002D01*
X145347499Y-78455459D01*
X145363978Y-78492782D01*
X145387098Y-78540073D01*
X145388200Y-78547639D01*
X145392031Y-78556315D01*
X145400000Y-78625000D01*
X145400000Y-79875000D01*
X145392031Y-79943685D01*
X145388199Y-79952361D01*
X145387098Y-79959925D01*
X145363985Y-80007202D01*
X145347499Y-80044541D01*
X145344041Y-80047998D01*
X145343591Y-80048920D01*
X145273920Y-80118591D01*
X145272998Y-80119041D01*
X145269541Y-80122499D01*
X145232207Y-80138983D01*
X145184926Y-80162098D01*
X145177361Y-80163200D01*
X145168685Y-80167031D01*
X145100000Y-80175000D01*
X144300000Y-80175000D01*
X144231315Y-80167031D01*
X144222638Y-80163200D01*
X144215074Y-80162098D01*
X144167787Y-80138981D01*
X144130459Y-80122499D01*
X144127002Y-80119042D01*
X144126079Y-80118591D01*
X144056408Y-80048920D01*
X144055956Y-80047996D01*
X144052501Y-80044541D01*
X144036025Y-80007228D01*
X144012901Y-79959926D01*
X144011798Y-79952357D01*
X144007969Y-79943685D01*
X144000000Y-79875000D01*
X144000000Y-78625000D01*
X144007969Y-78556315D01*
X144011798Y-78547642D01*
X144012901Y-78540074D01*
X144036028Y-78492766D01*
X144052501Y-78455459D01*
X144055955Y-78452004D01*
X144056408Y-78451079D01*
X144126079Y-78381408D01*
X144127004Y-78380955D01*
X144130459Y-78377501D01*
X144167761Y-78361030D01*
X144215073Y-78337901D01*
X144222642Y-78336798D01*
X144231315Y-78332969D01*
X144300000Y-78325000D01*
X145100000Y-78325000D01*
X145168685Y-78332969D01*
G37*
G36*
X148268685Y-78332969D02*
G01*
X148277358Y-78336798D01*
X148284925Y-78337901D01*
X148332223Y-78361023D01*
X148369541Y-78377501D01*
X148372996Y-78380956D01*
X148373920Y-78381408D01*
X148443591Y-78451079D01*
X148444042Y-78452002D01*
X148447499Y-78455459D01*
X148463978Y-78492782D01*
X148487098Y-78540073D01*
X148488200Y-78547639D01*
X148492031Y-78556315D01*
X148500000Y-78625000D01*
X148500000Y-79875000D01*
X148492031Y-79943685D01*
X148488199Y-79952361D01*
X148487098Y-79959925D01*
X148463985Y-80007202D01*
X148447499Y-80044541D01*
X148444041Y-80047998D01*
X148443591Y-80048920D01*
X148373920Y-80118591D01*
X148372998Y-80119041D01*
X148369541Y-80122499D01*
X148332207Y-80138983D01*
X148284926Y-80162098D01*
X148277361Y-80163200D01*
X148268685Y-80167031D01*
X148200000Y-80175000D01*
X147400000Y-80175000D01*
X147331315Y-80167031D01*
X147322638Y-80163200D01*
X147315074Y-80162098D01*
X147267787Y-80138981D01*
X147230459Y-80122499D01*
X147227002Y-80119042D01*
X147226079Y-80118591D01*
X147156408Y-80048920D01*
X147155956Y-80047996D01*
X147152501Y-80044541D01*
X147136025Y-80007228D01*
X147112901Y-79959926D01*
X147111798Y-79952357D01*
X147107969Y-79943685D01*
X147100000Y-79875000D01*
X147100000Y-78625000D01*
X147107969Y-78556315D01*
X147111798Y-78547642D01*
X147112901Y-78540074D01*
X147136028Y-78492766D01*
X147152501Y-78455459D01*
X147155955Y-78452004D01*
X147156408Y-78451079D01*
X147226079Y-78381408D01*
X147227004Y-78380955D01*
X147230459Y-78377501D01*
X147267761Y-78361030D01*
X147315073Y-78337901D01*
X147322642Y-78336798D01*
X147331315Y-78332969D01*
X147400000Y-78325000D01*
X148200000Y-78325000D01*
X148268685Y-78332969D01*
G37*
G36*
X136710476Y-78741866D02*
G01*
X136834819Y-78813656D01*
X136936344Y-78915181D01*
X137008134Y-79039524D01*
X137045295Y-79178211D01*
X137045295Y-79321789D01*
X137008134Y-79460476D01*
X136936344Y-79584819D01*
X136834819Y-79686344D01*
X136710476Y-79758134D01*
X136571789Y-79795295D01*
X136428211Y-79795295D01*
X136289524Y-79758134D01*
X136165181Y-79686344D01*
X136063656Y-79584819D01*
X135991866Y-79460476D01*
X135954705Y-79321789D01*
X135954705Y-79178211D01*
X135991866Y-79039524D01*
X136063656Y-78915181D01*
X136165181Y-78813656D01*
X136289524Y-78741866D01*
X136428211Y-78704705D01*
X136571789Y-78704705D01*
X136710476Y-78741866D01*
G37*
G36*
X162982228Y-76984448D02*
G01*
X163127117Y-77044463D01*
X163257515Y-77131592D01*
X163368408Y-77242485D01*
X163455537Y-77372883D01*
X163515552Y-77517772D01*
X163546148Y-77671586D01*
X163546148Y-77828414D01*
X163515552Y-77982228D01*
X163455537Y-78127117D01*
X163368408Y-78257515D01*
X163257515Y-78368408D01*
X163127117Y-78455537D01*
X162982228Y-78515552D01*
X162828414Y-78546148D01*
X162671586Y-78546148D01*
X162517772Y-78515552D01*
X162372883Y-78455537D01*
X162242485Y-78368408D01*
X162131592Y-78257515D01*
X162044463Y-78127117D01*
X161984448Y-77982228D01*
X161953852Y-77828414D01*
X161953852Y-77671586D01*
X161984448Y-77517772D01*
X162044463Y-77372883D01*
X162131592Y-77242485D01*
X162242485Y-77131592D01*
X162372883Y-77044463D01*
X162517772Y-76984448D01*
X162671586Y-76953852D01*
X162828414Y-76953852D01*
X162982228Y-76984448D01*
G37*
G36*
X164922208Y-77334254D02*
G01*
X165023943Y-77392991D01*
X165107009Y-77476057D01*
X165165746Y-77577792D01*
X165196150Y-77691263D01*
X165196150Y-77808737D01*
X165165746Y-77922208D01*
X165107009Y-78023943D01*
X165023943Y-78107009D01*
X164922208Y-78165746D01*
X164808737Y-78196150D01*
X164691263Y-78196150D01*
X164577792Y-78165746D01*
X164476057Y-78107009D01*
X164392991Y-78023943D01*
X164334254Y-77922208D01*
X164303850Y-77808737D01*
X164303850Y-77691263D01*
X164334254Y-77577792D01*
X164392991Y-77476057D01*
X164476057Y-77392991D01*
X164577792Y-77334254D01*
X164691263Y-77303850D01*
X164808737Y-77303850D01*
X164922208Y-77334254D01*
G37*
G36*
X138210476Y-76741866D02*
G01*
X138334819Y-76813656D01*
X138436344Y-76915181D01*
X138508134Y-77039524D01*
X138545295Y-77178211D01*
X138545295Y-77321789D01*
X138508134Y-77460476D01*
X138436344Y-77584819D01*
X138334819Y-77686344D01*
X138210476Y-77758134D01*
X138071789Y-77795295D01*
X137928211Y-77795295D01*
X137789524Y-77758134D01*
X137665181Y-77686344D01*
X137563656Y-77584819D01*
X137491866Y-77460476D01*
X137454705Y-77321789D01*
X137454705Y-77178211D01*
X137491866Y-77039524D01*
X137563656Y-76915181D01*
X137665181Y-76813656D01*
X137789524Y-76741866D01*
X137928211Y-76704705D01*
X138071789Y-76704705D01*
X138210476Y-76741866D01*
G37*
G36*
X168761256Y-75888754D02*
G01*
X168924257Y-75956271D01*
X169070954Y-76054291D01*
X169195709Y-76179046D01*
X169293729Y-76325743D01*
X169361246Y-76488744D01*
X169395666Y-76661785D01*
X169395666Y-76838215D01*
X169361246Y-77011256D01*
X169293729Y-77174257D01*
X169195709Y-77320954D01*
X169070954Y-77445709D01*
X168924257Y-77543729D01*
X168761256Y-77611246D01*
X168588215Y-77645666D01*
X168411785Y-77645666D01*
X168238744Y-77611246D01*
X168075743Y-77543729D01*
X167929046Y-77445709D01*
X167804291Y-77320954D01*
X167706271Y-77174257D01*
X167638754Y-77011256D01*
X167604334Y-76838215D01*
X167604334Y-76661785D01*
X167638754Y-76488744D01*
X167706271Y-76325743D01*
X167804291Y-76179046D01*
X167929046Y-76054291D01*
X168075743Y-75956271D01*
X168238744Y-75888754D01*
X168411785Y-75854334D01*
X168588215Y-75854334D01*
X168761256Y-75888754D01*
G37*
G36*
X128892651Y-74937301D02*
G01*
X129094123Y-75002763D01*
X129282873Y-75098936D01*
X129454255Y-75223452D01*
X129604048Y-75373245D01*
X129728564Y-75544627D01*
X129824737Y-75733377D01*
X129890199Y-75934849D01*
X129923338Y-76144080D01*
X129923338Y-76355920D01*
X129890199Y-76565151D01*
X129824737Y-76766623D01*
X129728564Y-76955373D01*
X129604048Y-77126755D01*
X129454255Y-77276548D01*
X129282873Y-77401064D01*
X129094123Y-77497237D01*
X128892651Y-77562699D01*
X128683420Y-77595838D01*
X128471580Y-77595838D01*
X128262349Y-77562699D01*
X128060877Y-77497237D01*
X127872127Y-77401064D01*
X127700745Y-77276548D01*
X127550952Y-77126755D01*
X127426436Y-76955373D01*
X127330263Y-76766623D01*
X127264801Y-76565151D01*
X127231662Y-76355920D01*
X127231662Y-76144080D01*
X127264801Y-75934849D01*
X127330263Y-75733377D01*
X127426436Y-75544627D01*
X127550952Y-75373245D01*
X127700745Y-75223452D01*
X127872127Y-75098936D01*
X128060877Y-75002763D01*
X128262349Y-74937301D01*
X128471580Y-74904162D01*
X128683420Y-74904162D01*
X128892651Y-74937301D01*
G37*
G36*
X154426537Y-76570224D02*
G01*
X154491421Y-76613579D01*
X154534776Y-76678463D01*
X154550000Y-76755000D01*
X154550000Y-77055000D01*
X154534776Y-77131537D01*
X154491421Y-77196421D01*
X154426537Y-77239776D01*
X154350000Y-77255000D01*
X152700000Y-77255000D01*
X152623463Y-77239776D01*
X152558579Y-77196421D01*
X152515224Y-77131537D01*
X152500000Y-77055000D01*
X152500000Y-76755000D01*
X152515224Y-76678463D01*
X152558579Y-76613579D01*
X152623463Y-76570224D01*
X152700000Y-76555000D01*
X154350000Y-76555000D01*
X154426537Y-76570224D01*
G37*
G36*
X159376537Y-76570224D02*
G01*
X159441421Y-76613579D01*
X159484776Y-76678463D01*
X159500000Y-76755000D01*
X159500000Y-77055000D01*
X159484776Y-77131537D01*
X159441421Y-77196421D01*
X159376537Y-77239776D01*
X159300000Y-77255000D01*
X157650000Y-77255000D01*
X157573463Y-77239776D01*
X157508579Y-77196421D01*
X157465224Y-77131537D01*
X157450000Y-77055000D01*
X157450000Y-76755000D01*
X157465224Y-76678463D01*
X157508579Y-76613579D01*
X157573463Y-76570224D01*
X157650000Y-76555000D01*
X159300000Y-76555000D01*
X159376537Y-76570224D01*
G37*
G36*
X149482228Y-74984448D02*
G01*
X149627117Y-75044463D01*
X149757515Y-75131592D01*
X149868408Y-75242485D01*
X149955537Y-75372883D01*
X150015552Y-75517772D01*
X150046148Y-75671586D01*
X150046148Y-75828414D01*
X150015552Y-75982228D01*
X149955537Y-76127117D01*
X149868408Y-76257515D01*
X149757515Y-76368408D01*
X149627117Y-76455537D01*
X149482228Y-76515552D01*
X149328414Y-76546148D01*
X149171586Y-76546148D01*
X149017772Y-76515552D01*
X148872883Y-76455537D01*
X148742485Y-76368408D01*
X148631592Y-76257515D01*
X148544463Y-76127117D01*
X148484448Y-75982228D01*
X148453852Y-75828414D01*
X148453852Y-75671586D01*
X148484448Y-75517772D01*
X148544463Y-75372883D01*
X148631592Y-75242485D01*
X148742485Y-75131592D01*
X148872883Y-75044463D01*
X149017772Y-74984448D01*
X149171586Y-74953852D01*
X149328414Y-74953852D01*
X149482228Y-74984448D01*
G37*
G36*
X141960476Y-75241866D02*
G01*
X142084819Y-75313656D01*
X142186344Y-75415181D01*
X142258134Y-75539524D01*
X142295295Y-75678211D01*
X142295295Y-75821789D01*
X142258134Y-75960476D01*
X142186344Y-76084819D01*
X142084819Y-76186344D01*
X141960476Y-76258134D01*
X141821789Y-76295295D01*
X141678211Y-76295295D01*
X141539524Y-76258134D01*
X141415181Y-76186344D01*
X141313656Y-76084819D01*
X141241866Y-75960476D01*
X141204705Y-75821789D01*
X141204705Y-75678211D01*
X141241866Y-75539524D01*
X141313656Y-75415181D01*
X141415181Y-75313656D01*
X141539524Y-75241866D01*
X141678211Y-75204705D01*
X141821789Y-75204705D01*
X141960476Y-75241866D01*
G37*
G36*
X160672208Y-75219254D02*
G01*
X160773943Y-75277991D01*
X160857009Y-75361057D01*
X160915746Y-75462792D01*
X160946150Y-75576263D01*
X160946150Y-75693737D01*
X160915746Y-75807208D01*
X160857009Y-75908943D01*
X160773943Y-75992009D01*
X160672208Y-76050746D01*
X160558737Y-76081150D01*
X160441263Y-76081150D01*
X160327792Y-76050746D01*
X160226057Y-75992009D01*
X160142991Y-75908943D01*
X160084254Y-75807208D01*
X160053850Y-75693737D01*
X160053850Y-75576263D01*
X160084254Y-75462792D01*
X160142991Y-75361057D01*
X160226057Y-75277991D01*
X160327792Y-75219254D01*
X160441263Y-75188850D01*
X160558737Y-75188850D01*
X160672208Y-75219254D01*
G37*
G36*
X154426537Y-75300224D02*
G01*
X154491421Y-75343579D01*
X154534776Y-75408463D01*
X154550000Y-75485000D01*
X154550000Y-75785000D01*
X154534776Y-75861537D01*
X154491421Y-75926421D01*
X154426537Y-75969776D01*
X154350000Y-75985000D01*
X152700000Y-75985000D01*
X152623463Y-75969776D01*
X152558579Y-75926421D01*
X152515224Y-75861537D01*
X152500000Y-75785000D01*
X152500000Y-75485000D01*
X152515224Y-75408463D01*
X152558579Y-75343579D01*
X152623463Y-75300224D01*
X152700000Y-75285000D01*
X154350000Y-75285000D01*
X154426537Y-75300224D01*
G37*
G36*
X159376537Y-75300224D02*
G01*
X159441421Y-75343579D01*
X159484776Y-75408463D01*
X159500000Y-75485000D01*
X159500000Y-75785000D01*
X159484776Y-75861537D01*
X159441421Y-75926421D01*
X159376537Y-75969776D01*
X159300000Y-75985000D01*
X157650000Y-75985000D01*
X157573463Y-75969776D01*
X157508579Y-75926421D01*
X157465224Y-75861537D01*
X157450000Y-75785000D01*
X157450000Y-75485000D01*
X157465224Y-75408463D01*
X157508579Y-75343579D01*
X157573463Y-75300224D01*
X157650000Y-75285000D01*
X159300000Y-75285000D01*
X159376537Y-75300224D01*
G37*
G36*
X162482228Y-73984448D02*
G01*
X162627117Y-74044463D01*
X162757515Y-74131592D01*
X162868408Y-74242485D01*
X162955537Y-74372883D01*
X163015552Y-74517772D01*
X163046148Y-74671586D01*
X163046148Y-74828414D01*
X163015552Y-74982228D01*
X162955537Y-75127117D01*
X162868408Y-75257515D01*
X162757515Y-75368408D01*
X162627117Y-75455537D01*
X162482228Y-75515552D01*
X162328414Y-75546148D01*
X162171586Y-75546148D01*
X162017772Y-75515552D01*
X161872883Y-75455537D01*
X161742485Y-75368408D01*
X161631592Y-75257515D01*
X161544463Y-75127117D01*
X161484448Y-74982228D01*
X161453852Y-74828414D01*
X161453852Y-74671586D01*
X161484448Y-74517772D01*
X161544463Y-74372883D01*
X161631592Y-74242485D01*
X161742485Y-74131592D01*
X161872883Y-74044463D01*
X162017772Y-73984448D01*
X162171586Y-73953852D01*
X162328414Y-73953852D01*
X162482228Y-73984448D01*
G37*
G36*
X168761256Y-73348754D02*
G01*
X168924257Y-73416271D01*
X169070954Y-73514291D01*
X169195709Y-73639046D01*
X169293729Y-73785743D01*
X169361246Y-73948744D01*
X169395666Y-74121785D01*
X169395666Y-74298215D01*
X169361246Y-74471256D01*
X169293729Y-74634257D01*
X169195709Y-74780954D01*
X169070954Y-74905709D01*
X168924257Y-75003729D01*
X168761256Y-75071246D01*
X168588215Y-75105666D01*
X168411785Y-75105666D01*
X168238744Y-75071246D01*
X168075743Y-75003729D01*
X167929046Y-74905709D01*
X167804291Y-74780954D01*
X167706271Y-74634257D01*
X167638754Y-74471256D01*
X167604334Y-74298215D01*
X167604334Y-74121785D01*
X167638754Y-73948744D01*
X167706271Y-73785743D01*
X167804291Y-73639046D01*
X167929046Y-73514291D01*
X168075743Y-73416271D01*
X168238744Y-73348754D01*
X168411785Y-73314334D01*
X168588215Y-73314334D01*
X168761256Y-73348754D01*
G37*
G36*
X154426537Y-74030224D02*
G01*
X154491421Y-74073579D01*
X154534776Y-74138463D01*
X154550000Y-74215000D01*
X154550000Y-74515000D01*
X154534776Y-74591537D01*
X154491421Y-74656421D01*
X154426537Y-74699776D01*
X154350000Y-74715000D01*
X152700000Y-74715000D01*
X152623463Y-74699776D01*
X152558579Y-74656421D01*
X152515224Y-74591537D01*
X152500000Y-74515000D01*
X152500000Y-74215000D01*
X152515224Y-74138463D01*
X152558579Y-74073579D01*
X152623463Y-74030224D01*
X152700000Y-74015000D01*
X154350000Y-74015000D01*
X154426537Y-74030224D01*
G37*
G36*
X159376537Y-74030224D02*
G01*
X159441421Y-74073579D01*
X159484776Y-74138463D01*
X159500000Y-74215000D01*
X159500000Y-74515000D01*
X159484776Y-74591537D01*
X159441421Y-74656421D01*
X159376537Y-74699776D01*
X159300000Y-74715000D01*
X157650000Y-74715000D01*
X157573463Y-74699776D01*
X157508579Y-74656421D01*
X157465224Y-74591537D01*
X157450000Y-74515000D01*
X157450000Y-74215000D01*
X157465224Y-74138463D01*
X157508579Y-74073579D01*
X157573463Y-74030224D01*
X157650000Y-74015000D01*
X159300000Y-74015000D01*
X159376537Y-74030224D01*
G37*
G36*
X142218685Y-73057969D02*
G01*
X142227358Y-73061798D01*
X142234925Y-73062901D01*
X142282223Y-73086023D01*
X142319541Y-73102501D01*
X142322996Y-73105956D01*
X142323920Y-73106408D01*
X142393591Y-73176079D01*
X142394042Y-73177002D01*
X142397499Y-73180459D01*
X142413978Y-73217782D01*
X142437098Y-73265073D01*
X142438200Y-73272639D01*
X142442031Y-73281315D01*
X142450000Y-73350000D01*
X142450000Y-74400000D01*
X142442031Y-74468685D01*
X142438199Y-74477361D01*
X142437098Y-74484925D01*
X142413985Y-74532202D01*
X142397499Y-74569541D01*
X142394041Y-74572998D01*
X142393591Y-74573920D01*
X142323920Y-74643591D01*
X142322998Y-74644041D01*
X142319541Y-74647499D01*
X142282207Y-74663983D01*
X142234926Y-74687098D01*
X142227361Y-74688200D01*
X142218685Y-74692031D01*
X142150000Y-74700000D01*
X141650000Y-74700000D01*
X141581315Y-74692031D01*
X141572638Y-74688200D01*
X141565074Y-74687098D01*
X141517787Y-74663981D01*
X141480459Y-74647499D01*
X141477002Y-74644042D01*
X141476079Y-74643591D01*
X141406408Y-74573920D01*
X141405956Y-74572996D01*
X141402501Y-74569541D01*
X141386025Y-74532228D01*
X141362901Y-74484926D01*
X141361798Y-74477357D01*
X141357969Y-74468685D01*
X141350000Y-74400000D01*
X141350000Y-73350000D01*
X141357969Y-73281315D01*
X141361798Y-73272642D01*
X141362901Y-73265074D01*
X141386028Y-73217766D01*
X141402501Y-73180459D01*
X141405955Y-73177004D01*
X141406408Y-73176079D01*
X141476079Y-73106408D01*
X141477004Y-73105955D01*
X141480459Y-73102501D01*
X141517761Y-73086030D01*
X141565073Y-73062901D01*
X141572642Y-73061798D01*
X141581315Y-73057969D01*
X141650000Y-73050000D01*
X142150000Y-73050000D01*
X142218685Y-73057969D01*
G37*
G36*
X145418685Y-73057969D02*
G01*
X145427358Y-73061798D01*
X145434925Y-73062901D01*
X145482223Y-73086023D01*
X145519541Y-73102501D01*
X145522996Y-73105956D01*
X145523920Y-73106408D01*
X145593591Y-73176079D01*
X145594042Y-73177002D01*
X145597499Y-73180459D01*
X145613978Y-73217782D01*
X145637098Y-73265073D01*
X145638200Y-73272639D01*
X145642031Y-73281315D01*
X145650000Y-73350000D01*
X145650000Y-74400000D01*
X145642031Y-74468685D01*
X145638199Y-74477361D01*
X145637098Y-74484925D01*
X145613985Y-74532202D01*
X145597499Y-74569541D01*
X145594041Y-74572998D01*
X145593591Y-74573920D01*
X145523920Y-74643591D01*
X145522998Y-74644041D01*
X145519541Y-74647499D01*
X145482207Y-74663983D01*
X145434926Y-74687098D01*
X145427361Y-74688200D01*
X145418685Y-74692031D01*
X145350000Y-74700000D01*
X144850000Y-74700000D01*
X144781315Y-74692031D01*
X144772638Y-74688200D01*
X144765074Y-74687098D01*
X144717787Y-74663981D01*
X144680459Y-74647499D01*
X144677002Y-74644042D01*
X144676079Y-74643591D01*
X144606408Y-74573920D01*
X144605956Y-74572996D01*
X144602501Y-74569541D01*
X144586025Y-74532228D01*
X144562901Y-74484926D01*
X144561798Y-74477357D01*
X144557969Y-74468685D01*
X144550000Y-74400000D01*
X144550000Y-73350000D01*
X144557969Y-73281315D01*
X144561798Y-73272642D01*
X144562901Y-73265074D01*
X144586028Y-73217766D01*
X144602501Y-73180459D01*
X144605955Y-73177004D01*
X144606408Y-73176079D01*
X144676079Y-73106408D01*
X144677004Y-73105955D01*
X144680459Y-73102501D01*
X144717761Y-73086030D01*
X144765073Y-73062901D01*
X144772642Y-73061798D01*
X144781315Y-73057969D01*
X144850000Y-73050000D01*
X145350000Y-73050000D01*
X145418685Y-73057969D01*
G37*
G36*
X160672208Y-73334254D02*
G01*
X160773943Y-73392991D01*
X160857009Y-73476057D01*
X160915746Y-73577792D01*
X160946150Y-73691263D01*
X160946150Y-73808737D01*
X160915746Y-73922208D01*
X160857009Y-74023943D01*
X160773943Y-74107009D01*
X160672208Y-74165746D01*
X160558737Y-74196150D01*
X160441263Y-74196150D01*
X160327792Y-74165746D01*
X160226057Y-74107009D01*
X160142991Y-74023943D01*
X160084254Y-73922208D01*
X160053850Y-73808737D01*
X160053850Y-73691263D01*
X160084254Y-73577792D01*
X160142991Y-73476057D01*
X160226057Y-73392991D01*
X160327792Y-73334254D01*
X160441263Y-73303850D01*
X160558737Y-73303850D01*
X160672208Y-73334254D01*
G37*
G36*
X154426537Y-72760224D02*
G01*
X154491421Y-72803579D01*
X154534776Y-72868463D01*
X154550000Y-72945000D01*
X154550000Y-73245000D01*
X154534776Y-73321537D01*
X154491421Y-73386421D01*
X154426537Y-73429776D01*
X154350000Y-73445000D01*
X152700000Y-73445000D01*
X152623463Y-73429776D01*
X152558579Y-73386421D01*
X152515224Y-73321537D01*
X152500000Y-73245000D01*
X152500000Y-72945000D01*
X152515224Y-72868463D01*
X152558579Y-72803579D01*
X152623463Y-72760224D01*
X152700000Y-72745000D01*
X154350000Y-72745000D01*
X154426537Y-72760224D01*
G37*
G36*
X159376537Y-72760224D02*
G01*
X159441421Y-72803579D01*
X159484776Y-72868463D01*
X159500000Y-72945000D01*
X159500000Y-73245000D01*
X159484776Y-73321537D01*
X159441421Y-73386421D01*
X159376537Y-73429776D01*
X159300000Y-73445000D01*
X157650000Y-73445000D01*
X157573463Y-73429776D01*
X157508579Y-73386421D01*
X157465224Y-73321537D01*
X157450000Y-73245000D01*
X157450000Y-72945000D01*
X157465224Y-72868463D01*
X157508579Y-72803579D01*
X157573463Y-72760224D01*
X157650000Y-72745000D01*
X159300000Y-72745000D01*
X159376537Y-72760224D01*
G37*
G36*
X168761256Y-70808754D02*
G01*
X168924257Y-70876271D01*
X169070954Y-70974291D01*
X169195709Y-71099046D01*
X169293729Y-71245743D01*
X169361246Y-71408744D01*
X169395666Y-71581785D01*
X169395666Y-71758215D01*
X169361246Y-71931256D01*
X169293729Y-72094257D01*
X169195709Y-72240954D01*
X169070954Y-72365709D01*
X168924257Y-72463729D01*
X168761256Y-72531246D01*
X168588215Y-72565666D01*
X168411785Y-72565666D01*
X168238744Y-72531246D01*
X168075743Y-72463729D01*
X167929046Y-72365709D01*
X167804291Y-72240954D01*
X167706271Y-72094257D01*
X167638754Y-71931256D01*
X167604334Y-71758215D01*
X167604334Y-71581785D01*
X167638754Y-71408744D01*
X167706271Y-71245743D01*
X167804291Y-71099046D01*
X167929046Y-70974291D01*
X168075743Y-70876271D01*
X168238744Y-70808754D01*
X168411785Y-70774334D01*
X168588215Y-70774334D01*
X168761256Y-70808754D01*
G37*
G36*
X129696185Y-69827969D02*
G01*
X129704858Y-69831798D01*
X129712425Y-69832901D01*
X129759723Y-69856023D01*
X129797041Y-69872501D01*
X129800496Y-69875956D01*
X129801420Y-69876408D01*
X129871091Y-69946079D01*
X129871542Y-69947002D01*
X129874999Y-69950459D01*
X129891478Y-69987782D01*
X129914598Y-70035073D01*
X129915700Y-70042639D01*
X129919531Y-70051315D01*
X129927500Y-70120000D01*
X129927500Y-72220000D01*
X129919531Y-72288685D01*
X129915699Y-72297361D01*
X129914598Y-72304925D01*
X129891485Y-72352202D01*
X129874999Y-72389541D01*
X129871541Y-72392998D01*
X129871091Y-72393920D01*
X129801420Y-72463591D01*
X129800498Y-72464041D01*
X129797041Y-72467499D01*
X129759707Y-72483983D01*
X129712426Y-72507098D01*
X129704861Y-72508200D01*
X129696185Y-72512031D01*
X129627500Y-72520000D01*
X127527500Y-72520000D01*
X127458815Y-72512031D01*
X127450138Y-72508200D01*
X127442574Y-72507098D01*
X127395287Y-72483981D01*
X127357959Y-72467499D01*
X127354502Y-72464042D01*
X127353579Y-72463591D01*
X127283908Y-72393920D01*
X127283456Y-72392996D01*
X127280001Y-72389541D01*
X127263525Y-72352228D01*
X127240401Y-72304926D01*
X127239298Y-72297357D01*
X127235469Y-72288685D01*
X127227500Y-72220000D01*
X127227500Y-70120000D01*
X127235469Y-70051315D01*
X127239298Y-70042642D01*
X127240401Y-70035074D01*
X127263528Y-69987766D01*
X127280001Y-69950459D01*
X127283455Y-69947004D01*
X127283908Y-69946079D01*
X127353579Y-69876408D01*
X127354504Y-69875955D01*
X127357959Y-69872501D01*
X127395261Y-69856030D01*
X127442573Y-69832901D01*
X127450142Y-69831798D01*
X127458815Y-69827969D01*
X127527500Y-69820000D01*
X129627500Y-69820000D01*
X129696185Y-69827969D01*
G37*
G36*
X154172208Y-70334254D02*
G01*
X154273943Y-70392991D01*
X154357009Y-70476057D01*
X154415746Y-70577792D01*
X154446150Y-70691263D01*
X154446150Y-70808737D01*
X154415746Y-70922208D01*
X154357009Y-71023943D01*
X154273943Y-71107009D01*
X154172208Y-71165746D01*
X154058737Y-71196150D01*
X153941263Y-71196150D01*
X153827792Y-71165746D01*
X153726057Y-71107009D01*
X153642991Y-71023943D01*
X153584254Y-70922208D01*
X153553850Y-70808737D01*
X153553850Y-70691263D01*
X153584254Y-70577792D01*
X153642991Y-70476057D01*
X153726057Y-70392991D01*
X153827792Y-70334254D01*
X153941263Y-70303850D01*
X154058737Y-70303850D01*
X154172208Y-70334254D01*
G37*
G36*
X161672208Y-69584254D02*
G01*
X161773943Y-69642991D01*
X161857009Y-69726057D01*
X161915746Y-69827792D01*
X161946150Y-69941263D01*
X161946150Y-70058737D01*
X161915746Y-70172208D01*
X161857009Y-70273943D01*
X161773943Y-70357009D01*
X161672208Y-70415746D01*
X161558737Y-70446150D01*
X161441263Y-70446150D01*
X161327792Y-70415746D01*
X161226057Y-70357009D01*
X161142991Y-70273943D01*
X161084254Y-70172208D01*
X161053850Y-70058737D01*
X161053850Y-69941263D01*
X161084254Y-69827792D01*
X161142991Y-69726057D01*
X161226057Y-69642991D01*
X161327792Y-69584254D01*
X161441263Y-69553850D01*
X161558737Y-69553850D01*
X161672208Y-69584254D01*
G37*
G36*
X164922208Y-69584254D02*
G01*
X165023943Y-69642991D01*
X165107009Y-69726057D01*
X165165746Y-69827792D01*
X165196150Y-69941263D01*
X165196150Y-70058737D01*
X165165746Y-70172208D01*
X165107009Y-70273943D01*
X165023943Y-70357009D01*
X164922208Y-70415746D01*
X164808737Y-70446150D01*
X164691263Y-70446150D01*
X164577792Y-70415746D01*
X164476057Y-70357009D01*
X164392991Y-70273943D01*
X164334254Y-70172208D01*
X164303850Y-70058737D01*
X164303850Y-69941263D01*
X164334254Y-69827792D01*
X164392991Y-69726057D01*
X164476057Y-69642991D01*
X164577792Y-69584254D01*
X164691263Y-69553850D01*
X164808737Y-69553850D01*
X164922208Y-69584254D01*
G37*
G36*
X155344543Y-69351258D02*
G01*
X155446278Y-69409995D01*
X155529344Y-69493061D01*
X155588081Y-69594796D01*
X155618485Y-69708267D01*
X155618485Y-69825741D01*
X155588081Y-69939212D01*
X155529344Y-70040947D01*
X155446278Y-70124013D01*
X155344543Y-70182750D01*
X155231072Y-70213154D01*
X155113598Y-70213154D01*
X155000127Y-70182750D01*
X154898392Y-70124013D01*
X154815326Y-70040947D01*
X154756589Y-69939212D01*
X154726185Y-69825741D01*
X154726185Y-69708267D01*
X154756589Y-69594796D01*
X154815326Y-69493061D01*
X154898392Y-69409995D01*
X155000127Y-69351258D01*
X155113598Y-69320854D01*
X155231072Y-69320854D01*
X155344543Y-69351258D01*
G37*
G36*
X150482228Y-68484448D02*
G01*
X150627117Y-68544463D01*
X150757515Y-68631592D01*
X150868408Y-68742485D01*
X150955537Y-68872883D01*
X151015552Y-69017772D01*
X151046148Y-69171586D01*
X151046148Y-69328414D01*
X151015552Y-69482228D01*
X150955537Y-69627117D01*
X150868408Y-69757515D01*
X150757515Y-69868408D01*
X150627117Y-69955537D01*
X150482228Y-70015552D01*
X150328414Y-70046148D01*
X150171586Y-70046148D01*
X150017772Y-70015552D01*
X149872883Y-69955537D01*
X149742485Y-69868408D01*
X149631592Y-69757515D01*
X149544463Y-69627117D01*
X149484448Y-69482228D01*
X149453852Y-69328414D01*
X149453852Y-69171586D01*
X149484448Y-69017772D01*
X149544463Y-68872883D01*
X149631592Y-68742485D01*
X149742485Y-68631592D01*
X149872883Y-68544463D01*
X150017772Y-68484448D01*
X150171586Y-68453852D01*
X150328414Y-68453852D01*
X150482228Y-68484448D01*
G37*
G36*
X168761256Y-68268754D02*
G01*
X168924257Y-68336271D01*
X169070954Y-68434291D01*
X169195709Y-68559046D01*
X169293729Y-68705743D01*
X169361246Y-68868744D01*
X169395666Y-69041785D01*
X169395666Y-69218215D01*
X169361246Y-69391256D01*
X169293729Y-69554257D01*
X169195709Y-69700954D01*
X169070954Y-69825709D01*
X168924257Y-69923729D01*
X168761256Y-69991246D01*
X168588215Y-70025666D01*
X168411785Y-70025666D01*
X168238744Y-69991246D01*
X168075743Y-69923729D01*
X167929046Y-69825709D01*
X167804291Y-69700954D01*
X167706271Y-69554257D01*
X167638754Y-69391256D01*
X167604334Y-69218215D01*
X167604334Y-69041785D01*
X167638754Y-68868744D01*
X167706271Y-68705743D01*
X167804291Y-68559046D01*
X167929046Y-68434291D01*
X168075743Y-68336271D01*
X168238744Y-68268754D01*
X168411785Y-68234334D01*
X168588215Y-68234334D01*
X168761256Y-68268754D01*
G37*
G36*
X142218685Y-67807969D02*
G01*
X142227358Y-67811798D01*
X142234925Y-67812901D01*
X142282223Y-67836023D01*
X142319541Y-67852501D01*
X142322996Y-67855956D01*
X142323920Y-67856408D01*
X142393591Y-67926079D01*
X142394042Y-67927002D01*
X142397499Y-67930459D01*
X142413978Y-67967782D01*
X142437098Y-68015073D01*
X142438200Y-68022639D01*
X142442031Y-68031315D01*
X142450000Y-68100000D01*
X142450000Y-69150000D01*
X142442031Y-69218685D01*
X142438199Y-69227361D01*
X142437098Y-69234925D01*
X142413985Y-69282202D01*
X142397499Y-69319541D01*
X142394041Y-69322998D01*
X142393591Y-69323920D01*
X142323920Y-69393591D01*
X142322998Y-69394041D01*
X142319541Y-69397499D01*
X142282207Y-69413983D01*
X142234926Y-69437098D01*
X142227361Y-69438200D01*
X142218685Y-69442031D01*
X142150000Y-69450000D01*
X141650000Y-69450000D01*
X141581315Y-69442031D01*
X141572638Y-69438200D01*
X141565074Y-69437098D01*
X141517787Y-69413981D01*
X141480459Y-69397499D01*
X141477002Y-69394042D01*
X141476079Y-69393591D01*
X141406408Y-69323920D01*
X141405956Y-69322996D01*
X141402501Y-69319541D01*
X141386025Y-69282228D01*
X141362901Y-69234926D01*
X141361798Y-69227357D01*
X141357969Y-69218685D01*
X141350000Y-69150000D01*
X141350000Y-68100000D01*
X141357969Y-68031315D01*
X141361798Y-68022642D01*
X141362901Y-68015074D01*
X141386028Y-67967766D01*
X141402501Y-67930459D01*
X141405955Y-67927004D01*
X141406408Y-67926079D01*
X141476079Y-67856408D01*
X141477004Y-67855955D01*
X141480459Y-67852501D01*
X141517761Y-67836030D01*
X141565073Y-67812901D01*
X141572642Y-67811798D01*
X141581315Y-67807969D01*
X141650000Y-67800000D01*
X142150000Y-67800000D01*
X142218685Y-67807969D01*
G37*
G36*
X145418685Y-67807969D02*
G01*
X145427358Y-67811798D01*
X145434925Y-67812901D01*
X145482223Y-67836023D01*
X145519541Y-67852501D01*
X145522996Y-67855956D01*
X145523920Y-67856408D01*
X145593591Y-67926079D01*
X145594042Y-67927002D01*
X145597499Y-67930459D01*
X145613978Y-67967782D01*
X145637098Y-68015073D01*
X145638200Y-68022639D01*
X145642031Y-68031315D01*
X145650000Y-68100000D01*
X145650000Y-69150000D01*
X145642031Y-69218685D01*
X145638199Y-69227361D01*
X145637098Y-69234925D01*
X145613985Y-69282202D01*
X145597499Y-69319541D01*
X145594041Y-69322998D01*
X145593591Y-69323920D01*
X145523920Y-69393591D01*
X145522998Y-69394041D01*
X145519541Y-69397499D01*
X145482207Y-69413983D01*
X145434926Y-69437098D01*
X145427361Y-69438200D01*
X145418685Y-69442031D01*
X145350000Y-69450000D01*
X144850000Y-69450000D01*
X144781315Y-69442031D01*
X144772638Y-69438200D01*
X144765074Y-69437098D01*
X144717787Y-69413981D01*
X144680459Y-69397499D01*
X144677002Y-69394042D01*
X144676079Y-69393591D01*
X144606408Y-69323920D01*
X144605956Y-69322996D01*
X144602501Y-69319541D01*
X144586025Y-69282228D01*
X144562901Y-69234926D01*
X144561798Y-69227357D01*
X144557969Y-69218685D01*
X144550000Y-69150000D01*
X144550000Y-68100000D01*
X144557969Y-68031315D01*
X144561798Y-68022642D01*
X144562901Y-68015074D01*
X144586028Y-67967766D01*
X144602501Y-67930459D01*
X144605955Y-67927004D01*
X144606408Y-67926079D01*
X144676079Y-67856408D01*
X144677004Y-67855955D01*
X144680459Y-67852501D01*
X144717761Y-67836030D01*
X144765073Y-67812901D01*
X144772642Y-67811798D01*
X144781315Y-67807969D01*
X144850000Y-67800000D01*
X145350000Y-67800000D01*
X145418685Y-67807969D01*
G37*
G36*
X161422208Y-68334254D02*
G01*
X161523943Y-68392991D01*
X161607009Y-68476057D01*
X161665746Y-68577792D01*
X161696150Y-68691263D01*
X161696150Y-68808737D01*
X161665746Y-68922208D01*
X161607009Y-69023943D01*
X161523943Y-69107009D01*
X161422208Y-69165746D01*
X161308737Y-69196150D01*
X161191263Y-69196150D01*
X161077792Y-69165746D01*
X160976057Y-69107009D01*
X160892991Y-69023943D01*
X160834254Y-68922208D01*
X160803850Y-68808737D01*
X160803850Y-68691263D01*
X160834254Y-68577792D01*
X160892991Y-68476057D01*
X160976057Y-68392991D01*
X161077792Y-68334254D01*
X161191263Y-68303850D01*
X161308737Y-68303850D01*
X161422208Y-68334254D01*
G37*
G36*
X163982228Y-67234448D02*
G01*
X164127117Y-67294463D01*
X164257515Y-67381592D01*
X164368408Y-67492485D01*
X164455537Y-67622883D01*
X164515552Y-67767772D01*
X164546148Y-67921586D01*
X164546148Y-68078414D01*
X164515552Y-68232228D01*
X164455537Y-68377117D01*
X164368408Y-68507515D01*
X164257515Y-68618408D01*
X164127117Y-68705537D01*
X163982228Y-68765552D01*
X163828414Y-68796148D01*
X163671586Y-68796148D01*
X163517772Y-68765552D01*
X163372883Y-68705537D01*
X163242485Y-68618408D01*
X163131592Y-68507515D01*
X163044463Y-68377117D01*
X162984448Y-68232228D01*
X162953852Y-68078414D01*
X162953852Y-67921586D01*
X162984448Y-67767772D01*
X163044463Y-67622883D01*
X163131592Y-67492485D01*
X163242485Y-67381592D01*
X163372883Y-67294463D01*
X163517772Y-67234448D01*
X163671586Y-67203852D01*
X163828414Y-67203852D01*
X163982228Y-67234448D01*
G37*
G36*
X156511256Y-66638754D02*
G01*
X156674257Y-66706271D01*
X156820954Y-66804291D01*
X156945709Y-66929046D01*
X157043729Y-67075743D01*
X157111246Y-67238744D01*
X157145666Y-67411785D01*
X157145666Y-67588215D01*
X157111246Y-67761256D01*
X157043729Y-67924257D01*
X156945709Y-68070954D01*
X156820954Y-68195709D01*
X156674257Y-68293729D01*
X156511256Y-68361246D01*
X156338215Y-68395666D01*
X156161785Y-68395666D01*
X155988744Y-68361246D01*
X155825743Y-68293729D01*
X155679046Y-68195709D01*
X155554291Y-68070954D01*
X155456271Y-67924257D01*
X155388754Y-67761256D01*
X155354334Y-67588215D01*
X155354334Y-67411785D01*
X155388754Y-67238744D01*
X155456271Y-67075743D01*
X155554291Y-66929046D01*
X155679046Y-66804291D01*
X155825743Y-66706271D01*
X155988744Y-66638754D01*
X156161785Y-66604334D01*
X156338215Y-66604334D01*
X156511256Y-66638754D01*
G37*
G36*
X159051256Y-66638754D02*
G01*
X159214257Y-66706271D01*
X159360954Y-66804291D01*
X159485709Y-66929046D01*
X159583729Y-67075743D01*
X159651246Y-67238744D01*
X159685666Y-67411785D01*
X159685666Y-67588215D01*
X159651246Y-67761256D01*
X159583729Y-67924257D01*
X159485709Y-68070954D01*
X159360954Y-68195709D01*
X159214257Y-68293729D01*
X159051256Y-68361246D01*
X158878215Y-68395666D01*
X158701785Y-68395666D01*
X158528744Y-68361246D01*
X158365743Y-68293729D01*
X158219046Y-68195709D01*
X158094291Y-68070954D01*
X157996271Y-67924257D01*
X157928754Y-67761256D01*
X157894334Y-67588215D01*
X157894334Y-67411785D01*
X157928754Y-67238744D01*
X157996271Y-67075743D01*
X158094291Y-66929046D01*
X158219046Y-66804291D01*
X158365743Y-66706271D01*
X158528744Y-66638754D01*
X158701785Y-66604334D01*
X158878215Y-66604334D01*
X159051256Y-66638754D01*
G37*
G36*
X138960476Y-66991866D02*
G01*
X139084819Y-67063656D01*
X139186344Y-67165181D01*
X139258134Y-67289524D01*
X139295295Y-67428211D01*
X139295295Y-67571789D01*
X139258134Y-67710476D01*
X139186344Y-67834819D01*
X139084819Y-67936344D01*
X138960476Y-68008134D01*
X138821789Y-68045295D01*
X138678211Y-68045295D01*
X138539524Y-68008134D01*
X138415181Y-67936344D01*
X138313656Y-67834819D01*
X138241866Y-67710476D01*
X138204705Y-67571789D01*
X138204705Y-67428211D01*
X138241866Y-67289524D01*
X138313656Y-67165181D01*
X138415181Y-67063656D01*
X138539524Y-66991866D01*
X138678211Y-66954705D01*
X138821789Y-66954705D01*
X138960476Y-66991866D01*
G37*
G36*
X141960476Y-66491866D02*
G01*
X142084819Y-66563656D01*
X142186344Y-66665181D01*
X142258134Y-66789524D01*
X142295295Y-66928211D01*
X142295295Y-67071789D01*
X142258134Y-67210476D01*
X142186344Y-67334819D01*
X142084819Y-67436344D01*
X141960476Y-67508134D01*
X141821789Y-67545295D01*
X141678211Y-67545295D01*
X141539524Y-67508134D01*
X141415181Y-67436344D01*
X141313656Y-67334819D01*
X141241866Y-67210476D01*
X141204705Y-67071789D01*
X141204705Y-66928211D01*
X141241866Y-66789524D01*
X141313656Y-66665181D01*
X141415181Y-66563656D01*
X141539524Y-66491866D01*
X141678211Y-66454705D01*
X141821789Y-66454705D01*
X141960476Y-66491866D01*
G37*
G36*
X168761256Y-65728754D02*
G01*
X168924257Y-65796271D01*
X169070954Y-65894291D01*
X169195709Y-66019046D01*
X169293729Y-66165743D01*
X169361246Y-66328744D01*
X169395666Y-66501785D01*
X169395666Y-66678215D01*
X169361246Y-66851256D01*
X169293729Y-67014257D01*
X169195709Y-67160954D01*
X169070954Y-67285709D01*
X168924257Y-67383729D01*
X168761256Y-67451246D01*
X168588215Y-67485666D01*
X168411785Y-67485666D01*
X168238744Y-67451246D01*
X168075743Y-67383729D01*
X167929046Y-67285709D01*
X167804291Y-67160954D01*
X167706271Y-67014257D01*
X167638754Y-66851256D01*
X167604334Y-66678215D01*
X167604334Y-66501785D01*
X167638754Y-66328744D01*
X167706271Y-66165743D01*
X167804291Y-66019046D01*
X167929046Y-65894291D01*
X168075743Y-65796271D01*
X168238744Y-65728754D01*
X168411785Y-65694334D01*
X168588215Y-65694334D01*
X168761256Y-65728754D01*
G37*
G36*
X125482228Y-65734448D02*
G01*
X125627117Y-65794463D01*
X125757515Y-65881592D01*
X125868408Y-65992485D01*
X125955537Y-66122883D01*
X126015552Y-66267772D01*
X126046148Y-66421586D01*
X126046148Y-66578414D01*
X126015552Y-66732228D01*
X125955537Y-66877117D01*
X125868408Y-67007515D01*
X125757515Y-67118408D01*
X125627117Y-67205537D01*
X125482228Y-67265552D01*
X125328414Y-67296148D01*
X125171586Y-67296148D01*
X125017772Y-67265552D01*
X124872883Y-67205537D01*
X124742485Y-67118408D01*
X124631592Y-67007515D01*
X124544463Y-66877117D01*
X124484448Y-66732228D01*
X124453852Y-66578414D01*
X124453852Y-66421586D01*
X124484448Y-66267772D01*
X124544463Y-66122883D01*
X124631592Y-65992485D01*
X124742485Y-65881592D01*
X124872883Y-65794463D01*
X125017772Y-65734448D01*
X125171586Y-65703852D01*
X125328414Y-65703852D01*
X125482228Y-65734448D01*
G37*
G36*
X139468685Y-65107969D02*
G01*
X139477358Y-65111798D01*
X139484925Y-65112901D01*
X139532223Y-65136023D01*
X139569541Y-65152501D01*
X139572996Y-65155956D01*
X139573920Y-65156408D01*
X139643591Y-65226079D01*
X139644042Y-65227002D01*
X139647499Y-65230459D01*
X139663978Y-65267782D01*
X139687098Y-65315073D01*
X139688200Y-65322639D01*
X139692031Y-65331315D01*
X139700000Y-65400000D01*
X139700000Y-66225000D01*
X139692031Y-66293685D01*
X139688199Y-66302361D01*
X139687098Y-66309925D01*
X139663985Y-66357202D01*
X139647499Y-66394541D01*
X139644041Y-66397998D01*
X139643591Y-66398920D01*
X139573920Y-66468591D01*
X139572998Y-66469041D01*
X139569541Y-66472499D01*
X139532207Y-66488983D01*
X139484926Y-66512098D01*
X139477361Y-66513200D01*
X139468685Y-66517031D01*
X139400000Y-66525000D01*
X138100000Y-66525000D01*
X138031315Y-66517031D01*
X138022638Y-66513200D01*
X138015074Y-66512098D01*
X137967787Y-66488981D01*
X137930459Y-66472499D01*
X137927002Y-66469042D01*
X137926079Y-66468591D01*
X137856408Y-66398920D01*
X137855956Y-66397996D01*
X137852501Y-66394541D01*
X137836025Y-66357228D01*
X137812901Y-66309926D01*
X137811798Y-66302357D01*
X137807969Y-66293685D01*
X137800000Y-66225000D01*
X137800000Y-65400000D01*
X137807969Y-65331315D01*
X137811798Y-65322642D01*
X137812901Y-65315074D01*
X137836028Y-65267766D01*
X137852501Y-65230459D01*
X137855955Y-65227004D01*
X137856408Y-65226079D01*
X137926079Y-65156408D01*
X137927004Y-65155955D01*
X137930459Y-65152501D01*
X137967761Y-65136030D01*
X138015073Y-65112901D01*
X138022642Y-65111798D01*
X138031315Y-65107969D01*
X138100000Y-65100000D01*
X139400000Y-65100000D01*
X139468685Y-65107969D01*
G37*
G36*
X149193685Y-65107969D02*
G01*
X149202358Y-65111798D01*
X149209925Y-65112901D01*
X149257223Y-65136023D01*
X149294541Y-65152501D01*
X149297996Y-65155956D01*
X149298920Y-65156408D01*
X149368591Y-65226079D01*
X149369042Y-65227002D01*
X149372499Y-65230459D01*
X149388978Y-65267782D01*
X149412098Y-65315073D01*
X149413200Y-65322639D01*
X149417031Y-65331315D01*
X149425000Y-65400000D01*
X149425000Y-66200000D01*
X149417031Y-66268685D01*
X149413199Y-66277361D01*
X149412098Y-66284925D01*
X149388985Y-66332202D01*
X149372499Y-66369541D01*
X149369041Y-66372998D01*
X149368591Y-66373920D01*
X149298920Y-66443591D01*
X149297998Y-66444041D01*
X149294541Y-66447499D01*
X149257207Y-66463983D01*
X149209926Y-66487098D01*
X149202361Y-66488200D01*
X149193685Y-66492031D01*
X149125000Y-66500000D01*
X147875000Y-66500000D01*
X147806315Y-66492031D01*
X147797638Y-66488200D01*
X147790074Y-66487098D01*
X147742787Y-66463981D01*
X147705459Y-66447499D01*
X147702002Y-66444042D01*
X147701079Y-66443591D01*
X147631408Y-66373920D01*
X147630956Y-66372996D01*
X147627501Y-66369541D01*
X147611025Y-66332228D01*
X147587901Y-66284926D01*
X147586798Y-66277357D01*
X147582969Y-66268685D01*
X147575000Y-66200000D01*
X147575000Y-65400000D01*
X147582969Y-65331315D01*
X147586798Y-65322642D01*
X147587901Y-65315074D01*
X147611028Y-65267766D01*
X147627501Y-65230459D01*
X147630955Y-65227004D01*
X147631408Y-65226079D01*
X147701079Y-65156408D01*
X147702004Y-65155955D01*
X147705459Y-65152501D01*
X147742761Y-65136030D01*
X147790073Y-65112901D01*
X147797642Y-65111798D01*
X147806315Y-65107969D01*
X147875000Y-65100000D01*
X149125000Y-65100000D01*
X149193685Y-65107969D01*
G37*
G36*
X136710476Y-65241866D02*
G01*
X136834819Y-65313656D01*
X136936344Y-65415181D01*
X137008134Y-65539524D01*
X137045295Y-65678211D01*
X137045295Y-65821789D01*
X137008134Y-65960476D01*
X136936344Y-66084819D01*
X136834819Y-66186344D01*
X136710476Y-66258134D01*
X136571789Y-66295295D01*
X136428211Y-66295295D01*
X136289524Y-66258134D01*
X136165181Y-66186344D01*
X136063656Y-66084819D01*
X135991866Y-65960476D01*
X135954705Y-65821789D01*
X135954705Y-65678211D01*
X135991866Y-65539524D01*
X136063656Y-65415181D01*
X136165181Y-65313656D01*
X136289524Y-65241866D01*
X136428211Y-65204705D01*
X136571789Y-65204705D01*
X136710476Y-65241866D01*
G37*
G36*
X141210476Y-65241866D02*
G01*
X141334819Y-65313656D01*
X141436344Y-65415181D01*
X141508134Y-65539524D01*
X141545295Y-65678211D01*
X141545295Y-65821789D01*
X141508134Y-65960476D01*
X141436344Y-66084819D01*
X141334819Y-66186344D01*
X141210476Y-66258134D01*
X141071789Y-66295295D01*
X140928211Y-66295295D01*
X140789524Y-66258134D01*
X140665181Y-66186344D01*
X140563656Y-66084819D01*
X140491866Y-65960476D01*
X140454705Y-65821789D01*
X140454705Y-65678211D01*
X140491866Y-65539524D01*
X140563656Y-65415181D01*
X140665181Y-65313656D01*
X140789524Y-65241866D01*
X140928211Y-65204705D01*
X141071789Y-65204705D01*
X141210476Y-65241866D01*
G37*
G36*
X156511256Y-64098754D02*
G01*
X156674257Y-64166271D01*
X156820954Y-64264291D01*
X156945709Y-64389046D01*
X157043729Y-64535743D01*
X157111246Y-64698744D01*
X157145666Y-64871785D01*
X157145666Y-65048215D01*
X157111246Y-65221256D01*
X157043729Y-65384257D01*
X156945709Y-65530954D01*
X156820954Y-65655709D01*
X156674257Y-65753729D01*
X156511256Y-65821246D01*
X156338215Y-65855666D01*
X156161785Y-65855666D01*
X155988744Y-65821246D01*
X155825743Y-65753729D01*
X155679046Y-65655709D01*
X155554291Y-65530954D01*
X155456271Y-65384257D01*
X155388754Y-65221256D01*
X155354334Y-65048215D01*
X155354334Y-64871785D01*
X155388754Y-64698744D01*
X155456271Y-64535743D01*
X155554291Y-64389046D01*
X155679046Y-64264291D01*
X155825743Y-64166271D01*
X155988744Y-64098754D01*
X156161785Y-64064334D01*
X156338215Y-64064334D01*
X156511256Y-64098754D01*
G37*
G36*
X159051256Y-64098754D02*
G01*
X159214257Y-64166271D01*
X159360954Y-64264291D01*
X159485709Y-64389046D01*
X159583729Y-64535743D01*
X159651246Y-64698744D01*
X159685666Y-64871785D01*
X159685666Y-65048215D01*
X159651246Y-65221256D01*
X159583729Y-65384257D01*
X159485709Y-65530954D01*
X159360954Y-65655709D01*
X159214257Y-65753729D01*
X159051256Y-65821246D01*
X158878215Y-65855666D01*
X158701785Y-65855666D01*
X158528744Y-65821246D01*
X158365743Y-65753729D01*
X158219046Y-65655709D01*
X158094291Y-65530954D01*
X157996271Y-65384257D01*
X157928754Y-65221256D01*
X157894334Y-65048215D01*
X157894334Y-64871785D01*
X157928754Y-64698744D01*
X157996271Y-64535743D01*
X158094291Y-64389046D01*
X158219046Y-64264291D01*
X158365743Y-64166271D01*
X158528744Y-64098754D01*
X158701785Y-64064334D01*
X158878215Y-64064334D01*
X159051256Y-64098754D01*
G37*
G36*
X152982228Y-64234448D02*
G01*
X153127117Y-64294463D01*
X153257515Y-64381592D01*
X153368408Y-64492485D01*
X153455537Y-64622883D01*
X153515552Y-64767772D01*
X153546148Y-64921586D01*
X153546148Y-65078414D01*
X153515552Y-65232228D01*
X153455537Y-65377117D01*
X153368408Y-65507515D01*
X153257515Y-65618408D01*
X153127117Y-65705537D01*
X152982228Y-65765552D01*
X152828414Y-65796148D01*
X152671586Y-65796148D01*
X152517772Y-65765552D01*
X152372883Y-65705537D01*
X152242485Y-65618408D01*
X152131592Y-65507515D01*
X152044463Y-65377117D01*
X151984448Y-65232228D01*
X151953852Y-65078414D01*
X151953852Y-64921586D01*
X151984448Y-64767772D01*
X152044463Y-64622883D01*
X152131592Y-64492485D01*
X152242485Y-64381592D01*
X152372883Y-64294463D01*
X152517772Y-64234448D01*
X152671586Y-64203852D01*
X152828414Y-64203852D01*
X152982228Y-64234448D01*
G37*
G36*
X129568685Y-61807969D02*
G01*
X129577358Y-61811798D01*
X129584925Y-61812901D01*
X129632223Y-61836023D01*
X129669541Y-61852501D01*
X129672996Y-61855956D01*
X129673920Y-61856408D01*
X129743591Y-61926079D01*
X129744042Y-61927002D01*
X129747499Y-61930459D01*
X129763978Y-61967782D01*
X129787098Y-62015073D01*
X129788200Y-62022639D01*
X129792031Y-62031315D01*
X129800000Y-62100000D01*
X129800000Y-63400000D01*
X129792031Y-63468685D01*
X129788199Y-63477361D01*
X129787098Y-63484925D01*
X129763985Y-63532202D01*
X129747499Y-63569541D01*
X129744041Y-63572998D01*
X129743591Y-63573920D01*
X129673920Y-63643591D01*
X129672998Y-63644041D01*
X129669541Y-63647499D01*
X129632207Y-63663983D01*
X129584926Y-63687098D01*
X129577361Y-63688200D01*
X129568685Y-63692031D01*
X129500000Y-63700000D01*
X126500000Y-63700000D01*
X126431315Y-63692031D01*
X126422638Y-63688200D01*
X126415074Y-63687098D01*
X126367787Y-63663981D01*
X126330459Y-63647499D01*
X126327002Y-63644042D01*
X126326079Y-63643591D01*
X126256408Y-63573920D01*
X126255956Y-63572996D01*
X126252501Y-63569541D01*
X126236025Y-63532228D01*
X126212901Y-63484926D01*
X126211798Y-63477357D01*
X126207969Y-63468685D01*
X126200000Y-63400000D01*
X126200000Y-62100000D01*
X126207969Y-62031315D01*
X126211798Y-62022642D01*
X126212901Y-62015074D01*
X126236028Y-61967766D01*
X126252501Y-61930459D01*
X126255955Y-61927004D01*
X126256408Y-61926079D01*
X126326079Y-61856408D01*
X126327004Y-61855955D01*
X126330459Y-61852501D01*
X126367761Y-61836030D01*
X126415073Y-61812901D01*
X126422642Y-61811798D01*
X126431315Y-61807969D01*
X126500000Y-61800000D01*
X129500000Y-61800000D01*
X129568685Y-61807969D01*
G37*
G36*
X134568685Y-61807969D02*
G01*
X134577358Y-61811798D01*
X134584925Y-61812901D01*
X134632223Y-61836023D01*
X134669541Y-61852501D01*
X134672996Y-61855956D01*
X134673920Y-61856408D01*
X134743591Y-61926079D01*
X134744042Y-61927002D01*
X134747499Y-61930459D01*
X134763978Y-61967782D01*
X134787098Y-62015073D01*
X134788200Y-62022639D01*
X134792031Y-62031315D01*
X134800000Y-62100000D01*
X134800000Y-63400000D01*
X134792031Y-63468685D01*
X134788199Y-63477361D01*
X134787098Y-63484925D01*
X134763985Y-63532202D01*
X134747499Y-63569541D01*
X134744041Y-63572998D01*
X134743591Y-63573920D01*
X134673920Y-63643591D01*
X134672998Y-63644041D01*
X134669541Y-63647499D01*
X134632207Y-63663983D01*
X134584926Y-63687098D01*
X134577361Y-63688200D01*
X134568685Y-63692031D01*
X134500000Y-63700000D01*
X131500000Y-63700000D01*
X131431315Y-63692031D01*
X131422638Y-63688200D01*
X131415074Y-63687098D01*
X131367787Y-63663981D01*
X131330459Y-63647499D01*
X131327002Y-63644042D01*
X131326079Y-63643591D01*
X131256408Y-63573920D01*
X131255956Y-63572996D01*
X131252501Y-63569541D01*
X131236025Y-63532228D01*
X131212901Y-63484926D01*
X131211798Y-63477357D01*
X131207969Y-63468685D01*
X131200000Y-63400000D01*
X131200000Y-62100000D01*
X131207969Y-62031315D01*
X131211798Y-62022642D01*
X131212901Y-62015074D01*
X131236028Y-61967766D01*
X131252501Y-61930459D01*
X131255955Y-61927004D01*
X131256408Y-61926079D01*
X131326079Y-61856408D01*
X131327004Y-61855955D01*
X131330459Y-61852501D01*
X131367761Y-61836030D01*
X131415073Y-61812901D01*
X131422642Y-61811798D01*
X131431315Y-61807969D01*
X131500000Y-61800000D01*
X134500000Y-61800000D01*
X134568685Y-61807969D01*
G37*
G36*
X139468685Y-61982969D02*
G01*
X139477358Y-61986798D01*
X139484925Y-61987901D01*
X139532223Y-62011023D01*
X139569541Y-62027501D01*
X139572996Y-62030956D01*
X139573920Y-62031408D01*
X139643591Y-62101079D01*
X139644042Y-62102002D01*
X139647499Y-62105459D01*
X139663978Y-62142782D01*
X139687098Y-62190073D01*
X139688200Y-62197639D01*
X139692031Y-62206315D01*
X139700000Y-62275000D01*
X139700000Y-63100000D01*
X139692031Y-63168685D01*
X139688199Y-63177361D01*
X139687098Y-63184925D01*
X139663985Y-63232202D01*
X139647499Y-63269541D01*
X139644041Y-63272998D01*
X139643591Y-63273920D01*
X139573920Y-63343591D01*
X139572998Y-63344041D01*
X139569541Y-63347499D01*
X139532207Y-63363983D01*
X139484926Y-63387098D01*
X139477361Y-63388200D01*
X139468685Y-63392031D01*
X139400000Y-63400000D01*
X138100000Y-63400000D01*
X138031315Y-63392031D01*
X138022638Y-63388200D01*
X138015074Y-63387098D01*
X137967787Y-63363981D01*
X137930459Y-63347499D01*
X137927002Y-63344042D01*
X137926079Y-63343591D01*
X137856408Y-63273920D01*
X137855956Y-63272996D01*
X137852501Y-63269541D01*
X137836025Y-63232228D01*
X137812901Y-63184926D01*
X137811798Y-63177357D01*
X137807969Y-63168685D01*
X137800000Y-63100000D01*
X137800000Y-62275000D01*
X137807969Y-62206315D01*
X137811798Y-62197642D01*
X137812901Y-62190074D01*
X137836028Y-62142766D01*
X137852501Y-62105459D01*
X137855955Y-62102004D01*
X137856408Y-62101079D01*
X137926079Y-62031408D01*
X137927004Y-62030955D01*
X137930459Y-62027501D01*
X137967761Y-62011030D01*
X138015073Y-61987901D01*
X138022642Y-61986798D01*
X138031315Y-61982969D01*
X138100000Y-61975000D01*
X139400000Y-61975000D01*
X139468685Y-61982969D01*
G37*
G36*
X149193685Y-62007969D02*
G01*
X149202358Y-62011798D01*
X149209925Y-62012901D01*
X149257223Y-62036023D01*
X149294541Y-62052501D01*
X149297996Y-62055956D01*
X149298920Y-62056408D01*
X149368591Y-62126079D01*
X149369042Y-62127002D01*
X149372499Y-62130459D01*
X149388978Y-62167782D01*
X149412098Y-62215073D01*
X149413200Y-62222639D01*
X149417031Y-62231315D01*
X149425000Y-62300000D01*
X149425000Y-63100000D01*
X149417031Y-63168685D01*
X149413199Y-63177361D01*
X149412098Y-63184925D01*
X149388985Y-63232202D01*
X149372499Y-63269541D01*
X149369041Y-63272998D01*
X149368591Y-63273920D01*
X149298920Y-63343591D01*
X149297998Y-63344041D01*
X149294541Y-63347499D01*
X149257207Y-63363983D01*
X149209926Y-63387098D01*
X149202361Y-63388200D01*
X149193685Y-63392031D01*
X149125000Y-63400000D01*
X147875000Y-63400000D01*
X147806315Y-63392031D01*
X147797638Y-63388200D01*
X147790074Y-63387098D01*
X147742787Y-63363981D01*
X147705459Y-63347499D01*
X147702002Y-63344042D01*
X147701079Y-63343591D01*
X147631408Y-63273920D01*
X147630956Y-63272996D01*
X147627501Y-63269541D01*
X147611025Y-63232228D01*
X147587901Y-63184926D01*
X147586798Y-63177357D01*
X147582969Y-63168685D01*
X147575000Y-63100000D01*
X147575000Y-62300000D01*
X147582969Y-62231315D01*
X147586798Y-62222642D01*
X147587901Y-62215074D01*
X147611028Y-62167766D01*
X147627501Y-62130459D01*
X147630955Y-62127004D01*
X147631408Y-62126079D01*
X147701079Y-62056408D01*
X147702004Y-62055955D01*
X147705459Y-62052501D01*
X147742761Y-62036030D01*
X147790073Y-62012901D01*
X147797642Y-62011798D01*
X147806315Y-62007969D01*
X147875000Y-62000000D01*
X149125000Y-62000000D01*
X149193685Y-62007969D01*
G37*
G36*
X157119134Y-61523806D02*
G01*
X157135355Y-61534645D01*
X157146194Y-61550866D01*
X157150000Y-61570000D01*
X157150000Y-63270000D01*
X157146194Y-63289134D01*
X157135355Y-63305355D01*
X157119134Y-63316194D01*
X157100000Y-63320000D01*
X155400000Y-63320000D01*
X155380866Y-63316194D01*
X155364645Y-63305355D01*
X155353806Y-63289134D01*
X155350000Y-63270000D01*
X155350000Y-61570000D01*
X155353806Y-61550866D01*
X155364645Y-61534645D01*
X155380866Y-61523806D01*
X155400000Y-61520000D01*
X157100000Y-61520000D01*
X157119134Y-61523806D01*
G37*
G36*
X159051256Y-61558754D02*
G01*
X159214257Y-61626271D01*
X159360954Y-61724291D01*
X159485709Y-61849046D01*
X159583729Y-61995743D01*
X159651246Y-62158744D01*
X159685666Y-62331785D01*
X159685666Y-62508215D01*
X159651246Y-62681256D01*
X159583729Y-62844257D01*
X159485709Y-62990954D01*
X159360954Y-63115709D01*
X159214257Y-63213729D01*
X159051256Y-63281246D01*
X158878215Y-63315666D01*
X158701785Y-63315666D01*
X158528744Y-63281246D01*
X158365743Y-63213729D01*
X158219046Y-63115709D01*
X158094291Y-62990954D01*
X157996271Y-62844257D01*
X157928754Y-62681256D01*
X157894334Y-62508215D01*
X157894334Y-62331785D01*
X157928754Y-62158744D01*
X157996271Y-61995743D01*
X158094291Y-61849046D01*
X158219046Y-61724291D01*
X158365743Y-61626271D01*
X158528744Y-61558754D01*
X158701785Y-61524334D01*
X158878215Y-61524334D01*
X159051256Y-61558754D01*
G37*
G36*
X143982228Y-61734448D02*
G01*
X144127117Y-61794463D01*
X144257515Y-61881592D01*
X144368408Y-61992485D01*
X144455537Y-62122883D01*
X144515552Y-62267772D01*
X144546148Y-62421586D01*
X144546148Y-62578414D01*
X144515552Y-62732228D01*
X144455537Y-62877117D01*
X144368408Y-63007515D01*
X144257515Y-63118408D01*
X144127117Y-63205537D01*
X143982228Y-63265552D01*
X143828414Y-63296148D01*
X143671586Y-63296148D01*
X143517772Y-63265552D01*
X143372883Y-63205537D01*
X143242485Y-63118408D01*
X143131592Y-63007515D01*
X143044463Y-62877117D01*
X142984448Y-62732228D01*
X142953852Y-62578414D01*
X142953852Y-62421586D01*
X142984448Y-62267772D01*
X143044463Y-62122883D01*
X143131592Y-61992485D01*
X143242485Y-61881592D01*
X143372883Y-61794463D01*
X143517772Y-61734448D01*
X143671586Y-61703852D01*
X143828414Y-61703852D01*
X143982228Y-61734448D01*
G37*
M02*
